<?xml version="1.0" standalone="no"?>
<!DOCTYPE svg PUBLIC "-//W3C//DTD SVG 1.1//EN" "http://www.w3.org/Graphics/SVG/1.1/DTD/svg11.dtd" >
<svg xmlns="http://www.w3.org/2000/svg" xmlns:xlink="http://www.w3.org/1999/xlink" version="1.1">
<metadata>
Created by FontForge 20170731 at Tue Dec 12 16:46:10 2017
 By Aleksey,,,
Copyright (c) 2010-2015 by Claus Eggers Srensen (es@forthehearts.net), with Reserved Font Name 'Playfair'.
</metadata>
<defs>
<font id="iCielPlayfairDisplay-Italic" horiz-adv-x="0" >
  <font-face 
    font-family="iCiel Playfair Display Italic"
    font-weight="400"
    font-style="italic"
    font-stretch="normal"
    units-per-em="1240"
    panose-1="0 0 5 0 0 0 0 0 0 0"
    ascent="999"
    descent="-241"
    x-height="520"
    cap-height="708"
    bbox="-749 -241 1101.27 1093.48"
    underline-thickness="20"
    underline-position="-120"
    slope="-14"
    unicode-range="U+000D-FB02"
  />
<missing-glyph horiz-adv-x="562" 
d="M502 772v-772h-442v772h442zM466 30v712h-370v-712h370z" />
    <glyph glyph-name="IJ" unicode="IJ" horiz-adv-x="798" 
d="M898 730q13 -11 0.5 -27.5t-65.5 -36.5q-32 -27 -56.5 -57.5t-43 -67t-33 -79.5t-26.5 -96h108l-4 -20h-109q0 -2 -0.5 -3t-0.5 -3l-61 -275q-11 -50 -30 -96t-47 -81t-65.5 -55.5t-84.5 -20.5q-45 0 -73.5 13.5t-30.5 41.5q-2 22 13 40.5t40 18.5q18 0 30 -11.5
t14 -28.5q2 -18 -10 -31.5t-28 -21.5q15 -5 35 -5q41 0 67 27t43 71.5t29 101.5t25 117l32 150q3 14 6 26.5t7 24.5h-122l4 20h124q18 55 42 96t53.5 74.5t63.5 63.5t73 63q-48 -25 -97.5 -42.5t-98.5 -17.5q-56 0 -101 9t-87.5 19.5t-88 19t-101.5 8.5q-42 0 -67.5 -15.5
t-25.5 -47.5q0 -24 15 -39t38 -24t49.5 -12.5t48.5 -3.5q32 0 66.5 10t63.5 29l8 -15q-19 -13 -40.5 -21.5t-44.5 -14.5l-116 -399q-7 -25 -9 -41.5t4 -26t21.5 -14t42.5 -4.5l-4 -20q-23 2 -57.5 2.5t-69.5 0.5q-39 0 -72 -0.5t-55 -2.5l5 20q25 1 41 4.5t26.5 12.5
t18 25.5t15.5 43.5l114 392q-26 2 -53 9t-48.5 20t-35.5 34t-14 51q0 27 11 50t30 40.5t45.5 27t57.5 9.5q61 0 108 -16.5t91.5 -37t91 -37t106.5 -16.5q26 0 47.5 3t41.5 9t41 14.5t45 18.5q20 32 39.5 49t34.5 4z" />
    <glyph glyph-name="ij" unicode="ij" horiz-adv-x="625" 
d="M205 683q0 13 5.5 26.5t15.5 25t23.5 18.5t29.5 7q23 0 37 -14.5t14 -36.5q0 -13 -5.5 -27t-15.5 -25t-24 -18t-30 -7q-23 0 -36.5 14.5t-13.5 36.5zM535 683q0 13 5.5 26.5t15.5 25t23.5 18.5t29.5 7q23 0 37 -14.5t14 -36.5q0 -13 -5.5 -27t-15.5 -25t-24 -18t-30 -7
q-23 0 -36.5 14.5t-13.5 36.5zM256 91q16 37 25 80t17 87.5t17.5 88.5t26.5 82q26 58 66 78.5t83 20.5q33 0 51 -11.5t25.5 -30.5t5.5 -44.5t-10 -53.5l-77 -273q-32 -113 -79.5 -190.5t-115.5 -102.5q-15 -5 -31.5 -7.5t-27.5 -2.5q-23 0 -35 10.5t-12 28.5q0 22 17.5 41.5
t41.5 19.5q16 0 24.5 -8.5t8.5 -22.5t-8.5 -28.5t-19.5 -25.5q38 5 60.5 28t38.5 80l139 494q9 31 -0.5 46.5t-34.5 15.5q-28 0 -52.5 -16.5t-46.5 -71.5q-13 -34 -21 -74.5t-15.5 -84t-18 -87.5t-28.5 -84q-12 -27 -28.5 -43.5t-35 -26.5t-38 -13.5t-37.5 -3.5
q-31 0 -51.5 11t-30 30t-9 44.5t10.5 54.5l107 303q12 34 8 48t-22 14q-23 0 -41 -25t-38 -77l-14 -37h-19l26 73q11 32 26 52t31.5 31t34 15.5t32.5 4.5q30 0 45.5 -12t19.5 -31.5t-1 -44.5t-14 -52l-107 -303q-10 -27 1.5 -44.5t41.5 -17.5q23 0 46.5 13t41.5 55z" />
    <glyph glyph-name="fi" unicode="fi" horiz-adv-x="579" 
d="M594 739q13 -18 8 -43q-5 -26 -26.5 -45t-47.5 -19t-40.5 19t-8.5 45q4 23 20.5 40t38.5 22q-14 5 -29.5 7t-35.5 2q-35 0 -60.5 -10t-44.5 -22q-43 -28 -66 -82t-46 -138v-1h190q25 1 48.5 4t42.5 10l-135 -443q-9 -30 -6.5 -46t22.5 -16t38 22t40 80l14 37h19l-26 -73
q-21 -59 -54.5 -81t-68.5 -22q-32 0 -48 12t-20 31.5t1 44.5t15 52l112 368h-190l-190 -668q-24 -1 -47 -4t-43 -10l194 682h-97l6 20h96q19 69 42.5 117t60.5 80q45 38 99.5 54.5t109.5 16.5q32 0 64 -9.5t49 -33.5z" />
    <glyph glyph-name="fl" unicode="fl" horiz-adv-x="588" 
d="M518 162h19l-25 -73q-20 -57 -51 -80t-69 -23q-33 0 -48 13t-19 33t0.5 45t11.5 49l163 541q10 34 -1 53t-60 19h-12q-22 0 -43.5 -9t-34.5 -17q-37 -21 -57 -71t-40 -127v-1h117l-6 -20h-117l-185 -668q-24 -1 -47 -4t-43 -10l189 682h-92l6 20h91q17 64 38.5 107
t53.5 71q35 31 79.5 46.5t88.5 15.5h19q55 1 97 11t81 30l-209 -710q-8 -29 -5 -45.5t22 -16.5q20 0 37.5 22.5t37.5 79.5z" />
    <glyph glyph-name="T_h.liga" unicode="Th" horiz-adv-x="1149" 
d="M1099 162l-25 -73q-11 -31 -25.5 -51.5t-30.5 -31.5t-33 -15.5t-32 -4.5q-30 0 -46 10.5t-21 29t-1 44.5t14 56l95 286q5 13 8 28t2 27.5t-8 20.5t-24 8q-29 0 -62.5 -30t-67 -84t-66.5 -129.5t-61 -167.5l-24 -85h-87l189 675q-29 -12 -61 -16.5t-74 -4.5q-40 0 -78 4
t-75 10l-147 -552q-8 -29 -9 -47.5t7 -29t27 -14.5t50 -5l-4 -20q-26 2 -66 2.5t-83 0.5t-82.5 -0.5t-63.5 -2.5l4 20q32 1 52.5 6t34.5 16t23 29t17 45l151 566q-33 5 -65 8.5t-64 3.5t-64 -3t-48 -14q8 -11 13 -27t5 -31q0 -20 -12 -39t-38 -19q-22 0 -33 13.5t-11 36.5
q0 20 11 41.5t42 36.5q17 8 37 13t38.5 7t34 2.5t24.5 0.5q52 0 98.5 -6t92 -13t91.5 -13t97 -6q43 0 74 5t61 19l23 83q25 1 48.5 4t42.5 10l-147 -523q30 70 58.5 119t57.5 79.5t59 44t63 13.5q34 0 52 -12.5t24.5 -33t3 -48t-13.5 -57.5l-97 -292q-3 -10 -6 -21t-2 -20
t6 -15t18 -6q19 0 37.5 21t39.5 81l13 37h19z" />
    <glyph glyph-name="f_b.liga" unicode="fb" horiz-adv-x="828" 
d="M686 528q48 0 76 -34.5t28 -106.5q0 -57 -19.5 -126.5t-57 -130.5t-92 -102.5t-124.5 -41.5q-29 0 -52 17.5t-32 49.5l-85 -69l-15 7q7 14 11.5 28.5t7.5 29.5l165 618q8 34 -2.5 53t-58.5 19q-26 0 -50.5 -8t-45.5 -26.5t-38.5 -49.5t-31.5 -77l-18 -64h117l-6 -20h-116
l-186 -668q-24 -1 -47 -4t-43 -10l188 682h-91l6 20h91l3 11q15 53 38.5 95t56.5 72t77 46t99 16q55 1 96.5 11t79.5 30l-129 -494q50 122 98.5 174.5t101.5 52.5zM496 9q42 0 80 41.5t66.5 102.5t45 130.5t16.5 125.5q0 45 -12.5 66t-34.5 21q-21 0 -47.5 -26t-54 -70.5
t-54.5 -104t-49 -126.5l-27 -105q13 -31 30.5 -43t40.5 -12z" />
    <glyph glyph-name="f_f" unicode="ff" horiz-adv-x="610" 
d="M679 782q46 0 70.5 -20.5t24.5 -50.5q0 -26 -19 -47.5t-48 -21.5q-19 0 -30 8.5t-10 25.5q0 25 16 42t41 25q0 9 -13 16.5t-33 7.5q-19 0 -33 -8t-25 -18q-13 -13 -24 -36t-20.5 -53t-18 -65t-18.5 -72v-1h118l-6 -20h-118l-179 -668q-24 -1 -47 -4t-43 -10l182 682h-201
l-180 -668q-24 -1 -47 -4t-43 -10l184 682h-92l6 20h91q14 48 37 91t52 69q41 36 86 52t93 16q35 0 60 -9t42 -23q5 6 10 11.5t10 10.5q23 23 56.5 36.5t68.5 13.5zM452 515q16 60 32.5 103.5t38.5 75.5q-36 30 -89 30q-42 0 -71.5 -16.5t-50.5 -44.5t-35 -66t-26 -82v-1
h201v1z" />
    <glyph glyph-name="f_f_b.liga" unicode="ffb" horiz-adv-x="1122" 
d="M980 528q48 0 76 -34.5t28 -106.5q0 -57 -19.5 -126.5t-57 -130.5t-92 -102.5t-124.5 -41.5q-29 0 -52 17.5t-32 49.5l-85 -69l-15 7q7 14 11.5 28.5t7.5 29.5l165 618q8 34 -2.5 53t-58.5 19q-26 0 -50.5 -8t-45.5 -26.5t-38.5 -49.5t-31.5 -77l-18 -64h117l-6 -20h-116
l-186 -668q-24 -1 -47 -4t-43 -10l188 682h-207l-185 -668q-24 -1 -47 -4t-43 -10l189 682h-92l6 20h91q14 48 37 91t52 69q39 36 85 52t94 16q39 0 72.5 -14.5t54.5 -33.5q32 29 75 44.5t98 15.5q55 1 96.5 11t79.5 30l-129 -494q50 122 98.5 174.5t101.5 52.5zM462 525
q14 48 34.5 87.5t49.5 68.5q-20 20 -48 31.5t-63 11.5q-42 0 -71.5 -16t-50.5 -44.5t-35 -66.5t-26 -82v-1h207zM790 9q42 0 80 41.5t66.5 102.5t45 130.5t16.5 125.5q0 45 -12.5 66t-34.5 21q-21 0 -47.5 -26t-54 -70.5t-54.5 -104t-49 -126.5l-27 -105q13 -31 30.5 -43
t40.5 -12z" />
    <glyph glyph-name="f_f_h.liga" unicode="ffh" horiz-adv-x="1146" 
d="M1096 162l-25 -73q-11 -31 -25.5 -51.5t-30.5 -31.5t-33 -15.5t-32 -4.5q-30 0 -46 10.5t-21.5 29t-1 44.5t14.5 56l95 286q4 11 7.5 25.5t3 27.5t-7.5 22t-25 9q-29 0 -62.5 -30t-67 -84t-66.5 -129.5t-61 -167.5l-24 -85h-87l188 667q10 34 -2.5 53t-61.5 19
q-26 0 -50.5 -7.5t-46 -26.5t-39.5 -49.5t-31 -77.5l-18 -64h117l-6 -20h-116l-186 -668q-24 -1 -47 -4t-43 -10l188 682h-201l-185 -668q-24 -1 -47 -4t-43 -10l189 682h-92l6 20h91q14 48 37 91t52 69q40 38 85.5 53t93.5 15q45 0 73.5 -14.5t45.5 -33.5q33 29 76.5 44.5
t98.5 15.5q108 1 184 41l-146 -520q30 69 58.5 117.5t57 78.5t58.5 43.5t63 13.5q35 0 53 -13.5t24 -35t2 -48.5t-13 -54l-97 -292q-8 -26 -7.5 -44t23.5 -18q19 0 37.5 21t39.5 81l13 37h19zM456 525q14 48 33.5 87t48.5 68q-18 20 -44.5 32t-58.5 12q-42 0 -71.5 -16
t-50 -44t-35 -66t-26.5 -83v-1h201z" />
    <glyph glyph-name="f_f_i" unicode="ffi" horiz-adv-x="865" 
d="M880 739q13 -18 8 -43q-5 -26 -26.5 -45t-47.5 -19t-40.5 19t-8.5 45q4 23 20.5 40t38.5 22q-14 5 -29.5 7t-35.5 2q-35 0 -60.5 -10t-44.5 -22q-43 -28 -66 -82t-46 -138v-1h190q25 1 48.5 4t42.5 10l-135 -443q-9 -30 -6.5 -46t22.5 -16t38 22t40 80l14 37h19l-26 -73
q-21 -59 -54.5 -81t-68.5 -22q-32 0 -48 12t-20 31.5t1 44.5t15 52l112 368h-190l-190 -668q-24 -1 -47 -4t-43 -10l194 682h-204l-185 -668q-24 -1 -47 -4t-43 -10l189 682h-92l6 20h91q14 48 37 91t52 69q41 36 86 52t93 16q41 0 68 -12.5t45 -29.5l12 11q45 38 99.5 54.5
t109.5 16.5q32 0 64 -9.5t49 -33.5zM455 514q15 57 33.5 99t44.5 72q-18 18 -43 28.5t-55 10.5q-26 0 -47 -6.5t-37 -17.5q-36 -24 -57.5 -67.5t-41.5 -117.5v-1h203z" />
    <glyph glyph-name="f_f_j.liga" unicode="ffj" horiz-adv-x="860" 
d="M864 755q16 -7 23.5 -23t3.5 -36q-5 -26 -26.5 -45t-47.5 -19t-40.5 19t-8.5 45q4 21 18.5 37.5t33.5 23.5q-12 4 -26.5 6.5t-31.5 2.5q-48 0 -82 -19t-59 -52.5t-43 -79.5t-33 -100v-1h215q25 1 48.5 4t42.5 10l-116 -413q-32 -113 -79.5 -190.5t-115.5 -102.5
q-15 -5 -31.5 -7.5t-27.5 -2.5q-23 0 -35 10.5t-12 28.5q0 22 17.5 41.5t41.5 19.5q16 0 24.5 -8.5t8.5 -22.5t-8.5 -28.5t-19.5 -25.5q38 5 60.5 28t38.5 80l157 559h-215l-139 -494h-86l139 494h-207l-185 -668q-24 -1 -47 -4t-43 -10l189 682h-92l6 20h91q14 48 37.5 91
t51.5 69q39 38 85 53t94 15q43 0 71.5 -14t45.5 -33q4 5 8 8.5t8 7.5q42 38 96.5 54t107.5 16q37 0 59.5 -9t34.5 -17zM458 514q29 106 79 166q-17 20 -43.5 32t-58.5 12q-42 0 -71.5 -16t-50 -43.5t-35 -66t-26.5 -83.5v-1h206z" />
    <glyph glyph-name="f_f_k.liga" unicode="ffk" horiz-adv-x="1125" 
d="M1042 528q35 0 48 -17.5t11 -41.5q-1 -9 -4.5 -20t-10.5 -21t-17.5 -16.5t-25.5 -6.5q-23 0 -31.5 13.5t-7.5 29.5q1 14 10 30.5t22 28.5h-2q-12 0 -20.5 -4t-16.5 -10q-21 -17 -34.5 -47t-29.5 -61t-40 -57.5t-68 -36.5q31 -1 59.5 -8t49 -22t30 -38.5t2.5 -58.5
l-20 -100q-5 -23 -0.5 -32t20.5 -9q20 0 37 22.5t37 79.5l12 37h19l-24 -73q-19 -60 -51 -81.5t-68 -21.5q-32 0 -52 22t-9 73l18 86q6 29 4 49.5t-15.5 35t-39 23t-66.5 11.5l-80 -286h-87l188 667q10 34 -2.5 53t-61.5 19q-26 0 -50.5 -7.5t-46 -26.5t-39.5 -49.5
t-31 -77.5l-18 -64h117l-6 -20h-116l-186 -668q-24 -1 -47 -4t-43 -10l188 682h-201l-185 -668q-24 -1 -47 -4t-43 -10l189 682h-92l6 20h91q14 48 37 91t52 69q40 38 85.5 53t93.5 15q45 0 73.5 -14.5t45.5 -33.5q33 29 76.5 44.5t98.5 15.5q108 1 184 41l-140 -498
q60 4 90.5 29.5t48.5 58.5t31.5 66.5t40.5 53.5q18 14 32 18.5t28 4.5zM456 525q14 48 33.5 87t48.5 68q-18 20 -44.5 32t-58.5 12q-42 0 -71.5 -16t-50 -44t-35 -66t-26.5 -83v-1h201z" />
    <glyph glyph-name="f_f_l" unicode="ffl" horiz-adv-x="879" 
d="M809 162h19l-25 -73q-20 -57 -51 -80t-69 -23q-33 0 -48 13t-19 33t0.5 45t11.5 49l163 541q10 34 -1 53t-60 19h-12q-22 0 -43.5 -9t-34.5 -17q-37 -21 -57 -71t-40 -127v-1h117l-6 -20h-117l-185 -668q-24 -1 -47 -4t-43 -10l189 682h-205l-185 -668q-24 -1 -47 -4
t-43 -10l189 682h-92l6 20h91q14 48 37 91t52 69q41 36 86 52t93 16q44 0 72.5 -14t45.5 -33q35 29 78.5 44t86.5 15h19q55 1 97 11t81 30l-209 -710q-8 -29 -5 -45.5t22 -16.5q20 0 37.5 22.5t37.5 79.5zM456 514q16 58 34.5 99t45.5 68q-17 20 -43 31.5t-58 11.5
q-26 0 -47 -6.5t-37 -17.5q-36 -24 -57.5 -67.5t-41.5 -117.5v-1h204z" />
    <glyph glyph-name="f_h.liga" unicode="fh" horiz-adv-x="858" 
d="M808 162l-25 -73q-11 -31 -25.5 -51.5t-30.5 -31.5t-33 -15.5t-32 -4.5q-30 0 -46 10.5t-21.5 29t-1 44.5t14.5 56l95 286q4 11 7.5 25.5t3 27.5t-7.5 22t-25 9q-29 0 -62.5 -30t-67 -84t-66.5 -129.5t-61 -167.5l-24 -85h-87l188 667q10 34 -2.5 53t-61.5 19
q-26 0 -50.5 -7.5t-46 -26.5t-39.5 -49.5t-31 -77.5l-18 -64h117l-6 -20h-116l-186 -668q-24 -1 -47 -4t-43 -10l188 682h-91l6 20h91l3 11q29 106 94.5 167.5t176.5 61.5q108 1 184 41l-146 -520q30 69 58.5 117.5t57 78.5t58.5 43.5t63 13.5q35 0 53 -13.5t24 -35t2 -48.5
t-13 -54l-97 -292q-8 -26 -7.5 -44t23.5 -18q19 0 37.5 21t39.5 81l13 37h19z" />
    <glyph glyph-name="f_idieresis.liga" unicode="f&#xef;" horiz-adv-x="569" 
d="M394 85q-10 -29 -6.5 -45.5t20.5 -16.5q22 0 40 23t38 79l13 37h19l-25 -73q-11 -31 -25.5 -51.5t-30.5 -31.5t-33 -15.5t-32 -4.5q-25 0 -38.5 10.5t-17.5 29.5t0 44.5t13 55.5l112 368h-195l-185 -668q-24 -1 -47 -4t-43 -10l189 682h-92l6 20h91q14 55 32.5 105.5
t55.5 87.5q26 26 59 40t72 14q31 0 51 -8.5t34 -20.5q2 -1 5 -4l2 -2q12 -15 12 -33q0 -25 -20 -45.5t-47 -20.5q-23 0 -36.5 14.5t-13.5 36.5q0 19 14 37t34 25q-15 6 -33 6q-21 0 -39 -10.5t-31 -26.5q-23 -29 -35 -78.5t-29 -115.5v-1h195q25 1 48.5 4t42.5 10zM650 743
q21 0 35.5 -14.5t14.5 -35.5q0 -25 -20 -45.5t-47 -20.5q-23 0 -36.5 14.5t-13.5 36.5q0 23 20 44t47 21z" />
    <glyph glyph-name="f_igrave.liga" unicode="f&#xec;" horiz-adv-x="569" 
d="M499 162h19l-25 -73q-11 -31 -25.5 -51.5t-30.5 -31.5t-33 -15.5t-32 -4.5q-25 0 -38.5 11t-17.5 30t0 44.5t13 54.5l112 368h-195l-185 -668q-24 -1 -47 -4t-43 -10l189 682h-92l6 20h91q20 69 42.5 121t60.5 79q-5 14 -1 27.5t18 23.5q15 9 29 5.5t22 -17.5
q2 -4 3.5 -7.5t3.5 -7.5h10q42 0 68 -19t55 -54l-4 -17q-28 36 -48.5 52t-54.5 16q-5 0 -9.5 -0.5t-9.5 -1.5q6 -20 13 -46.5t21 -62.5l-19 -14q-20 28 -35.5 46.5t-27.5 32.5q-16 -28 -26.5 -68t-23.5 -87v-1h195q25 1 48.5 4t42.5 10l-144 -443q-20 -62 14 -62q22 0 40 23
t38 79z" />
    <glyph glyph-name="f_j.liga" unicode="fj" horiz-adv-x="571" 
d="M575 755q16 -7 23.5 -23t3.5 -36q-5 -26 -26.5 -45t-47.5 -19t-40.5 19t-8.5 45q4 21 18.5 37.5t33.5 23.5q-12 4 -26.5 6.5t-31.5 2.5q-48 0 -82 -19t-59 -52.5t-43 -79.5t-33 -100v-1h215q25 1 48.5 4t42.5 10l-116 -413q-32 -113 -79.5 -190.5t-115.5 -102.5
q-15 -5 -31.5 -7.5t-27.5 -2.5q-23 0 -35 10.5t-12 28.5q0 22 17.5 41.5t41.5 19.5q16 0 24.5 -8.5t8.5 -22.5t-8.5 -28.5t-19.5 -25.5q38 5 60.5 28t38.5 80l157 559h-215l-139 -494h-86l139 494h-97l6 20h96q20 69 46.5 116.5t61.5 80.5q42 38 96.5 54t107.5 16
q37 0 59.5 -9t34.5 -17z" />
    <glyph glyph-name="f_k.liga" unicode="fk" horiz-adv-x="837" 
d="M754 528q35 0 48 -17.5t11 -41.5q-1 -9 -4.5 -20t-10.5 -21t-17.5 -16.5t-25.5 -6.5q-23 0 -31.5 13.5t-7.5 29.5q1 14 10 30.5t22 28.5h-2q-12 0 -20.5 -4t-16.5 -10q-21 -17 -34.5 -47t-29.5 -61t-40 -57.5t-68 -36.5q31 -1 59.5 -8t49 -22t30 -38.5t2.5 -58.5
l-20 -100q-5 -23 -0.5 -32t20.5 -9q20 0 37 22.5t37 79.5l12 37h19l-24 -73q-19 -60 -51 -81.5t-68 -21.5q-32 0 -52 22t-9 73l18 86q6 29 4 49.5t-15.5 35t-39 23t-66.5 11.5l-80 -286h-87l188 667q10 34 -2.5 53t-61.5 19q-26 0 -50.5 -7.5t-46 -26.5t-39.5 -49.5
t-31 -77.5l-18 -64h117l-6 -20h-116l-186 -668q-24 -1 -47 -4t-43 -10l188 682h-91l6 20h91l3 11q29 106 94.5 167.5t176.5 61.5q108 1 184 41l-140 -498q60 4 90.5 29.5t48.5 58.5t31.5 66.5t40.5 53.5q18 14 32 18.5t28 4.5z" />
    <glyph glyph-name=".notdef" horiz-adv-x="562" 
d="M502 772v-772h-442v772h442zM466 30v712h-370v-712h370z" />
    <glyph glyph-name=".null" 
 />
    <glyph glyph-name="nonmarkingreturn" unicode="&#xd;" 
 />
    <glyph glyph-name="nonmarkingreturn" 
 />
    <glyph glyph-name="space" unicode=" " horiz-adv-x="253" 
 />
    <glyph glyph-name="exclam" unicode="!" horiz-adv-x="263" 
d="M94 199q21 80 36 158.5t27 150t22 132t22 103.5q11 39 45 39q31 0 40.5 -19t1.5 -43q-11 -40 -32.5 -97t-46.5 -125t-50.5 -145t-46.5 -157zM8 50q5 26 26 45t47 19t40.5 -19t9.5 -45t-26.5 -45t-47.5 -19t-40 19t-9 45z" />
    <glyph glyph-name="quotedbl" unicode="&#x22;" horiz-adv-x="296" 
d="M233 697q0 -17 -6.5 -34t-18 -37.5t-25.5 -46.5t-29 -61h-14q5 37 7.5 62t4 44t3 33.5t5.5 30.5q5 23 17 32.5t25 9.5q17 0 24 -9.5t7 -23.5zM342 697q0 -17 -6.5 -34t-18 -37.5t-25.5 -46.5t-29 -61h-14q5 37 7.5 62t4 44t3 33.5t5.5 30.5q5 23 17 32.5t25 9.5
q17 0 24 -9.5t7 -23.5z" />
    <glyph glyph-name="numbersign" unicode="#" horiz-adv-x="639" 
d="M481 434l-77 -167h143l-10 -20h-142l-68 -146h-24l68 146h-163l-68 -146h-24l68 146h-147l9 20h147l77 167h-146l8 20h147l69 148h24l-69 -148h163l69 148h24l-69 -148h143l-8 -20h-144zM457 434h-163l-77 -167h163z" />
    <glyph glyph-name="dollar" unicode="$" horiz-adv-x="551" 
d="M518 664q17 -13 34.5 -41.5t17.5 -63.5q0 -31 -15.5 -55t-44.5 -24q-27 0 -39 20t-12 45q0 33 12.5 59t26.5 47q-22 22 -57 37l-87 -314q22 -21 43 -42.5t37 -45t25.5 -49.5t9.5 -55q0 -47 -19.5 -82t-51.5 -59t-71.5 -37t-80.5 -17l-33 -119h-22l33 118h-8q-42 0 -72 9
l-35 -127h-22l37 133q-25 9 -41.5 21t-29.5 22q-20 16 -36 43t-16 62q0 31 15.5 55t44.5 24q27 0 39 -20t12 -45q0 -33 -12.5 -59t-26.5 -47q11 -11 25 -20t32 -16l91 330q-35 35 -60.5 76.5t-25.5 99.5q0 44 16 78t42 58t60 38.5t71 18.5l33 120h22l-33 -118h9
q21 0 38.5 -2t32.5 -6l35 126h22l-37 -133q26 -9 42.5 -21t29.5 -22zM421 694q-30 9 -65 9h-15l-69 -249q14 -16 30.5 -31.5t33.5 -31.5zM216 576q0 -29 11 -54t28 -48l63 226q-45 -9 -73.5 -39t-28.5 -85zM229 6l74 265q-15 16 -31.5 31.5t-33.5 31.5l-88 -319q30 -9 69 -9
h10zM366 131q0 36 -13 65t-33 55l-68 -243q52 7 83 36.5t31 86.5z" />
    <glyph glyph-name="percent" unicode="%" horiz-adv-x="766" 
d="M839 811l-833 -866l-15 13l833 866zM112 534q0 39 15.5 79.5t43.5 73.5t65.5 53.5t82.5 20.5q53 0 82 -27t29 -77q0 -39 -15.5 -79.5t-43 -73.5t-65 -53.5t-82.5 -20.5q-53 0 -82.5 26.5t-29.5 77.5zM311 743q-32 0 -57 -25.5t-41.5 -61.5t-25 -75t-8.5 -66q0 -67 52 -67
q32 0 57 25.5t41.5 62t25 75.5t8.5 66q0 66 -52 66zM376 90q0 39 15.5 79.5t43.5 73.5t65.5 53.5t82.5 20.5q53 0 82 -27t29 -77q0 -39 -15.5 -79.5t-43 -73.5t-65 -53.5t-82.5 -20.5q-53 0 -82.5 26.5t-29.5 77.5zM575 299q-32 0 -57 -25.5t-41.5 -61.5t-25 -75t-8.5 -66
q0 -67 52 -67q32 0 57 25.5t41.5 62t25 75.5t8.5 66q0 66 -52 66z" />
    <glyph glyph-name="ampersand" unicode="&#x26;" horiz-adv-x="817" 
d="M743 722q55 0 90 -27t35 -87q0 -51 -28.5 -90t-93.5 -71q-29 -14 -72 -30.5t-88 -33.5q35 -29 54 -66t19 -84q0 -49 -22 -94t-65 -79t-104.5 -54t-141.5 -20q-66 0 -119 14.5t-90.5 41.5t-58 66.5t-20.5 88.5q0 45 16.5 85t45.5 72.5t68 56.5t85 37q-35 19 -52.5 49
t-17.5 63q0 35 18.5 61.5t47 44.5t63.5 27t69 9q57 0 90 -24t33 -63q0 -19 -7.5 -33t-20 -23.5t-27.5 -14t-30 -4.5l2 18q27 0 44.5 14.5t17.5 40.5q0 34 -27.5 53.5t-69.5 19.5q-31 0 -56.5 -11t-44.5 -31t-29.5 -47.5t-10.5 -59.5q0 -20 5 -41.5t17 -41.5q18 3 36 4.5
t27 1.5q36 0 36 -21q0 -11 -10 -16t-21 -5q-19 0 -38.5 8.5t-30.5 13.5q-34 -10 -62 -29.5t-48.5 -45t-31.5 -57t-11 -65.5q0 -45 19 -79t52.5 -57.5t79.5 -35t100 -11.5q58 0 108.5 13t87.5 37.5t58 59t21 76.5q0 34 -16 69.5t-51 61.5q-35 -13 -68 -25t-59 -22
q-15 -6 -33.5 -14.5t-34.5 -20.5t-26.5 -27.5t-10.5 -36.5q0 -32 25.5 -49.5t59.5 -17.5q23 0 40.5 7.5t30 17t20.5 19.5t11 15l13 -9q-7 -11 -16.5 -23t-24 -21.5t-33.5 -15.5t-45 -6q-20 0 -39.5 5t-34.5 16t-24.5 30t-9.5 47q0 62 45 99.5t121 65.5q18 7 50 18t69 24.5
t74.5 28.5t65.5 28q45 21 74 47t29 64q0 37 -28.5 61.5t-70.5 24.5q-26 0 -32 -9q11 -6 16 -16.5t5 -21.5q0 -23 -20 -40t-46 -17q-20 0 -32.5 11t-12.5 31q0 22 15 38t35 25q17 8 35.5 11t37.5 3z" />
    <glyph glyph-name="quotesingle" unicode="'" horiz-adv-x="187" 
d="M233 697q0 -17 -6.5 -34t-18 -37.5t-25.5 -46.5t-29 -61h-14q5 37 7.5 62t4 44t3 33.5t5.5 30.5q5 23 17 32.5t25 9.5q17 0 24 -9.5t7 -23.5z" />
    <glyph glyph-name="parenleft" unicode="(" horiz-adv-x="361" 
d="M207 -182q-38 43 -69.5 87t-53.5 92.5t-34 104t-12 121.5q0 84 33 166t91 157.5t137.5 141.5t171.5 118l10 -13q-82 -55 -149.5 -117.5t-115.5 -134t-74.5 -153t-26.5 -176.5q0 -109 26.5 -204.5t83.5 -176.5z" />
    <glyph glyph-name="parenright" unicode=")" horiz-adv-x="361" 
d="M163 806q38 -43 69.5 -87t53.5 -92.5t34 -104t12 -121.5q0 -84 -33 -166t-91 -157.5t-137.5 -141.5t-171.5 -118l-10 13q82 55 150 117.5t116 134t74 153.5t26 176q0 109 -26.5 204.5t-83.5 176.5z" />
    <glyph glyph-name="asterisk" unicode="*" horiz-adv-x="495" 
d="M510 623q5 -11 -3.5 -27t-37.5 -31q-29 -14 -65.5 -22.5t-93.5 -23.5q48 -15 83.5 -24t55.5 -23q23 -15 24 -31.5t-9 -28.5q-8 -11 -25 -15t-39 11q-22 14 -41 39.5t-51 62.5q2 -51 4.5 -86.5t-1.5 -62.5q-8 -30 -22.5 -42t-28.5 -12q-13 0 -21.5 11.5t-1.5 42.5
q5 29 22.5 64t44.5 90h-1q-46 -37 -79 -65.5t-59 -42.5q-31 -15 -46 -10.5t-20 16.5q-5 11 3.5 26.5t37.5 31.5q29 14 65 22.5t93 23.5q-47 15 -82.5 24t-55.5 23q-23 15 -24 31.5t9 28.5q8 11 25 15t39 -11q23 -14 42 -41t53 -65q-4 52 -7 88.5t2 64.5q7 30 21 42t28 12
t22.5 -12t1.5 -42q-5 -28 -22 -62.5t-41 -88.5q45 36 77 63.5t58 41.5q31 15 46 10.5t20 -16.5z" />
    <glyph glyph-name="plus" unicode="+" horiz-adv-x="585" 
d="M296 370l67 236h36l-67 -236h232l-9 -30h-232l-67 -235h-36l67 235h-233l9 30h233z" />
    <glyph glyph-name="comma" unicode="," horiz-adv-x="252" 
d="M129 55q0 -52 -39 -103.5t-108 -85.5l-5 14q48 29 75.5 63t30.5 68q-12 -11 -25 -18t-27 -7q-18 0 -28 9.5t-10 25.5t8 32.5t21 30t29.5 22t33.5 8.5q23 0 33.5 -18t10.5 -41z" />
    <glyph glyph-name="hyphen" unicode="-" horiz-adv-x="504" 
d="M429 283l-15 -58h-361l15 58h361z" />
    <glyph glyph-name="period" unicode="." horiz-adv-x="244" 
d="M0 50q5 26 26 45t47 19t40.5 -19t9.5 -45t-26.5 -45t-47.5 -19t-40 19t-9 45z" />
    <glyph glyph-name="slash" unicode="/" horiz-adv-x="468" 
d="M508 722h33l-548 -736h-33z" />
    <glyph glyph-name="zero" unicode="0" horiz-adv-x="565" 
d="M356 529q78 0 117.5 -46.5t39.5 -130.5q0 -67 -25 -133t-68.5 -117.5t-101.5 -83.5t-123 -32q-76 0 -120 45t-44 133q0 68 26.5 133t71 117t103.5 83.5t124 31.5zM337 511q-41 0 -79.5 -29.5t-68.5 -79t-48 -114t-18 -133.5q0 -85 26 -118t65 -33q44 0 81.5 32t65.5 83.5
t44 116.5t16 131q0 81 -23 112.5t-61 31.5z" />
    <glyph glyph-name="one" unicode="1" horiz-adv-x="342" 
d="M159 0h-87l128 433q-28 -16 -63 -30.5t-87 -30.5l3 21q47 14 83 30.5t64.5 34t51 35t42.5 33.5h20z" />
    <glyph glyph-name="two" unicode="2" horiz-adv-x="503" 
d="M304 528q61 0 98 -25.5t37 -73.5q0 -34 -19 -68t-49.5 -66t-68.5 -62.5t-75.5 -57t-70.5 -49t-53 -39.5q21 0 48.5 -4.5t56.5 -9.5t57 -9.5t50 -4.5q69 0 69 48q0 37 -44 57l13 13q26 -12 40.5 -31t14.5 -48q0 -19 -7 -38t-22 -33.5t-39 -23.5t-57 -9q-24 0 -45.5 4.5
t-43 9.5t-45 10t-50.5 6q-38 2 -63.5 -4.5t-56.5 -19.5l5 21q25 20 61.5 45t77 55t81 64.5t72.5 72t52 78t20 82.5q0 40 -19.5 64t-57.5 24q-27 0 -57.5 -14t-55.5 -36.5t-41.5 -51.5t-16.5 -59q0 -24 13 -36t45 -12q28 0 48.5 10.5t43.5 30.5l12 -14q-28 -26 -57 -37
t-54 -11q-12 0 -25.5 3t-24.5 10.5t-18 20.5t-7 34q0 33 18 66t49 59t72.5 42.5t88.5 16.5z" />
    <glyph glyph-name="three" unicode="3" horiz-adv-x="485" 
d="M303 531q61 0 98 -25.5t37 -73.5q0 -34 -20 -63.5t-50.5 -53t-67 -40t-69.5 -25.5q33 -1 62.5 -8.5t51 -21.5t34 -35t12.5 -49q0 -46 -22 -85t-59 -70.5t-85 -56t-100.5 -41t-105.5 -25t-99 -9.5l5 18q60 4 125.5 23t120.5 53.5t91 84t36 115.5q0 40 -22 64.5t-63 26.5
q-17 -7 -31 -12t-27 -5q-8 0 -14 3t-3 12q3 14 22 17t45 1q29 11 56 28.5t47 39t32 47.5t12 54q0 42 -22 66t-60 24q-26 0 -54.5 -11.5t-52 -30t-39 -42t-15.5 -47.5t13 -36t45 -12q34 0 62 15l11 -15q-21 -11 -41.5 -16t-38.5 -5q-12 0 -25.5 3t-24.5 10.5t-18 20.5t-7 34
q0 27 17 54.5t47 49.5t69.5 36t84.5 14z" />
    <glyph glyph-name="four" unicode="4" horiz-adv-x="515" 
d="M418 34h-133l-47 -175h-87l47 175h-249l6 21l436 474h26l-117 -438h134zM213 91l82 307l-281 -307h199z" />
    <glyph glyph-name="five" unicode="5" horiz-adv-x="459" 
d="M439 531q-23 -51 -57 -80.5t-80 -29.5q-14 0 -28.5 6t-29 13t-28 12.5t-25.5 3.5l-112 -229q30 16 63 25t77 9q81 0 117 -32.5t36 -81.5t-21.5 -89.5t-57.5 -73t-83 -56.5t-97 -40.5t-100.5 -25.5t-93.5 -10l5 18q57 0 119.5 18t114.5 52.5t85.5 86t33.5 118.5
q0 38 -24.5 62t-80.5 24q-18 0 -45 -4.5t-66 -22.5l-10 5l150 309q20 1 35.5 -2.5t30.5 -8.5t33 -9.5t44 -4.5q25 0 46.5 9.5t36.5 35.5z" />
    <glyph glyph-name="six" unicode="6" horiz-adv-x="527" 
d="M530 702q-71 -17 -143 -67.5t-129.5 -125.5t-94 -170.5t-36.5 -201.5q0 -39 5 -64t14.5 -40t23 -21t29.5 -6q42 0 75.5 30.5t57 76.5t35.5 98.5t12 96.5q0 54 -17.5 77.5t-47.5 23.5q-29 0 -61 -26t-57 -96l-16 6q14 42 33 70t41.5 44.5t46.5 23.5t46 7q57 0 91.5 -38.5
t34.5 -111.5q0 -59 -23.5 -113.5t-63 -96.5t-92 -67t-111.5 -25q-76 0 -111.5 45t-35.5 134q0 76 23.5 144.5t63 127.5t90 107.5t105 85.5t108 60t98.5 32z" />
    <glyph glyph-name="seven" unicode="7" horiz-adv-x="487" 
d="M541 514q-40 -53 -91 -109.5t-101 -121t-92.5 -138.5t-66.5 -163q-7 -24 -10 -43.5t-7 -35.5q-6 -20 -22 -35.5t-40 -15.5q-23 0 -28.5 15.5t-0.5 40.5q8 44 32.5 93.5t60 101t77 102t83 98t79.5 90t65 75.5q-34 -23 -71.5 -32.5t-74.5 -9.5q-29 0 -51.5 4.5t-42.5 10
t-39 10t-41 4.5q-38 0 -62 -16.5t-24 -50.5q0 -42 33.5 -70t105.5 -45l-6 -15q-71 14 -114 46.5t-43 94.5q0 21 8 43t25.5 39t44 28t63.5 11q32 0 59.5 -7t53 -16t51 -17t55.5 -10q33 -2 59 6.5t47 37.5h26z" />
    <glyph glyph-name="eight" unicode="8" horiz-adv-x="544" 
d="M537 616q0 -37 -18.5 -69.5t-47.5 -60t-64 -50t-68 -40.5l42.5 -42.5t38.5 -46t27.5 -52.5t10.5 -62q0 -48 -21.5 -86t-58 -65t-86 -41.5t-105.5 -14.5q-38 0 -70.5 7.5t-56 23t-37 40t-13.5 58.5q0 45 22 83.5t56.5 71t77 57.5t83.5 43q-18 18 -34.5 36t-29.5 38.5
t-20.5 43.5t-7.5 50q0 42 21 76t54.5 58t76.5 37t87 13q60 0 100.5 -25.5t40.5 -80.5zM328 407q25 17 48 40t41 51t28.5 58.5t10.5 62.5q0 85 -78 85q-28 0 -53 -10.5t-44 -29.5t-30 -45.5t-11 -58.5q0 -47 26.5 -83t61.5 -70zM369 172q0 31 -9.5 57t-24.5 48.5t-34.5 42.5
t-39.5 39q-36 -19 -65.5 -47t-51.5 -61t-34 -70t-12 -75q0 -45 21 -73.5t77 -28.5q33 0 64.5 11t55.5 32.5t38.5 53t14.5 71.5z" />
    <glyph glyph-name="nine" unicode="9" horiz-adv-x="513" 
d="M319 528q76 0 111.5 -45t35.5 -134q0 -73 -23 -139.5t-61.5 -123.5t-88.5 -104t-103 -82t-105.5 -57.5t-96.5 -30.5l-6 20q69 16 139 65t126.5 121.5t92 164.5t35.5 194q0 39 -5 64t-14.5 40t-22.5 21t-30 6q-42 0 -75.5 -30.5t-57 -76.5t-35.5 -98.5t-12 -96.5
q0 -54 17.5 -77.5t47.5 -23.5q29 0 61 26t57 96l16 -6q-13 -42 -32.5 -70t-42 -44.5t-46.5 -23.5t-46 -7q-57 0 -91.5 38.5t-34.5 111.5q0 59 23.5 113.5t63 96.5t92.5 67t111 25z" />
    <glyph glyph-name="colon" unicode=":" horiz-adv-x="278" 
d="M117 464q5 26 26 45t47 19t40.5 -19t9.5 -45t-26.5 -45t-47.5 -19t-40 19t-9 45zM17 50q5 26 26 45t47 19t40.5 -19t9.5 -45t-26.5 -45t-47.5 -19t-40 19t-9 45z" />
    <glyph glyph-name="semicolon" unicode=";" horiz-adv-x="287" 
d="M118 464q5 26 26 45t47 19t40.5 -19t9.5 -45t-26.5 -45t-47.5 -19t-40 19t-9 45zM149 55q0 -52 -39 -103.5t-108 -85.5l-5 14q48 29 75.5 63t30.5 68q-12 -11 -25 -18t-27 -7q-18 0 -28 9.5t-10 25.5t8 32.5t21 30t29.5 22t33.5 8.5q23 0 33.5 -18t10.5 -41z" />
    <glyph glyph-name="less" unicode="&#x3c;" horiz-adv-x="602" 
d="M613 553l-487 -202l331 -174l-16 -32l-390 210l552 227z" />
    <glyph glyph-name="equal" unicode="=" horiz-adv-x="663" 
d="M119 440h501l-9 -30h-501zM79 300h501l-9 -30h-501z" />
    <glyph glyph-name="greater" unicode="&#x3e;" horiz-adv-x="602" 
d="M52 184l460 192l-370 198l16 29l429 -231l-525 -217z" />
    <glyph glyph-name="question" unicode="?" horiz-adv-x="438" 
d="M311 765q-14 0 -30.5 -3t-31.5 -9t-26.5 -15t-15.5 -22q9 -2 18 -14.5t7 -29.5q-2 -20 -17 -32.5t-36 -12.5q-20 0 -30 11.5t-10 30.5q0 25 16.5 46t43 36t60.5 23t68 8q66 0 107 -30t41 -88q0 -23 -8 -46.5t-27.5 -49.5t-51 -56t-78.5 -66q-39 -30 -69.5 -52
t-50.5 -40.5t-30.5 -37t-10.5 -42.5q0 -28 16 -48.5t55 -20.5q28 0 56.5 11.5t39.5 32.5q-9 1 -18 11t-8 24q0 15 12.5 28t32.5 13q14 0 24 -7.5t10 -27.5q0 -24 -16 -42.5t-40.5 -32t-54.5 -20.5t-57 -7q-51 0 -83 24.5t-32 72.5q0 32 15 59t40.5 52t59 50.5t71.5 53.5
q35 26 59.5 47.5t40 41t23 39t7.5 43.5q0 41 -21.5 67.5t-69.5 26.5zM108 50q5 26 26 45t47 19t40.5 -19t9.5 -45t-26.5 -45t-47.5 -19t-40 19t-9 45z" />
    <glyph glyph-name="at" unicode="@" horiz-adv-x="848" 
d="M534 26q-34 0 -50 13t-20.5 31.5t-0.5 39t8 36.5q-29 -60 -63.5 -90t-84.5 -30q-57 0 -80 35t-23 86q0 57 23 116t60.5 106.5t84 78t92.5 30.5q29 0 46 -14.5t20 -49.5l14 50q23 0 46.5 3t43.5 11l-106 -367q-10 -34 -4.5 -47t27.5 -13q25 0 65 22.5t78.5 66t66 107.5
t27.5 147q0 69 -23.5 118t-63 79.5t-92.5 44.5t-112 14q-92 0 -176 -41t-148 -110t-102 -160.5t-38 -193.5q0 -77 22.5 -132t63 -89.5t95.5 -50.5t119 -16q54 0 105.5 12.5t100.5 41.5l7 -13q-38 -26 -92.5 -42.5t-121.5 -16.5q-70 0 -128.5 17.5t-101 55t-66 95
t-23.5 136.5q0 101 37.5 195.5t103 168t153.5 117.5t189 44q65 0 122 -15.5t99 -49t66.5 -85.5t24.5 -125q0 -84 -29 -152t-72.5 -116t-94 -73.5t-94.5 -25.5zM357 56q38 0 73.5 52.5t73.5 155.5l34 121q-1 38 -14.5 54t-39.5 16q-36 0 -68.5 -27.5t-57 -71t-39 -97
t-14.5 -106.5q0 -97 52 -97z" />
    <glyph glyph-name="A" unicode="A" horiz-adv-x="629" 
d="M504 84q3 -36 18.5 -49.5t30.5 -14.5l-4 -20q-20 2 -50 2.5t-59 0.5q-36 0 -68 -0.5t-52 -2.5l4 20q24 1 41 5t27.5 13t14.5 25t3 41l-9 164h-246l-75 -106q-28 -39 -39 -66t-6.5 -43.5t23 -24t49.5 -8.5l-5 -20q-28 2 -58 2.5t-56 0.5t-42.5 -0.5t-32.5 -2.5l5 20
q20 5 44.5 24t55.5 63l431 606h15zM400 288l-17 303l-214 -303h231z" />
    <glyph glyph-name="B" unicode="B" horiz-adv-x="632" 
d="M395 374q46 -7 77 -22.5t50.5 -37t28 -48t8.5 -55.5q0 -54 -26.5 -93.5t-68.5 -65.5t-95.5 -39t-107.5 -13q-38 0 -79 1.5t-93 1.5q-35 0 -68 -0.5t-54 -2.5l4 20q25 1 42 4.5t28 12.5t18.5 25.5t14.5 43.5l132 496q5 22 7.5 38t-2.5 26.5t-20 16t-44 5.5l5 20
q20 -2 53 -2.5t66 -0.5q35 0 69 1t72 1q96 0 142 -35t46 -93q0 -39 -17.5 -71t-46.5 -58t-66 -45t-75 -31zM238 376h66q45 0 81.5 16t62 43t39.5 62.5t14 74.5q0 59 -25.5 87.5t-82.5 28.5q-22 0 -37 -3t-25 -11t-16.5 -21.5t-12.5 -35.5zM218 23q66 0 111.5 13.5t74.5 39.5
t42 64t13 86q0 63 -34 98t-109 35h-82l-67 -253q-6 -23 -8.5 -39t2.5 -25.5t18.5 -14t38.5 -4.5z" />
    <glyph glyph-name="C" unicode="C" horiz-adv-x="670" 
d="M712 708q-15 -39 -31 -94t-33 -136h-22q8 52 5.5 87t-15.5 61q-19 38 -54 58t-77 20q-43 0 -84.5 -22t-79 -59.5t-68.5 -87t-54 -105.5t-35.5 -115t-12.5 -115q0 -99 38.5 -147.5t104.5 -48.5q42 0 91 20t87 58q27 27 46.5 63t43.5 95h22q-25 -91 -38.5 -146.5
t-20.5 -93.5h-22q3 21 3 34q0 23 -8 25.5t-25 -8.5q-21 -13 -40.5 -25t-41.5 -21t-48 -14t-59 -5q-111 0 -172 59t-61 176q0 85 32.5 174t91 161.5t138.5 119t174 46.5q32 0 55 -5.5t40 -14.5t29.5 -21t24.5 -24q14 -14 26 -4t29 55h21z" />
    <glyph glyph-name="D" unicode="D" horiz-adv-x="725" 
d="M704 487q0 -94 -35.5 -181.5t-98.5 -155.5t-150 -109t-190 -41q-11 0 -28.5 0.5t-37 1l-39 1t-35.5 0.5q-35 0 -67.5 -0.5t-52.5 -2.5l3 20q24 1 40 4.5t27 12.5t18.5 25.5t14.5 43.5l131 496q6 25 8.5 41t-3 26t-20.5 14t-43 5l3 20q21 -2 55 -3t67 0q17 0 37.5 0.5
l41 1t39.5 1t33 0.5q143 0 212.5 -56t69.5 -165zM218 18q96 0 169 40.5t122 109t74 158t25 186.5q0 90 -49.5 134t-164.5 44q-23 0 -38.5 -3.5t-26 -13.5t-18 -26.5t-14.5 -42.5l-131 -500q-6 -22 -8.5 -38.5t2 -27t18 -15.5t40.5 -5z" />
    <glyph glyph-name="E" unicode="E" horiz-adv-x="610" 
d="M443 705q44 0 99 0.5t100 2.5q-13 -35 -23 -68t-15 -50q-5 -18 -8.5 -34.5t-5.5 -27.5h-23q7 44 8.5 74t-7.5 48.5t-31 26.5t-62 8h-73q-25 0 -41.5 -2.5t-28 -11.5t-18.5 -25.5t-15 -43.5l-63 -236h66q33 0 54 14t35 34t22.5 43t16.5 41h23q-9 -28 -15.5 -49.5t-11 -38
t-8 -29.5t-6.5 -25q-7 -25 -14 -55t-18 -87h-23q3 24 6.5 47.5t-1 42.5t-19 30.5t-47.5 11.5h-66l-64 -240q-7 -27 -8.5 -43.5t5 -25.5t22 -11.5t40.5 -2.5h73q47 0 79 9t55 30t41 55t36 83h23q-11 -29 -22 -72q-5 -19 -13 -54.5t-14 -73.5q-25 1 -55 1.5l-60 1t-59.5 0.5
h-54.5h-56.5t-74 -0.5t-81 -1t-77.5 -1.5l5 20q25 1 41.5 4.5t28 12.5t19 25.5t14.5 43.5l133 496q8 27 9 43.5t-5.5 25.5t-21.5 12.5t-40 4.5l5 20q37 -1 78.5 -1.5t81 -1t74 -0.5h56.5z" />
    <glyph glyph-name="F" unicode="F" horiz-adv-x="566" 
d="M443 705q44 0 99 0.5t100 2.5q-14 -38 -25 -73.5t-16 -54.5q-7 -24 -11.5 -45t-7.5 -37h-23q9 52 11 88t-7.5 58t-35 31.5t-72.5 9.5h-53q-25 0 -41.5 -2.5t-28 -11.5t-18.5 -25.5t-15 -43.5l-66 -246h73q33 0 54 14t35 34t23 43t16 41h23q-9 -28 -15.5 -49.5t-11 -38
t-8 -29.5t-6.5 -25q-6 -25 -13 -55t-19 -87h-23q3 24 6.5 47.5t-0.5 42.5t-18.5 30.5t-47.5 11.5h-73l-62 -230q-7 -27 -7.5 -43.5t8 -25.5t27.5 -12.5t50 -4.5l-5 -20q-26 2 -66 2.5t-81 0.5q-39 0 -72.5 -0.5t-54.5 -2.5l5 20q25 1 41.5 4.5t28 12.5t19 25.5t14.5 43.5
l133 496q8 27 9 43.5t-5.5 25.5t-21.5 12.5t-40 4.5l5 20q37 -1 78.5 -1.5t81 -1t74 -0.5h56.5z" />
    <glyph glyph-name="G" unicode="G" horiz-adv-x="705" 
d="M316 6q36 0 66 10t48 21q22 13 31.5 28.5t14.5 34.5l23 88q8 30 9 48.5t-7.5 28.5t-27 14t-49.5 5l5 20q26 -2 66 -2.5t74 -0.5q33 0 60 0.5t45 2.5l-5 -20q-17 -1 -28 -4t-18.5 -12t-13.5 -25.5t-14 -44.5l-53 -198h-20q2 9 2.5 19t-0.5 18.5t-4.5 14t-9.5 5.5t-13 -3
t-25 -14q-39 -25 -80 -39.5t-90 -14.5q-124 0 -188 59.5t-64 169.5q0 85 31.5 174.5t89.5 163.5t138.5 121.5t178.5 47.5q33 0 57.5 -5t43.5 -14t34 -20.5t29 -25.5q15 -15 28 -5t29 56h22q-15 -39 -31 -94t-33 -136h-22q2 20 3.5 38.5t1.5 36.5q0 21 -3 39t-11 34
q-21 37 -62 57.5t-92 20.5q-55 0 -102 -25.5t-84.5 -68t-66 -97.5t-48 -113t-29 -114.5t-9.5 -103.5q0 -91 42.5 -133.5t130.5 -42.5z" />
    <glyph glyph-name="H" unicode="H" horiz-adv-x="755" 
d="M691 705q39 0 73 0.5t56 2.5l-5 -20q-26 -1 -42.5 -4.5t-27.5 -12.5t-18.5 -25.5t-14.5 -43.5l-132 -496q-7 -27 -8.5 -43.5t5 -25.5t22 -12.5t40.5 -4.5l-4 -20q-21 2 -55 2.5t-73 0.5q-35 0 -69.5 -0.5t-57.5 -2.5l4 20q26 1 42.5 4.5t27.5 12.5t18.5 25.5t14.5 43.5
l64 240h-321l-64 -240q-7 -27 -8.5 -43.5t5 -25.5t22 -12.5t40.5 -4.5l-4 -20q-23 2 -57.5 2.5t-69.5 0.5q-39 0 -72 -0.5t-55 -2.5l5 20q25 1 41 4.5t27 12.5t18.5 25.5t14.5 43.5l132 496q7 27 8 43.5t-5.5 25.5t-21.5 12.5t-40 4.5l5 20q20 -2 54 -2.5t73 -0.5
q35 0 69.5 0.5t58.5 2.5l-5 -20q-26 -1 -42.5 -4.5t-27.5 -12.5t-18.5 -25.5t-14.5 -43.5l-63 -236h321l63 236q8 27 9 43.5t-6 25.5t-22 12.5t-40 4.5l5 20q23 -2 57 -2.5t69 -0.5z" />
    <glyph glyph-name="I" unicode="I" horiz-adv-x="341" 
d="M166 106q-7 -27 -8.5 -43.5t5 -25.5t22 -12.5t40.5 -4.5l-4 -20q-23 2 -57.5 2.5t-69.5 0.5q-39 0 -72 -0.5t-55 -2.5l5 20q25 1 41 4.5t27 12.5t18.5 25.5t14.5 43.5l132 496q7 27 8 43.5t-5.5 25.5t-21.5 12.5t-40 4.5l5 20q20 -2 54 -2.5t73 -0.5q35 0 69.5 0.5
t58.5 2.5l-5 -20q-26 -1 -42.5 -4.5t-27.5 -12.5t-18.5 -25.5t-14.5 -43.5z" />
    <glyph glyph-name="J" unicode="J" horiz-adv-x="636" 
d="M737 730q12 -11 -0.5 -27.5t-66.5 -36.5q-75 -50 -125.5 -126.5t-82.5 -173.5h99l-3 -20h-102q-3 -10 -6 -19.5t-5 -19.5l-62 -242q-13 -51 -34 -97t-50 -80.5t-67 -55t-85 -20.5q-45 0 -73 13.5t-29 41.5q-1 22 14.5 40.5t40.5 18.5q18 0 29.5 -11.5t12.5 -28.5
q1 -18 -11 -31.5t-29 -21.5q15 -5 35 -5q41 0 68 27.5t45.5 72t32.5 101.5t29 116l30 117q6 23 13 43.5t15 40.5h-133l3 20h138q23 50 52.5 91.5t65 76.5t75 66.5t82.5 62.5q-48 -25 -98.5 -42.5t-99.5 -17.5q-36 0 -65.5 9t-57 19.5t-57 19t-66.5 8.5q-34 0 -50.5 -17.5
t-14.5 -48.5q1 -30 20 -48t54 -25l-3 -20q-19 3 -38.5 11t-35 21.5t-25.5 34t-11 49.5q-2 54 28.5 88.5t87.5 34.5q41 0 72.5 -16.5t60.5 -37t59.5 -37t70.5 -16.5q26 0 47.5 3t42 9t42 14.5t45.5 18.5q21 32 41 49t35 4z" />
    <glyph glyph-name="K" unicode="K" horiz-adv-x="675" 
d="M648 722q35 0 48 -17.5t11 -41.5q-1 -9 -4.5 -20t-10.5 -21t-17.5 -16.5t-25.5 -6.5q-23 0 -31.5 13.5t-7.5 29.5q1 14 10 30.5t22 28.5h-3q-13 -1 -20.5 -4.5t-15.5 -9.5q-18 -16 -30.5 -45t-24.5 -62.5t-25.5 -68.5t-33.5 -65t-48.5 -51t-70.5 -26q24 -5 43.5 -13
t33.5 -25t21 -47t5 -79l-4 -113q-1 -23 3.5 -37t26.5 -14q26 0 43 18.5t31 59.5l17 51h20l-26 -77q-19 -56 -49 -81.5t-73 -25.5q-48 0 -68 29.5t-16 86.5l7 113q2 35 0.5 59t-6 39.5t-12 26t-18.5 18.5q-52 -13 -70 -8t-18 19t18.5 19t72.5 -9q43 5 72 26t48.5 51t32 65.5
t24.5 69t25.5 62.5t33.5 46q17 14 31.5 18.5t28.5 4.5zM166 106q-7 -27 -8.5 -43.5t5 -25.5t22 -12.5t40.5 -4.5l-4 -20q-23 2 -57.5 2.5t-69.5 0.5q-39 0 -72 -0.5t-55 -2.5l5 20q25 1 41 4.5t27 12.5t18.5 25.5t14.5 43.5l132 496q7 27 8 43.5t-5.5 25.5t-21.5 12.5
t-40 4.5l5 20q20 -2 54 -2.5t73 -0.5q35 0 69.5 0.5t58.5 2.5l-5 -20q-26 -1 -42.5 -4.5t-27.5 -12.5t-18.5 -25.5t-14.5 -43.5z" />
    <glyph glyph-name="L" unicode="L" horiz-adv-x="586" 
d="M535 210q-6 -16 -12 -37t-13 -45q-5 -19 -13 -54.5t-14 -73.5q-25 1 -55 1.5l-60 1t-59.5 0.5h-54.5h-56.5t-74 -0.5t-81 -1t-77.5 -1.5l5 20q25 1 41.5 4.5t28 12.5t19 25.5t14.5 43.5l133 496q8 27 9 43.5t-5.5 25.5t-21.5 12.5t-40 4.5l5 20q21 -2 55 -2.5t73 -0.5
q35 0 69.5 0.5t57.5 2.5l-5 -20q-26 -1 -42.5 -4.5t-28 -12.5t-18.5 -25.5t-15 -43.5l-133 -496q-7 -27 -8.5 -43.5t5 -25.5t22 -11.5t40.5 -2.5h73q47 0 79 9.5t55.5 31.5t42 58t37.5 88h23z" />
    <glyph glyph-name="M" unicode="M" horiz-adv-x="868" 
d="M808 705q35 0 68 0.5t57 2.5l-5 -20q-26 -1 -42.5 -4.5t-27.5 -12.5t-18.5 -25.5t-14.5 -43.5l-132 -496q-7 -27 -8 -43.5t5.5 -25.5t21.5 -12.5t40 -4.5l-4 -20q-23 2 -56 2.5t-68 0.5q-39 0 -74 -0.5t-56 -2.5l4 20q26 1 42.5 4.5t27.5 12.5t18.5 25.5t14.5 43.5
l145 539l-415 -650h-22l-68 658l-142 -537q-7 -27 -8.5 -45t6 -29t24 -16t45.5 -6l-5 -20q-17 2 -46 2.5t-55 0.5t-51.5 -0.5t-42.5 -2.5l5 20q26 1 43 6t28.5 16t19 29t14.5 45l130 486q7 27 8 43.5t-5.5 25.5t-21.5 12.5t-40 4.5l5 20q16 -2 39.5 -2.5t49.5 -0.5
q23 0 47 0.5t41 2.5l55 -593l376 590h48z" />
    <glyph glyph-name="N" unicode="N" horiz-adv-x="770" 
d="M812 754q35 0 47.5 -15.5t12.5 -35.5q0 -25 -15 -48.5t-44 -23.5q-23 0 -30.5 13t-7.5 26q0 17 9.5 34t22.5 29h-3q-28 -1 -47.5 -14.5t-34.5 -36.5q-46 -68 -94 -239t-107 -448h-22l-228 644q-19 -100 -41 -203t-44.5 -192.5t-45.5 -157t-45 -97.5q-18 -24 -42.5 -43.5
t-64.5 -19.5q-35 0 -47.5 15.5t-12.5 36.5q0 25 15 48t44 23q23 0 30.5 -13t7.5 -26q0 -17 -9.5 -34t-22.5 -29h3q27 1 47.5 14.5t35.5 37.5q20 31 40 88t40.5 135t41.5 174t42 206q6 27 6.5 43.5t-7 25.5t-24.5 12.5t-46 4.5l5 20q16 -2 39.5 -2.5t49.5 -0.5q47 0 81 3
l189 -553q17 77 36.5 157.5t41 153t44 131.5t46.5 93q19 27 45 45.5t63 18.5z" />
    <glyph glyph-name="O" unicode="O" horiz-adv-x="729" 
d="M54 226q0 83 29.5 171t84.5 160t132 118.5t171 46.5q112 0 174 -62.5t62 -178.5q0 -82 -30 -170t-85 -160t-132 -118.5t-171 -46.5q-112 0 -173.5 62.5t-61.5 177.5zM462 704q-58 0 -112.5 -43t-96.5 -112.5t-67.5 -157.5t-25.5 -178q0 -99 38.5 -154t99.5 -55
q58 0 112.5 43t96.5 112.5t67.5 157.5t25.5 178q0 99 -38.5 154t-99.5 55z" />
    <glyph glyph-name="P" unicode="P" horiz-adv-x="589" 
d="M421 707q101 0 150 -41t49 -110q0 -59 -27.5 -109t-77 -86t-119 -56.5t-153.5 -20.5h-30l-47 -178q-6 -23 -9 -39t2.5 -26.5t20.5 -15t45 -5.5l-4 -20q-23 2 -56 2.5t-68 0.5q-39 0 -74 -0.5t-56 -2.5l4 20q25 1 42 4.5t28 12.5t18.5 25.5t14.5 43.5l132 496q6 24 8 40
t-3.5 26t-20.5 15t-43 5l5 20q20 -2 55 -2.5t68 -0.5q36 0 72 1t74 1zM253 304q74 0 125 21t82.5 57t45 85t13.5 105q0 59 -29.5 87.5t-97.5 28.5q-22 0 -37 -4t-25.5 -13.5t-17.5 -26t-14 -42.5l-79 -298h34z" />
    <glyph glyph-name="Q" unicode="Q" horiz-adv-x="781" 
d="M647 50q22 0 36 -15t14 -42q0 -34 -23.5 -66.5t-60 -58t-82 -41t-90.5 -15.5q-39 0 -72.5 12t-63 31.5t-55 43.5t-49.5 49q-40 -14 -76 -22t-66 -8q-50 0 -77 19.5t-27 54.5q0 40 34.5 64.5t87.5 24.5q29 0 53.5 -7.5t47 -20t43.5 -28.5t43 -33q72 37 141 94t123 126
t87 145t33 152q0 87 -44 141t-127 54q-58 0 -105 -26t-80 -68t-51 -94.5t-18 -106.5q0 -75 32.5 -109t81.5 -34q35 0 63.5 14.5t49.5 37.5t32.5 51t11.5 55q0 10 -1.5 21.5t-5.5 18.5q-11 -21 -31.5 -33t-42.5 -12q-23 0 -35 13.5t-12 33.5q0 26 19.5 43.5t49.5 17.5
q36 0 57.5 -26.5t21.5 -71.5q0 -37 -15.5 -71t-44 -59.5t-68 -40.5t-87.5 -15q-87 0 -132.5 48.5t-45.5 126.5q0 66 32 122t84.5 96.5t119.5 63t137 22.5q121 0 189.5 -55t68.5 -152q0 -80 -43 -159t-111 -149.5t-152 -129t-167 -97.5q24 -19 49.5 -37t55 -32t64 -22.5
t76.5 -8.5q46 0 83 14t61 54q-15 -6 -31 -6q-23 0 -36 14t-13 34q0 23 16.5 41.5t42.5 18.5zM70 -65q27 0 57.5 7t62.5 18q-38 40 -71.5 69.5t-71.5 29.5q-27 0 -50 -17t-23 -48q0 -32 25.5 -45.5t70.5 -13.5z" />
    <glyph glyph-name="R" unicode="R" horiz-adv-x="664" 
d="M592 121h23l-4 -13q-17 -61 -44 -91.5t-75 -30.5q-25 0 -42.5 8t-28.5 21.5t-15.5 31t-3.5 35.5l8 112q3 39 -1.5 66t-23.5 44t-57 24.5t-101 7.5l-61 -230q-6 -23 -8.5 -39.5t3 -26.5t20.5 -15t44 -5l-4 -20q-23 2 -56 2.5t-68 0.5q-39 0 -74 -0.5t-56 -2.5l4 20
q25 1 42 4.5t28 12.5t18.5 25.5t14.5 43.5l132 496q6 24 8 40t-4 26t-21 15t-42 5l5 20q20 -2 55 -2.5t68 -0.5q36 0 72 1t74 1q101 0 150 -38.5t49 -102.5q0 -41 -18.5 -77.5t-52.5 -65t-82 -49t-108 -30.5q10 -1 18.5 -2t16.5 -3q30 -6 52 -14.5t35.5 -23.5t19.5 -37.5
t3 -56.5l-8 -102q-1 -15 -0.5 -30t4 -26.5t10 -18.5t18.5 -7q18 1 31.5 22.5t27.5 61.5zM233 356h30q72 0 121 17t79 46t43 68.5t13 84.5q0 59 -29.5 87.5t-97.5 28.5q-22 0 -37 -4t-25.5 -13.5t-17.5 -26t-14 -42.5z" />
    <glyph glyph-name="S" unicode="S" horiz-adv-x="554" 
d="M576 715q-11 -26 -27 -75.5t-32 -128.5h-20q6 29 6 57q0 27 -8 51.5t-25 43t-44 29.5t-65 11q-60 0 -100 -31t-40 -96q0 -38 18.5 -70t47 -62t61 -59t61 -60.5t47 -66.5t18.5 -76q0 -52 -23 -89t-60 -61t-81.5 -35t-88.5 -11q-60 0 -92 16t-50 30q-11 9 -20.5 12t-15.5 3
q-13 0 -21.5 -13.5t-19.5 -40.5h-20q7 16 14 36t15.5 48t18 66t20.5 90h20q-4 -21 -7 -40.5t-2 -40.5q3 -69 41.5 -107.5t121.5 -38.5q66 0 106.5 29.5t40.5 95.5q0 42 -17 75t-43 61.5t-55.5 55t-55.5 56.5t-43 66t-17 82q0 48 19 84.5t50 61t70.5 37t80.5 12.5
q42 0 71.5 -10t58.5 -32q24 -18 33 -18q14 0 33 53h20z" />
    <glyph glyph-name="T" unicode="T" horiz-adv-x="659" 
d="M768 817q23 0 34 -14t11 -34q0 -23 -13.5 -41.5t-33.5 -30.5q-26 -16 -65 -24.5t-93 -8.5q-26 0 -51.5 2t-50.5 5l-148 -555q-8 -29 -9 -47.5t7 -29t27 -14.5t50 -5l-4 -20q-26 2 -66 2.5t-83 0.5t-82.5 -0.5t-63.5 -2.5l4 20q32 1 52.5 6t34.5 16t23 29t17 45l151 567
q-33 5 -65 8t-64 3t-64 -3t-48 -14q8 -11 13 -27t5 -31q0 -20 -12 -39t-38 -19q-22 0 -33 13.5t-11 36.5q0 20 11 41.5t42 36.5q17 8 37 13t38.5 7t34 2.5t24.5 0.5q45 0 85.5 -4.5t80 -9.5t80 -9.5t83.5 -4.5q44 0 74 4.5t55 17.5q-10 10 -17.5 24.5t-7.5 31.5
q0 20 11.5 37.5t37.5 17.5z" />
    <glyph glyph-name="U" unicode="U" horiz-adv-x="682" 
d="M631 592q14 55 -1 74.5t-66 21.5l5 20q17 -2 46 -2.5t55 -0.5t51.5 0.5t42.5 2.5l-5 -20q-26 -1 -43 -6t-29 -16t-19.5 -29t-14.5 -45l-78 -301q-18 -70 -42 -122t-56 -90q-36 -42 -89 -67.5t-116 -25.5q-49 0 -88.5 12.5t-65.5 41.5q-36 41 -35 99t25 149l83 314
q7 27 8 43.5t-5.5 25.5t-21.5 12.5t-40 4.5l6 20q20 -2 55 -2.5t74 -0.5q35 0 68 0.5t57 2.5l-6 -20q-26 -1 -42.5 -4.5t-27.5 -12.5t-18.5 -25.5t-14.5 -43.5l-88 -331q-13 -51 -19.5 -96.5t1.5 -79.5t35 -54t79 -20q56 0 98 19.5t72.5 54t51.5 82t36 103.5z" />
    <glyph glyph-name="V" unicode="V" horiz-adv-x="632" 
d="M666 705q26 0 43 0.5t33 2.5l-5 -20q-21 -5 -46.5 -23.5t-54.5 -63.5l-394 -606h-15l-79 629q-5 36 -21.5 49.5t-30.5 14.5l5 20q20 -2 49.5 -2.5t58.5 -0.5q77 0 120 3l-5 -20q-24 -1 -40.5 -4t-26.5 -11.5t-13 -24.5t0 -44l57 -483l277 425q26 40 36 67t5.5 43.5
t-23 23.5t-49.5 8l5 20q28 -2 58 -2.5t56 -0.5z" />
    <glyph glyph-name="W" unicode="W" horiz-adv-x="902" 
d="M918 705q26 0 43 0.5t33 2.5l-5 -20q-21 -5 -46.5 -22t-48.5 -65l-299 -606h-16l-72 456l-271 -456h-16l-79 629q-5 39 -22 51t-33 13l4 20q41 -3 99 -3q33 0 61.5 0.5t46.5 2.5l-4 -20q-34 -2 -48 -18t-8 -66l56 -477l209 355l-22 142q-6 38 -18.5 50.5t-26.5 13.5l4 20
q36 -3 89 -3q39 0 73 0.5t55 2.5l-4 -20q-26 -1 -42.5 -4.5t-25.5 -12.5t-10.5 -25t2.5 -42l72 -455l195 397q21 43 28.5 70.5t2 43t-24.5 21.5t-50 7l5 20q28 -2 58 -2.5t56 -0.5z" />
    <glyph glyph-name="X" unicode="X" horiz-adv-x="699" 
d="M690 722q36 0 48.5 -18t10.5 -41q-1 -10 -5 -21.5t-11 -21t-17.5 -15.5t-25.5 -6q-23 0 -31.5 13.5t-6.5 29.5q2 14 10 30.5t22 28.5h-3q-20 0 -35 -5t-29 -16q-42 -30 -97.5 -105t-109.5 -193l26 -227q3 -23 8 -44t14 -36.5t23 -24.5t34 -9q30 0 48 18.5t32 59.5l17 51
h20l-26 -77q-19 -56 -49 -81.5t-73 -25.5q-36 0 -60 14t-38.5 36.5t-22 50.5t-10.5 55l-18 157q-20 -42 -46 -83.5t-55 -78.5t-59 -67t-57 -49q-46 -35 -92 -35q-36 0 -48.5 18t-10.5 41q1 10 5 21.5t11 21t17.5 15.5t25.5 6q23 0 31.5 -13.5t6.5 -29.5q-2 -14 -10 -30.5
t-22 -28.5h4q19 1 34 6t29 15q46 30 109 105.5t123 198.5l-26 221q-3 23 -8 44t-14 36.5t-23 24.5t-34 9q-30 0 -48 -18.5t-32 -59.5l-17 -51h-20l26 77q19 56 49 81.5t73 25.5q36 0 60 -14t38.5 -36.5t22 -50.5t10.5 -55l18 -155q20 42 43.5 83.5t49 78t51 66t48.5 48.5
q46 35 92 35z" />
    <glyph glyph-name="Y" unicode="Y" horiz-adv-x="670" 
d="M700 722q34 0 46 -18.5t10 -40.5q-1 -10 -4.5 -21.5t-11 -21t-18 -15.5t-25.5 -6q-23 0 -31 13.5t-7 29.5t10 31.5t22 27.5h-3q-16 -1 -29.5 -7t-25.5 -15q-22 -16 -49.5 -44t-57 -69.5t-61 -98t-61.5 -129.5l-58 -232q-7 -27 -8 -43.5t5.5 -25.5t21.5 -12.5t40 -4.5
l-5 -20q-23 2 -56 2.5t-68 0.5q-39 0 -74 -0.5t-57 -2.5l5 20q26 1 42.5 4.5t28 12.5t18.5 25.5t14 43.5l59 233q-6 55 -15.5 113t-23 106t-33 78.5t-45.5 30.5q-17 0 -28.5 -10.5t-19.5 -36.5l-28 -82h-22l33 97q15 44 35 65.5t63 21.5q41 0 69 -25.5t47 -73t30.5 -114
t20.5 -149.5q38 97 86.5 171t100.5 126q23 23 54.5 44t63.5 21z" />
    <glyph glyph-name="Z" unicode="Z" horiz-adv-x="652" 
d="M713 713q12 -11 -1.5 -33t-67.5 -42l-277 -272h152l-8 -20h-164l-283 -278q42 25 86.5 39.5t86.5 14.5q32 0 57.5 -8.5t49.5 -19t49.5 -19.5t57.5 -9q34 0 51 17.5t17 48.5q0 30 -18.5 48t-53.5 25l4 20q19 -3 38 -11t34 -21.5t24.5 -34t9.5 -49.5q0 -54 -32 -88.5
t-89 -34.5q-37 0 -64 16.5t-51.5 37t-51 37t-62.5 16.5q-42 0 -74.5 -12.5t-73.5 -32.5q-23 -32 -48.5 -49t-39.5 -4q-12 11 1.5 33t67.5 42l281 276h-162l7 20h175l279 274q-42 -25 -86.5 -39.5t-86.5 -14.5q-32 0 -57.5 9t-49.5 19.5t-49.5 19t-57.5 8.5q-34 0 -51 -17.5
t-17 -48.5q0 -30 18.5 -48t53.5 -25l-4 -20q-19 3 -38 11t-34 21.5t-24.5 34t-9.5 49.5q0 54 32 88.5t89 34.5q37 0 64 -16.5t51.5 -37t51 -37t62.5 -16.5q42 0 74.5 12.5t73.5 32.5q23 32 48 49t40 4z" />
    <glyph glyph-name="bracketleft" unicode="[" horiz-adv-x="300" 
d="M213 772h170l-4 -19h-81l-229 -915h81l-4 -19h-170z" />
    <glyph glyph-name="backslash" unicode="\" horiz-adv-x="492" 
d="M391 -14h-33l-226 736h31z" />
    <glyph glyph-name="bracketright" unicode="]" horiz-adv-x="300" 
d="M87 -181h-170l4 19h81l229 915h-81l4 19h170z" />
    <glyph glyph-name="asciicircum" unicode="^" horiz-adv-x="535" 
d="M289 442q-38 -33 -92 -65.5t-108 -54.5l-4 14q74 32 137 83.5t101 108.5h18q8 -57 43.5 -108.5t92.5 -83.5l-12 -14q-54 22 -102 54.5t-74 65.5z" />
    <glyph glyph-name="underscore" unicode="_" horiz-adv-x="744" 
d="M561 -120l-11 -40h-600l10 40h601z" />
    <glyph glyph-name="a" unicode="a" horiz-adv-x="523" 
d="M455 163h19l-25 -73q-22 -60 -54 -82t-61 -22q-39 0 -55 26q-14 23 -7.5 53t14.5 62l18 72q-49 -115 -99 -164t-102 -49q-48 0 -71 33.5t-23 87.5q0 40 11.5 86.5t31.5 93.5t48 90.5t60.5 77t69 53.5t74.5 20q26 0 43.5 -19.5t20.5 -56.5l16 62q24 1 48 4t44 10
l-125 -442q-2 -7 -4.5 -17.5t-2.5 -20.5t4.5 -17t17.5 -7q20 0 39 22t38 80zM132 18q21 0 49 25t56.5 67.5t54.5 99t45 118.5l18 71q5 50 -9.5 80t-44.5 30q-33 0 -69 -40t-66 -101t-49.5 -134t-19.5 -139q0 -43 9 -60t26 -17z" />
    <glyph glyph-name="b" unicode="b" horiz-adv-x="504" 
d="M362 528q48 0 76 -34.5t28 -106.5q0 -57 -19.5 -126.5t-57 -130.5t-92 -102.5t-124.5 -41.5q-29 0 -52 17.5t-32 49.5l-85 -69l-15 7q7 14 11.5 28.5t7.5 29.5l175 618q8 34 -3 50t-60 16l5 21q55 1 96.5 11t79.5 30l-129 -472q47 110 93 157.5t97 47.5zM172 9
q42 0 80 41.5t66.5 102.5t45 130.5t16.5 125.5q0 45 -12.5 66t-34.5 21q-21 0 -46 -24t-51.5 -65.5t-52.5 -97t-48 -118.5l-34 -127q13 -31 30.5 -43t40.5 -12z" />
    <glyph glyph-name="c" unicode="c" horiz-adv-x="432" 
d="M323 508q-38 0 -76 -31.5t-68 -84.5t-49 -122.5t-19 -145.5q0 -51 19 -73.5t51 -22.5q36 0 74 21.5t76 78.5l20 -8q-15 -25 -36 -49t-47 -43t-56 -30.5t-62 -11.5q-60 0 -96 36.5t-36 110.5q0 58 21 127t60 128.5t95 99.5t126 40q45 0 76.5 -22.5t31.5 -62.5
q0 -14 -5 -28.5t-14 -26t-22 -18.5t-30 -7q-21 0 -31 11.5t-10 27.5q0 29 23 49.5t52 25.5q-10 14 -26 22.5t-42 8.5z" />
    <glyph glyph-name="d" unicode="d" horiz-adv-x="542" 
d="M472 162h19l-23 -73q-9 -30 -23 -50t-29.5 -32t-32 -16.5t-31.5 -4.5q-60 0 -63 57q-1 16 2.5 36.5t10.5 46.5l14 51q-49 -103 -98 -147t-102 -44q-48 0 -76 32t-28 100q0 60 24.5 131.5t67.5 133.5t102.5 103.5t128.5 41.5q19 0 36 -12.5t25 -35.5l50 187q9 34 -3 50
t-61 16l6 21q55 1 97 11t80 30l-196 -710q-7 -23 -5.5 -42.5t23.5 -19.5q20 0 36.5 22.5t36.5 79.5zM145 18q23 0 51 24.5t57 66.5t55.5 97.5t45.5 116.5l35 131q-7 27 -21.5 39t-31.5 12q-48 0 -90.5 -40t-75 -100t-51 -130t-18.5 -130q0 -87 44 -87z" />
    <glyph glyph-name="e" unicode="e" horiz-adv-x="429" 
d="M416 462q0 -46 -30.5 -84t-75.5 -68t-97 -52.5t-96 -36.5q-11 -50 -11 -97q0 -51 18.5 -73.5t50.5 -22.5q36 0 76 21.5t78 78.5l16 -8q-15 -25 -36 -49t-47 -43t-56 -30.5t-62 -11.5q-61 0 -96.5 35.5t-35.5 105.5q0 36 11.5 80t32 88.5t50 86.5t66.5 74.5t80 52t90 19.5
q31 0 52.5 -16.5t21.5 -49.5zM320 509q-25 0 -53.5 -22t-56 -59t-51 -85.5t-37.5 -102.5q44 15 78.5 31t57.5 33q36 29 57 69.5t21 90.5q0 29 -4 37t-12 8z" />
    <glyph glyph-name="f" unicode="f" horiz-adv-x="321" 
d="M390 782q46 0 70.5 -20.5t24.5 -50.5q0 -26 -19 -47.5t-48 -21.5q-19 0 -30 8.5t-10 25.5q0 25 16 42t41 25q0 9 -13 16.5t-33 7.5q-19 0 -33 -8t-25 -18q-13 -13 -24 -36t-20.5 -53t-18 -65t-18.5 -72v-1h118l-6 -20h-118l-179 -668q-24 -1 -47 -4t-43 -10l182 682h-90
l6 20h90v1q21 80 44.5 132t57.5 85q23 23 56.5 36.5t68.5 13.5z" />
    <glyph glyph-name="g" unicode="g" horiz-adv-x="449" 
d="M461 620q20 0 31.5 -8t11.5 -27q0 -22 -16.5 -40t-39.5 -18q-28 0 -28 29q0 20 13 36q-5 5 -14.5 0.5t-15.5 -8.5q-12 -8 -26.5 -25.5t-27.5 -39.5q35 -11 54.5 -36t19.5 -67q0 -34 -14 -67.5t-40.5 -62t-63 -48t-81.5 -24.5q-22 -12 -43.5 -23t-38 -21.5t-26.5 -20.5
t-10 -20q0 -19 60 -34l73 -19q51 -14 82 -31.5t31 -54.5q0 -27 -18 -59.5t-54.5 -60t-92.5 -46.5t-132 -19q-78 0 -114.5 20.5t-36.5 52.5q0 16 8 33.5t27.5 35.5t52 37t82.5 39q-38 16 -38 52q0 15 5.5 29.5t22.5 31t47.5 35t79.5 42.5q-62 2 -99.5 28t-37.5 81q0 27 12 63
t38.5 67.5t69.5 53.5t106 22q26 0 51 -5q31 50 65 75q14 10 30.5 16t34.5 6zM201 231q42 0 68 22.5t40.5 55.5t19.5 70t5 66q0 27 -12 46t-47 19q-42 0 -68.5 -29t-41 -66t-19.5 -72t-5 -47q0 -36 16 -50.5t44 -14.5zM90 18q-34 -18 -54.5 -35.5t-31 -33t-13.5 -29.5t-3 -25
q0 -37 27 -55t68 -18q34 0 69.5 10t65 27.5t48 41t18.5 51.5q0 14 -15 19t-45 13z" />
    <glyph glyph-name="h" unicode="h" horiz-adv-x="536" 
d="M486 162l-25 -73q-11 -31 -25.5 -51.5t-30.5 -31.5t-33 -15.5t-32 -4.5q-30 0 -46 10.5t-21.5 29t-1 44.5t14.5 56l95 286q4 11 7.5 25.5t3 27.5t-7.5 22t-25 9q-28 0 -59 -27t-63.5 -75.5t-63.5 -117t-59 -152.5l-36 -124h-87l198 667q10 34 -2.5 50t-61.5 16l6 21
q55 1 98.5 11t81.5 30l-145 -496q56 125 110 177t116 52q35 0 53 -13.5t24 -35t2 -48.5t-13 -54l-97 -292q-8 -26 -7.5 -44t23.5 -18q19 0 37.5 21t39.5 81l13 37h19z" />
    <glyph glyph-name="i" unicode="i" horiz-adv-x="302" 
d="M189 696q5 26 26 45t47 19t40.5 -19t9.5 -45t-26.5 -45t-47.5 -19t-40 19t-9 45zM158 429q21 62 -14 62q-23 0 -41 -25t-38 -77l-14 -37h-19l26 73q11 32 26 52t31.5 31t34 15.5t32.5 4.5q32 0 47 -13t18.5 -33.5t-2 -45.5t-13.5 -48l-107 -303q-11 -29 -7.5 -45.5
t23.5 -16.5t38 22t40 80l14 37h19l-26 -73q-21 -59 -54.5 -81t-68.5 -22q-32 0 -48 12t-20 31.5t1 44.5t15 52z" />
    <glyph glyph-name="j" unicode="j" horiz-adv-x="276" 
d="M186 696q5 26 26 45t47 19t40.5 -19t9.5 -45t-26.5 -45t-47.5 -19t-40 19t-9 45zM-84 -173q38 5 60.5 28t38.5 80l139 494q10 34 6.5 48t-21.5 14q-20 0 -38 -22.5t-38 -79.5l-13 -37h-19l24 73q20 61 53 82t70 21q32 0 46.5 -12t18.5 -31.5t-0.5 -45t-12.5 -51.5
l-77 -273q-32 -113 -79.5 -190.5t-115.5 -102.5q-15 -5 -31.5 -7.5t-27.5 -2.5q-23 0 -35 10.5t-12 28.5q0 22 17.5 41.5t41.5 19.5q16 0 24.5 -8.5t8.5 -22.5t-8.5 -28.5t-19.5 -25.5z" />
    <glyph glyph-name="k" unicode="k" horiz-adv-x="515" 
d="M432 528q35 0 48 -17.5t11 -41.5q-1 -9 -4.5 -20t-10.5 -21t-17.5 -16.5t-25.5 -6.5q-23 0 -31.5 13.5t-7.5 29.5q1 14 10 30.5t22 28.5h-2q-12 0 -20.5 -4t-16.5 -10q-21 -17 -34.5 -47t-29.5 -61t-40 -57.5t-68 -36.5q31 -1 59.5 -8t49 -22t30 -38.5t2.5 -58.5
l-20 -100q-5 -23 -0.5 -32t20.5 -9q20 0 37 22.5t37 79.5l12 37h19l-24 -73q-19 -60 -51 -81.5t-68 -21.5q-32 0 -52 22t-9 73l18 86q12 56 -11 83.5t-102 34.5l-84 -285h-87l198 667q10 34 -2.5 50t-61.5 16l6 21q55 1 98.5 11t81.5 30l-146 -498q58 5 88 30.5t47.5 58.5
t31.5 66.5t40 52.5q18 14 32 18.5t28 4.5z" />
    <glyph glyph-name="l" unicode="l" horiz-adv-x="277" 
d="M102 85q-8 -29 -5 -45.5t22 -16.5q20 0 37.5 22.5t37.5 79.5l13 37h19l-25 -73q-20 -57 -51 -80t-69 -23q-33 0 -48 13t-19 33t0.5 45t11.5 49l163 541q10 34 -2 50t-61 16l7 21q55 1 97 11t81 30z" />
    <glyph glyph-name="m" unicode="m" horiz-adv-x="809" 
d="M759 162l-25 -73q-11 -31 -25.5 -51.5t-30.5 -31.5t-33 -15.5t-32 -4.5q-25 0 -39.5 7.5t-22.5 19.5q-12 19 -8 47.5t16 65.5l95 286q5 15 8 30t2 27t-6 19.5t-16 7.5q-30 0 -63 -35.5t-67.5 -99t-69.5 -150.5t-67 -191l1 6l-7 -26h-90l125 412q5 15 8 30t2 27t-7.5 19.5
t-20.5 7.5q-28 0 -61.5 -34.5t-67 -94t-65.5 -140t-57 -172.5l-14 -55h-87l120 429q2 6 4.5 16.5t2.5 20.5t-4.5 17.5t-16.5 7.5q-22 0 -40 -23t-38 -79l-13 -37h-19l25 73q11 32 25.5 52t30.5 31t33 15.5t32 4.5q30 0 42.5 -13.5t15 -34.5t-3 -45.5t-11.5 -46.5l-32 -127
q30 74 58 125t56 82.5t57 45.5t61 14t46.5 -14.5t18 -37t-1.5 -49t-11 -50.5l-36 -134q31 77 59 131.5t56.5 88.5t59 49.5t65.5 15.5q32 0 47.5 -14t20 -36t0.5 -49t-12 -52l-97 -292q-10 -31 -7 -46.5t23 -15.5q19 0 37.5 21t39.5 81l13 37h19z" />
    <glyph glyph-name="n" unicode="n" horiz-adv-x="580" 
d="M530 162l-25 -73q-11 -31 -25.5 -51.5t-30.5 -31.5t-33 -15.5t-32 -4.5q-45 0 -63 29q-11 18 -7 47t16 64l95 286q3 10 7 24.5t3 27.5t-7.5 22.5t-24.5 9.5q-29 0 -64 -32.5t-70.5 -89t-69 -134t-59.5 -167.5l-18 -73h-87l120 429q3 9 5.5 20t2 20t-5.5 15.5t-17 6.5
q-22 0 -39 -21.5t-38 -80.5l-13 -37h-19l25 73q11 32 25 52t29.5 31t32 15.5t32.5 4.5q30 0 43 -13t15.5 -33.5t-2.5 -45t-11 -48.5l-35 -137q33 77 63.5 130t60.5 85.5t61.5 47t65.5 14.5q35 0 53 -13.5t24 -35t2 -48.5t-13 -54l-97 -292q-9 -27 -7.5 -44.5t23.5 -17.5
q19 0 37.5 21t39.5 81l13 37h19z" />
    <glyph glyph-name="o" unicode="o" horiz-adv-x="488" 
d="M21 143q0 55 19 122t55.5 125.5t90.5 98t124 39.5q63 0 100 -38.5t37 -118.5q0 -55 -19 -122t-55.5 -125.5t-90.5 -98t-124 -39.5q-63 0 -100 38.5t-37 118.5zM304 508q-40 0 -76 -40t-63 -101t-42.5 -134t-15.5 -140q0 -45 14 -66t43 -21q41 0 76.5 39.5t62.5 100.5
t42.5 134.5t15.5 140.5q0 46 -14 66.5t-43 20.5z" />
    <glyph glyph-name="p" unicode="p" horiz-adv-x="551" 
d="M409 528q48 0 76 -34.5t28 -106.5q0 -57 -19.5 -126.5t-57 -130.5t-92 -102.5t-124.5 -41.5q-27 0 -49 15t-32 43l-38 -132q-12 -42 12 -57t69 -15l-6 -21q-20 1 -56.5 2.5t-77.5 1.5q-32 0 -63.5 -1.5t-47.5 -2.5l6 21q36 0 52 13.5t26 48.5l187 667q-32 -73 -75 -125
t-94 -100l-11 13q29 28 55 55.5t51 61.5t49 77t49 102l4 14q24 1 47.5 4t43.5 10l-104 -364q48 113 94.5 162t97.5 49zM219 9q42 0 80 41.5t66.5 102.5t45 130.5t16.5 125.5q0 45 -12.5 66t-34.5 21t-49 -27t-55 -72.5t-55 -106.5t-49 -130l-26 -91q13 -34 31 -47t42 -13z
" />
    <glyph glyph-name="q" unicode="q" horiz-adv-x="507" 
d="M326 -88q-11 -42 7.5 -57t53.5 -15l-6 -21q-20 1 -56.5 2.5t-77.5 1.5q-32 0 -63.5 -1.5t-47.5 -2.5l6 21q45 0 66.5 13t31.5 49l69 264q-46 -100 -92 -140t-95 -40q-48 0 -76 34.5t-28 106.5q0 57 19.5 126.5t57 130.5t92 102.5t124.5 41.5q29 0 52 -17.5t32 -49.5
l85 69l16 -7q-13 -26 -21 -58zM151 18q21 0 47 22t52.5 59.5t50.5 87t41 104.5l41 159q-13 31 -30.5 43t-40.5 12q-42 0 -80 -41.5t-66.5 -102.5t-45 -130.5t-16.5 -125.5q0 -45 12.5 -66t34.5 -21z" />
    <glyph glyph-name="r" unicode="r" horiz-adv-x="426" 
d="M395 528q28 0 43.5 -16t15.5 -41q0 -30 -21 -51t-49 -21q-17 0 -28.5 9.5t-11.5 26.5q0 24 12.5 40t32.5 24q-4 4 -11 4q-27 0 -57.5 -31t-61 -87.5t-61 -134.5t-57.5 -171l-20 -79h-87l120 429q10 34 6.5 48t-20.5 14q-22 0 -40 -23t-38 -79l-13 -37h-19l25 73
q11 32 25.5 52t30.5 31t33 15.5t32 4.5q30 0 42.5 -13.5t14.5 -34t-3 -45t-11 -47.5l-32 -126q27 73 52 124t50 82.5t51 45.5t55 14z" />
    <glyph glyph-name="s" unicode="s" horiz-adv-x="381" 
d="M59 15q8 -4 17.5 -6.5t28.5 -2.5q45 0 73 26t28 77q0 31 -11.5 61.5t-40.5 70.5q-23 32 -44 65.5t-21 79.5q0 32 12.5 58t33.5 45t49 29t60 10q21 0 43 -3.5t39.5 -13.5t28.5 -26.5t11 -43.5q0 -7 -2.5 -16t-8 -17t-14 -13.5t-21.5 -5.5q-17 0 -28.5 11.5t-11.5 30.5
q0 18 7.5 34.5t20.5 32.5q-19 12 -50 12q-38 0 -62.5 -25t-24.5 -70q0 -17 4 -30.5t11.5 -27.5t18.5 -29.5t26 -37.5q25 -38 42 -73t17 -74q0 -35 -14 -64t-37.5 -49.5t-54.5 -32t-66 -11.5q-26 0 -50.5 5.5t-43 17t-30 30.5t-11.5 46q0 14 8 29.5t31 15.5q24 0 34 -19.5
t10 -43.5q0 -16 -2.5 -28.5t-4.5 -23.5z" />
    <glyph glyph-name="t" unicode="t" horiz-adv-x="336" 
d="M121 85q-9 -33 4 -47.5t36 -14.5q11 0 22 4t22 15t22.5 30.5t22.5 50.5l14 39h19l-21 -63q-22 -66 -56.5 -89.5t-80.5 -23.5q-62 0 -80 38.5t0 101.5l106 368h-90l5 20h90l44 152q24 1 47 4t43 10l-47 -166h132l-3 -20h-135z" />
    <glyph glyph-name="u" unicode="u" horiz-adv-x="567" 
d="M499 162h19l-25 -73q-11 -31 -25.5 -51.5t-30.5 -31.5t-33 -15.5t-32 -4.5q-16 0 -30 6.5t-21 20.5q-8 17 -5.5 42.5t13.5 70.5l31 125q-30 -73 -58 -123.5t-56.5 -82t-57.5 -45.5t-61 -14q-33 0 -52 11.5t-26.5 32t-5 48t13.5 59.5l97 292q10 30 7 46t-23 16
q-19 0 -37.5 -21t-39.5 -81l-13 -37h-19l25 73q11 32 25.5 52t30.5 31t33 15.5t32 4.5q33 0 48.5 -12t19.5 -31.5t-0.5 -45t-13.5 -51.5l-95 -286q-14 -44 -8.5 -64t30.5 -20q29 0 63.5 33t69 92.5t67.5 141.5t59 180l12 49q25 1 48.5 4t42.5 10l-124 -443q-8 -27 -7 -44.5
t21 -17.5q22 0 40 23t38 79z" />
    <glyph glyph-name="v" unicode="v" horiz-adv-x="533" 
d="M474 379q-28 14 -52 41t-21 67q2 23 16 32.5t28 9.5q35 0 48 -39.5t6 -101.5q-9 -73 -33 -145t-64 -129t-94.5 -92.5t-124.5 -35.5q-34 0 -56.5 11t-36 28.5t-18 39.5t-3.5 45q3 42 21 89t48.5 96t72 98.5t90.5 96.5q-16 -6 -34 -16.5t-35 -21t-33 -18t-30 -7.5
q-9 0 -17 4t-15.5 8.5t-15 8.5t-15.5 4q-16 0 -26.5 -13.5t-22.5 -48.5l-11 -37h-19l22 73q17 60 42.5 81t51.5 21q14 0 24.5 -6t20.5 -13.5t20.5 -13.5t25.5 -6q50 0 84 31l10 19l21 -10q-80 -99 -125.5 -197.5t-54.5 -204.5q-4 -58 8 -83t35 -25q59 0 106.5 39t81.5 95
t53 118t21 108z" />
    <glyph glyph-name="w" unicode="w" horiz-adv-x="685" 
d="M619 410q8 -37 8.5 -83t-8.5 -93.5t-27.5 -92t-48 -79t-70 -55.5t-92.5 -21q-34 0 -62.5 13t-43.5 48q-30 -27 -65 -44t-73 -17q-34 0 -58 9.5t-38.5 25.5t-21 36.5t-6.5 42.5q0 47 26 97t67.5 98.5t92.5 94.5t101 83q-26 -15 -51.5 -30.5t-45.5 -15.5q-9 0 -17 4
t-15.5 8.5t-14.5 8.5t-16 4q-16 0 -27 -13.5t-22 -48.5l-12 -37h-19l23 73q20 60 43.5 81t49.5 21q14 0 25 -6t21 -13.5t20.5 -13.5t25.5 -6q24 0 43 7.5t37 23.5l14 19l21 -10q-52 -43 -101 -92t-87 -102.5t-61 -111t-23 -117.5q0 -51 14.5 -70.5t40.5 -19.5q24 0 50.5 12
t52.5 36q-3 12 -5 27t-2 32q0 44 15 86.5t37.5 75.5t47.5 53.5t46 20.5q11 0 18 -6.5t10.5 -17t5 -23t1.5 -23.5q0 -53 -28 -107.5t-87 -100.5q10 -29 29 -47.5t51 -18.5q41 0 73 20.5t55.5 53t39 73.5t23 83t7 80.5t-7.5 65.5q-14 3 -30.5 9.5t-31 17t-24 26t-9.5 36.5
q0 26 14 37t28 11q29 0 47 -33.5t27 -84.5zM401 337q-12 0 -27 -15t-28 -39.5t-21.5 -55.5t-8.5 -64q0 -17 1.5 -33t5.5 -31q45 37 71 88t26 103q0 20 -4 33.5t-15 13.5z" />
    <glyph glyph-name="x" unicode="x" horiz-adv-x="526" 
d="M478 528q19 0 31.5 -10t12.5 -27q0 -19 -14.5 -33.5t-38.5 -14.5q-23 0 -38.5 8t-24.5 16q-39 -35 -65 -83t-43 -92l24 -214q4 -26 12.5 -36t21.5 -10q15 0 31 17.5t36 74.5l13 37h19l-25 -73q-22 -60 -52 -81t-62 -21q-31 0 -54 19.5t-29 72.5l-15 130q-16 -35 -41 -76
t-65 -84q-30 -32 -54 -47t-47 -15q-45 0 -45 37q0 19 14.5 33.5t37.5 14.5t38 -8t25 -16q45 41 79 95t54 102l-21 192q-4 26 -12.5 36t-21.5 10q-15 0 -31 -17.5t-36 -74.5l-13 -37h-19l25 73q22 60 52 81t62 21q35 0 56 -19.5t27 -72.5l12 -103q14 32 34 66t50 68
q29 33 52 47t48 14z" />
    <glyph glyph-name="y" unicode="y" horiz-adv-x="481" 
d="M406 528q52 0 52 -81q0 -51 -17.5 -110t-45.5 -118t-63 -115t-71 -101q-12 -15 -31 -36.5t-43.5 -44.5t-55.5 -45.5t-67 -39.5q-30 -14 -51.5 -19.5t-35.5 -5.5q-20 0 -35 10.5t-15 30.5q0 22 16.5 33.5t37.5 11.5q23 0 43.5 -12t39.5 -27q34 18 71.5 46.5t78.5 73.5
l-74 448q-5 31 -12 43t-20 12q-11 0 -25 -17.5t-34 -74.5l-13 -37h-19l25 73q21 61 52 81.5t63 20.5q31 0 47.5 -19t24.5 -73l51 -376q52 72 93 155.5t58 169.5q-12 6 -26 15.5t-25.5 21.5t-18.5 27t-6 32q2 23 16 35t35 12z" />
    <glyph glyph-name="z" unicode="z" horiz-adv-x="445" 
d="M25 39q43 27 71 39.5t56 12.5q18 0 34 -5t32 -11t33 -11t36 -5q26 0 40.5 12t14.5 38q0 27 -22 46t-57 26l6 15q46 -11 71.5 -35t25.5 -62q0 -20 -6 -39t-20 -33.5t-36 -23.5t-54 -9q-26 0 -45.5 6.5t-38 15t-39 15t-49.5 6.5q-26 0 -47.5 -7.5t-42.5 -29.5h-27l451 475
q-43 -27 -71 -39.5t-56 -12.5q-18 0 -34 5t-32 11t-33 11t-36 5q-26 0 -40.5 -12t-14.5 -38q0 -27 22 -46t57 -26l-6 -15q-46 11 -71.5 35t-25.5 62q0 20 6 39t20 33.5t36 23.5t54 9q26 0 45.5 -6.5t38 -15t39 -15t49.5 -6.5q26 0 47.5 7.5t42.5 29.5h27z" />
    <glyph glyph-name="braceleft" unicode="{" horiz-adv-x="306" 
d="M159 -188q-60 0 -89.5 18t-39 49.5t-3 73.5t18.5 90q17 67 25 111.5t8 72.5q-1 31 -12.5 44t-34.5 15h-5l3 18h5q24 2 41.5 14t33 39.5t30 73.5t32.5 116q18 69 38 114.5t46.5 72t61 37.5t81.5 11l-5 -19q-24 0 -41 -6.5t-31.5 -28t-28 -64.5t-31.5 -117
q-16 -67 -39 -111.5t-50 -73t-56.5 -44t-59.5 -23.5q45 -13 66.5 -41t27.5 -62.5t0 -73.5t-15 -75q-15 -61 -22.5 -100t-6.5 -62q0 -31 14.5 -40t42.5 -10z" />
    <glyph glyph-name="bar" unicode="|" horiz-adv-x="318" 
d="M189 -195h-40v1053h40v-1053z" />
    <glyph glyph-name="braceright" unicode="}" horiz-adv-x="306" 
d="M148 782q60 0 89.5 -18t39 -49.5t3 -73.5t-18.5 -90q-17 -67 -25 -111.5t-8 -72.5q1 -31 12.5 -44t34.5 -15h5l-3 -18h-5q-24 -2 -41.5 -14t-33 -39.5t-30 -73.5t-32.5 -116q-18 -69 -38 -114.5t-46.5 -72t-61 -37.5t-81.5 -11l5 19q24 0 41 6.5t31.5 28t28 64.5
t31.5 117q17 67 39.5 111.5t49.5 73t56.5 44t59.5 23.5q-45 14 -66.5 41.5t-27.5 62t0 73.5t15 75q15 61 22.5 100t6.5 62q0 31 -14.5 40t-42.5 10z" />
    <glyph glyph-name="asciitilde" unicode="~" horiz-adv-x="649" 
d="M420 237q-38 0 -66.5 12t-55 27t-53.5 27t-62 12q-28 0 -54.5 -13t-46.5 -45l-14 5q23 50 66 78.5t99 28.5q38 0 66.5 -12t55 -27t53.5 -27t62 -12q28 0 54.5 13t46.5 45l14 -5q-23 -50 -66 -78.5t-99 -28.5z" />
    <glyph glyph-name="uni00A0" unicode="&#xa0;" horiz-adv-x="253" 
 />
    <glyph glyph-name="exclamdown" unicode="&#xa1;" horiz-adv-x="249" 
d="M107 464q5 26 26 45t47 19t40.5 -19t9.5 -45t-26.5 -45t-47.5 -19t-40 19t-9 45zM142 316q-17 -67 -29 -134.5t-22 -128.5t-18.5 -113t-17.5 -89q-5 -20 -17 -29.5t-28 -9.5q-30 0 -40 18.5t-2 43.5q10 34 28.5 82t41 106t45.5 123.5t41 133.5z" />
    <glyph glyph-name="cent" unicode="&#xa2;" horiz-adv-x="433" 
d="M317 528q45 0 76.5 -22.5t31.5 -62.5q0 -14 -5 -28.5t-14 -26t-22 -18.5t-30 -7q-21 0 -31 11.5t-10 27.5q0 29 23 49.5t52 25.5q-10 14 -26 22.5t-42 8.5q-5 0 -9.5 -0.5t-9.5 -1.5l-129 -478h6q36 0 74 21.5t76 78.5l20 -8q-14 -24 -34 -46.5t-44 -41t-51.5 -31
t-57.5 -14.5l-45 -168h-22l45 167q-57 2 -90.5 38.5t-33.5 108.5q0 54 18.5 118.5t53.5 122t84.5 99.5t112.5 52l49 183h22l-48 -180h10zM276 498q-33 -16 -63 -52t-53.5 -85.5t-37.5 -110.5t-14 -126q0 -39 11.5 -61t31.5 -30z" />
    <glyph glyph-name="sterling" unicode="&#xa3;" horiz-adv-x="624" 
d="M502 639q0 20 13.5 36t34.5 22q0 10 -17.5 17t-38.5 7q-48 0 -80.5 -22t-54.5 -58t-37 -82t-28 -94l-13 -48h136l-6 -20h-135l-21 -80h135l-6 -20h-135q-22 -67 -61.5 -117t-93.5 -104q29 14 60.5 23t65.5 9q26 0 48.5 -7t45 -15.5t47 -15.5t52.5 -7q33 0 59.5 20
t26.5 54q0 29 -17.5 46t-47.5 23l6 17q40 -7 70.5 -32t30.5 -70q0 -25 -11.5 -49t-31 -43t-45.5 -31t-55 -12q-35 0 -61 14.5t-51 32.5t-51.5 32.5t-62.5 14.5q-41 0 -87 -20q-26 -35 -51 -54.5t-45 -19.5q-13 0 -13 10q0 14 25.5 36.5t73.5 36.5q9 17 17.5 35t17 40.5
t17.5 50t19 63.5l10 39h-97l6 20h97l21 80h-97l6 20h96l6 22q17 62 42 116t61.5 94t85.5 63.5t113 23.5q54 0 79 -21t25 -47q0 -25 -17.5 -44t-44.5 -19q-15 0 -25.5 9t-10.5 25z" />
    <glyph glyph-name="currency" unicode="&#xa4;" horiz-adv-x="569" 
d="M139 181q-20 24 -31 54t-11 65q0 34 11.5 64.5t31.5 55.5l-44 44l28 28l44 -44q24 20 54.5 31t64.5 11t64 -11.5t55 -31.5l45 45l28 -28l-45 -45q20 -25 31 -55t11 -64q0 -35 -11 -65t-31 -54l44 -43l-28 -29l-44 44q-25 -20 -55 -31t-64 -11t-64.5 10.5t-54.5 30.5
l-43 -43l-29 29zM138 300q0 -31 12 -58.5t32 -48.5t47.5 -33t57.5 -12t57 12t47.5 33t32 48.5t11.5 58.5t-11.5 58.5t-32 48.5t-47.5 33.5t-57 12.5q-31 0 -58 -12t-47 -33t-32 -49t-12 -59z" />
    <glyph glyph-name="yen" unicode="&#xa5;" horiz-adv-x="703" 
d="M708 722q34 0 46 -18.5t10 -40.5q-1 -10 -4.5 -21.5t-11 -21t-18 -15.5t-25.5 -6q-23 0 -31 13.5t-7 29.5t10 31.5t22 27.5h-3q-16 -1 -29.5 -7t-25.5 -15q-22 -16 -49.5 -44t-57 -69.5t-61 -98t-61.5 -129.5l-10 -41h141l-5 -20h-141l-15 -60h139l-5 -20h-139l-23 -91
q-7 -27 -8 -43.5t5.5 -25.5t21.5 -12.5t40 -4.5l-5 -20q-23 2 -56 2.5t-68 0.5q-39 0 -74 -0.5t-57 -2.5l5 20q26 1 42.5 4.5t28 12.5t18.5 25.5t14 43.5l23 91h-141l5 20h141l15 60h-139l5 20h139l11 42q-6 55 -15.5 113t-23 106t-33 78.5t-45.5 30.5q-17 0 -28.5 -10.5
t-19.5 -36.5l-28 -82h-22l33 97q15 44 35 65.5t63 21.5q41 0 69 -25.5t47 -73t30.5 -114t20.5 -149.5q38 97 86.5 171t100.5 126q23 23 54.5 44t63.5 21z" />
    <glyph glyph-name="brokenbar" unicode="&#xa6;" horiz-adv-x="322" 
d="M191 384h-40v474h40v-474zM151 326h40v-521h-40v521z" />
    <glyph glyph-name="section" unicode="&#xa7;" horiz-adv-x="508" 
d="M411 663q0 24 17.5 40.5t40.5 23.5q-3 11 -13.5 18t-23.5 11t-26.5 5.5t-24.5 1.5q-25 0 -50 -6.5t-45.5 -22t-33.5 -41t-13 -63.5q0 -25 11 -46.5t28.5 -41.5t39.5 -38.5t43 -36.5q48 -40 76 -74.5t28 -80.5q0 -34 -13 -63.5t-35 -55t-51 -46t-62 -36.5
q20 -23 31.5 -47.5t11.5 -54.5q0 -42 -18 -78t-48.5 -62.5t-70.5 -41.5t-83 -15q-22 0 -46.5 5t-45.5 16t-34.5 28.5t-13.5 43.5t19 47t48 21q20 0 31.5 -10.5t11.5 -29.5q0 -25 -17 -42t-41 -24q3 -11 13.5 -17.5t23.5 -11t27 -6t24 -1.5q26 0 51 6.5t45.5 22.5t33 42
t12.5 64q0 24 -11 45.5t-28.5 41t-39.5 38t-43 36.5q-48 40 -76 74.5t-28 80.5q0 34 13 63.5t35 55t51 46t62 36.5q-20 23 -31.5 47.5t-11.5 54.5q0 42 18 78t48.5 62.5t70.5 41.5t83 15q22 0 46.5 -5t45.5 -15.5t35 -28t14 -41.5q0 -27 -19 -49t-49 -22q-20 0 -31.5 11
t-11.5 31zM295 400q-23 19 -43 36t-37 34q-18 -10 -37 -23t-34.5 -29.5t-25.5 -36t-10 -43.5q0 -20 8.5 -38.5t23 -36.5t33.5 -35t40 -34q23 -19 43 -36t37 -34q18 10 37 23t34.5 29.5t25.5 36t10 43.5q0 21 -8.5 39.5t-23 36t-33.5 34.5t-40 34z" />
    <glyph glyph-name="copyright" unicode="&#xa9;" horiz-adv-x="924" 
d="M88 384q0 83 31.5 155.5t85.5 126.5t126.5 85t154.5 31q83 0 155.5 -31t126.5 -85t85 -126.5t31 -155.5q0 -82 -31 -154.5t-85 -126.5t-126.5 -85.5t-155.5 -31.5q-82 0 -154.5 31.5t-126.5 85.5t-85.5 126.5t-31.5 154.5zM128 384q0 -76 28 -142.5t76.5 -116t114 -78.5
t139.5 -29t139.5 29t114 78.5t76.5 116t28 142.5t-28 142.5t-76.5 116t-114 78.5t-139.5 29t-139.5 -29t-114 -78.5t-76.5 -116t-28 -142.5zM509 156q40 0 80 23t66 80l19 -7q-7 -24 -22 -49t-37.5 -45t-53 -32.5t-70.5 -12.5q-47 0 -87.5 18t-70.5 52.5t-47 83.5t-17 111
t17 113t48 87.5t74 57t95 20.5q31 0 60.5 -7.5t52 -22t36 -34.5t13.5 -45q0 -27 -15 -41.5t-38 -14.5t-39 14t-16 40q0 21 11.5 34t30.5 17q-10 18 -35.5 30t-54.5 12q-25 0 -50.5 -11.5t-46 -40t-33.5 -76.5t-13 -120q0 -64 11.5 -109t31.5 -72.5t46 -40t54 -12.5z" />
    <glyph glyph-name="ordfeminine" unicode="&#xaa;" horiz-adv-x="454" 
d="M436 478h19l-18 -49q-15 -41 -37 -55t-53 -14q-32 0 -40.5 20.5t6.5 73.5l12 43q-36 -75 -73.5 -106t-76.5 -31q-37 0 -57.5 22.5t-20.5 57.5q0 44 23 93.5t58.5 91.5t79 69.5t84.5 27.5q12 0 24 -7.5t14 -27.5l7 26q40 0 70 9l-94 -292q-13 -41 11 -41q16 0 28 13.5
t25 50.5zM195 385q16 0 37.5 17t43 45t42 65.5t34.5 77.5l20 70q-1 38 -25 38q-25 0 -56 -22.5t-58 -59.5t-45 -85t-18 -99q0 -22 6 -34.5t19 -12.5z" />
    <glyph glyph-name="guillemotleft" unicode="&#xab;" horiz-adv-x="517" 
d="M318 528q-15 -33 -41 -73.5t-56 -80.5t-62 -74.5t-60 -55.5q22 -18 44 -49.5t41 -68t34 -74t22 -66.5h-18q-39 77 -87 142.5t-111 114.5v2q80 57 146.5 127t129.5 156h18zM483 528q-14 -32 -39.5 -73t-56 -81t-62.5 -74.5t-61 -55.5q22 -18 44 -49.5t41 -68t34 -74
t22 -66.5h-18q-39 77 -87 142.5t-111 114.5v2q80 57 146.5 127t129.5 156h18z" />
    <glyph glyph-name="logicalnot" unicode="&#xac;" horiz-adv-x="661" 
d="M103 370h501l-59 -205h-36l50 175h-465z" />
    <glyph glyph-name="uni00AD" unicode="&#xad;" horiz-adv-x="504" 
 />
    <glyph glyph-name="registered" unicode="&#xae;" horiz-adv-x="699" 
d="M405 782q58 0 108.5 -22t88.5 -60t60 -88.5t22 -108.5t-22 -108.5t-60 -88.5t-88.5 -60t-108.5 -22t-108.5 22t-88.5 60t-60 88.5t-22 108.5t22 108.5t60 88.5t88.5 60t108.5 22zM405 256q50 0 93 19.5t75 53.5t50.5 78.5t18.5 95.5t-18.5 95.5t-50.5 78.5t-75 53.5
t-93 19.5q-49 0 -92.5 -19.5t-75.5 -53.5t-50.5 -78.5t-18.5 -95.5t18.5 -95.5t50.5 -78.5t75.5 -53.5t92.5 -19.5zM542 364q8 0 12 8l10 -7q-6 -12 -16.5 -16.5t-27.5 -4.5q-26 0 -38 10t-17 31l-17 74q-3 14 -7 22.5t-13 14t-25 7.5t-43 2v-101q0 -23 4.5 -29t18.5 -8v-15
q-10 0 -23.5 0.5t-27.5 0.5q-16 0 -29.5 -0.5t-22.5 -0.5v15q14 2 18.5 8t4.5 29v219q0 24 -4.5 30t-18.5 8v15q9 -1 22 -1h26q28 0 51.5 0.5t34.5 0.5q57 0 86.5 -20.5t29.5 -58.5q0 -13 -4 -26t-15 -24.5t-30 -20.5t-49 -14q42 -5 58.5 -18.5t21.5 -39.5l12 -57
q3 -13 5.5 -23t12.5 -10zM398 661q-24 0 -31 -6.5t-7 -26.5v-107h24q27 0 43.5 5t25.5 14t12 21t3 26q0 38 -15.5 56t-54.5 18z" />
    <glyph glyph-name="degree" unicode="&#xb0;" horiz-adv-x="335" 
d="M261 820q24 0 46.5 -8.5t39 -24t26.5 -37.5t10 -50t-10 -50.5t-26.5 -38t-39 -24t-46.5 -8.5t-46 8.5t-38.5 24t-26.5 38t-10 50.5t10 50t26.5 37.5t38.5 24t46 8.5zM261 596q17 0 34 6.5t31 19t23 32t9 45.5t-9 45t-23 32.5t-31 20t-34 6.5t-34 -6.5t-31 -20
t-22.5 -32.5t-8.5 -45t8.5 -45.5t22.5 -32t31 -19t34 -6.5z" />
    <glyph glyph-name="plusminus" unicode="&#xb1;" horiz-adv-x="635" 
d="M317 370l67 236h36l-67 -236h232l-9 -30h-232l-67 -235h-36l67 235h-233l9 30h233zM0 30h501l-9 -30h-501z" />
    <glyph glyph-name="uni00B2" unicode="&#xb2;" horiz-adv-x="341" 
d="M294 754q35 0 57 -13t22 -44q0 -32 -22.5 -61t-54.5 -55.5t-66.5 -49t-57.5 -41.5q12 0 29 -3l34 -6l34 -6t29 -3q20 0 33.5 9t13.5 26q0 11 -4 19l17 7q10 -15 10 -32q0 -28 -23 -48t-67 -20q-31 0 -56 8t-63 10q-26 2 -42 -2t-36 -12l4 18q23 15 61.5 39t75.5 53
t64.5 62.5t27.5 67.5q0 23 -14 33t-40 10t-53.5 -11.5t-53.5 -40.5l-14 11q23 29 62.5 52t92.5 23z" />
    <glyph glyph-name="uni00B3" unicode="&#xb3;" horiz-adv-x="326" 
d="M299 754q35 0 57.5 -13t22.5 -41q0 -21 -14 -40t-34.5 -33.5t-45 -25t-45.5 -15.5q21 -1 40.5 -5t35 -13t24.5 -22.5t9 -33.5q0 -37 -30 -66.5t-76 -50.5t-99.5 -33.5t-100.5 -15.5v18q43 3 87 15t79 32t57.5 47.5t22.5 61.5q0 27 -14.5 39t-40.5 13q-11 -6 -19 -8
t-13 -2q-6 0 -12 2.5t-6 10.5q0 10 12 14t32 3q42 15 67.5 38.5t25.5 55.5q0 19 -12.5 28t-34.5 9q-26 0 -55 -12t-61 -44l-14 12q11 12 26.5 25.5t35.5 24.5t43.5 18t49.5 7z" />
    <glyph glyph-name="paragraph" unicode="&#xb6;" horiz-adv-x="640" 
d="M354 -13q-87 0 -147.5 17.5t-98.5 49.5t-55 76.5t-17 98.5q0 99 36.5 186.5t100 153t149.5 103t185 37.5q42 0 78.5 -1.5t71.5 -1.5h30t30 2l-5 -19q-49 -2 -67.5 -18.5t-27.5 -49.5l-139 -528q-16 -61 -38.5 -112.5t-52.5 -89t-68.5 -58.5t-85.5 -21q-45 0 -73 13.5
t-29 41.5q0 22 17.5 41.5t41.5 19.5q16 0 24.5 -8.5t8.5 -22.5q0 -18 -10 -34t-25 -30q15 -5 35 -5q27 0 47 12t35.5 33.5t27 50.5t21.5 63zM418 337q-16 -61 -26 -114t-15 -92t-6 -61t1 -22q45 169 81 303q21 80 33.5 127t23.5 86t18 65t7 27q-2 0 -13 -23t-27 -63
t-34 -92.5t-35 -111.5q-58 0 -109.5 -2t-90 -4.5t-61.5 -5t-23 -3.5t21 -3.5t58.5 -5t88 -4t108.5 -1.5z" />
    <glyph glyph-name="periodcentered" unicode="&#xb7;" horiz-adv-x="258" 
d="M56 251q5 26 26 45t47 19t40.5 -19t9.5 -45t-26.5 -45t-47.5 -19t-40 19t-9 45z" />
    <glyph glyph-name="uni00B9" unicode="&#xb9;" horiz-adv-x="253" 
d="M215 437h-59l81 251q-26 -15 -53.5 -28.5t-72.5 -25.5l5 19q36 11 63 23.5t48 25t38 26t32 25.5h19z" />
    <glyph glyph-name="ordmasculine" unicode="&#xba;" horiz-adv-x="411" 
d="M107 465q0 37 13.5 81.5t40.5 83.5t66.5 65.5t91.5 26.5q53 0 84 -25.5t31 -79.5q0 -37 -13.5 -81.5t-40.5 -83.5t-66.5 -65t-91.5 -26q-53 0 -84 25.5t-31 78.5zM314 704q-28 0 -52.5 -25t-43 -64t-29 -86t-10.5 -92q0 -58 48 -58q28 0 52.5 25t43 63.5t29 86t10.5 92.5
q0 58 -48 58z" />
    <glyph glyph-name="guillemotright" unicode="&#xbb;" horiz-adv-x="516" 
d="M111 528q39 -77 87 -143t111 -115v-1q-80 -57 -146.5 -127t-129.5 -156h-18q15 33 41 73.5t56 80.5t62 74.5t60 55.5q-22 18 -44 49.5t-41 68t-34 74t-22 66.5h18zM276 528q39 -77 87 -143t111 -115v-1q-80 -57 -146.5 -127t-129.5 -156h-18q15 33 41 73.5t56 80.5
t62 74.5t60 55.5q-22 18 -44 49.5t-41 68t-34 74t-22 66.5h18z" />
    <glyph glyph-name="onequarter" unicode="&#xbc;" horiz-adv-x="606" 
d="M734 811l-833 -866l-15 13l833 866zM237 688q-26 -15 -53.5 -28.5t-72.5 -25.5l5 19q36 11 63 23.5t48 25t38 26t32 25.5h19l-101 -316h-59zM473 317l-71 -244h56l-11 -41h-57l-34 -117h-52l34 117h-189l5 18l300 267h19zM350 73l49 170l-192 -170h143z" />
    <glyph glyph-name="onehalf" unicode="&#xbd;" horiz-adv-x="606" 
d="M734 811l-833 -866l-15 13l833 866zM215 437h-59l81 251q-26 -15 -53.5 -28.5t-72.5 -25.5l5 19q36 11 63 23.5t48 25t38 26t32 25.5h19zM461 317q35 0 57 -13t22 -44q0 -32 -22.5 -61t-54.5 -55.5t-66.5 -49t-57.5 -41.5q12 0 29 -3l34 -6l34 -6t29 -3q20 0 33.5 9
t13.5 26q0 11 -4 19l17 7q10 -15 10 -32q0 -28 -23 -48t-67 -20q-31 0 -56 8t-63 10q-26 2 -42 -2t-36 -12l4 18q23 15 61.5 39t75.5 53t64.5 62.5t27.5 67.5q0 23 -14 33t-40 10t-53.5 -11.5t-53.5 -40.5l-14 11q23 29 62.5 52t92.5 23z" />
    <glyph glyph-name="threequarters" unicode="&#xbe;" horiz-adv-x="706" 
d="M834 811l-833 -866l-15 13l833 866zM349 512q0 -37 -30 -66.5t-76 -50.5t-99.5 -33.5t-100.5 -15.5v18q43 3 87 15t79 32t57.5 47.5t22.5 61.5q0 27 -14.5 39t-40.5 13q-11 -6 -19 -8t-13 -2q-6 0 -12 2.5t-6 10.5q0 10 12 14t32 3q42 15 67.5 38.5t25.5 55.5
q0 19 -12.5 28t-34.5 9q-26 0 -55 -12t-61 -44l-14 12q11 12 26.5 25.5t35.5 24.5t43.5 18t49.5 7q35 0 57.5 -13t22.5 -41q0 -21 -14 -40t-34.5 -33.5t-45 -25t-45.5 -15.5q21 -1 40.5 -5t35 -13t24.5 -22.5t9 -33.5zM573 317l-71 -244h56l-11 -41h-57l-34 -117h-52l34 117
h-189l5 18l300 267h19zM450 73l49 170l-192 -170h143z" />
    <glyph glyph-name="questiondown" unicode="&#xbf;" horiz-adv-x="446" 
d="M201 464q5 26 26 45t47 19t40.5 -19t9.5 -45t-26.5 -45t-47.5 -19t-40 19t-9 45zM123 -171q17 0 36.5 3t37 9t31 15t18.5 22q-9 2 -18 14.5t-7 29.5q2 20 17 32.5t36 12.5q20 0 30 -11.5t10 -30.5q0 -25 -18 -46t-47.5 -36t-67.5 -23t-77 -8q-65 0 -105.5 25t-40.5 73
q0 23 8.5 42t28 39.5t51 43.5t77.5 53q34 24 59.5 41.5t43 33.5t26 31.5t8.5 36.5q0 27 -18.5 47.5t-49.5 20.5q-30 0 -61 -11.5t-44 -32.5q9 -1 18 -11t8 -24q0 -15 -12.5 -28t-32.5 -13q-14 0 -24 7.5t-10 27.5q0 24 17 42.5t43 32t57.5 20.5t60.5 7q51 0 83 -24t32 -72
q0 -28 -12.5 -51.5t-35 -45.5t-53 -43.5t-65.5 -46.5q-33 -22 -56.5 -39t-39 -32.5t-22.5 -31t-7 -33.5q0 -28 22 -48t65 -20z" />
    <glyph glyph-name="Agrave" unicode="&#xc0;" horiz-adv-x="629" 
d="M495 764q-17 25 -31.5 42t-26 30.5t-21 24t-16.5 21.5q-7 16 -3 30.5t18 25.5q15 9 29 5.5t22 -17.5q6 -12 10 -26l9 -31.5t11.5 -39.5t17.5 -51zM504 84q3 -36 18.5 -49.5t30.5 -14.5l-4 -20q-20 2 -50 2.5t-59 0.5q-36 0 -68 -0.5t-52 -2.5l4 20q24 1 41 5t27.5 13
t14.5 25t3 41l-9 164h-246l-75 -106q-28 -39 -39 -66t-6.5 -43.5t23 -24t49.5 -8.5l-5 -20q-28 2 -58 2.5t-56 0.5t-42.5 -0.5t-32.5 -2.5l5 20q20 5 44.5 24t55.5 63l431 606h15zM400 288l-17 303l-214 -303h231z" />
    <glyph glyph-name="Aacute" unicode="&#xc1;" horiz-adv-x="629" 
d="M597 938q10 -11 6.5 -25.5t-19.5 -30.5q-12 -11 -26.5 -21.5t-33 -24t-41.5 -30.5t-52 -42l-13 14q25 29 43 51t31.5 39.5t24.5 31.5t23 26q16 14 31 17.5t26 -5.5zM504 84q3 -36 18.5 -49.5t30.5 -14.5l-4 -20q-20 2 -50 2.5t-59 0.5q-36 0 -68 -0.5t-52 -2.5l4 20
q24 1 41 5t27.5 13t14.5 25t3 41l-9 164h-246l-75 -106q-28 -39 -39 -66t-6.5 -43.5t23 -24t49.5 -8.5l-5 -20q-28 2 -58 2.5t-56 0.5t-42.5 -0.5t-32.5 -2.5l5 20q20 5 44.5 24t55.5 63l431 606h15zM400 288l-17 303l-214 -303h231z" />
    <glyph glyph-name="Acircumflex" unicode="&#xc2;" horiz-adv-x="629" 
d="M521 931q5 -41 31 -76.5t65 -55.5l-16 -21q-37 14 -71 34t-54 40q-26 -20 -61.5 -40.5t-71.5 -34.5l-6 22q50 20 93.5 55.5t68.5 76.5h22zM504 84q3 -36 18.5 -49.5t30.5 -14.5l-4 -20q-20 2 -50 2.5t-59 0.5q-36 0 -68 -0.5t-52 -2.5l4 20q24 1 41 5t27.5 13t14.5 25
t3 41l-9 164h-246l-75 -106q-28 -39 -39 -66t-6.5 -43.5t23 -24t49.5 -8.5l-5 -20q-28 2 -58 2.5t-56 0.5t-42.5 -0.5t-32.5 -2.5l5 20q20 5 44.5 24t55.5 63l431 606h15zM400 288l-17 303l-214 -303h231z" />
    <glyph glyph-name="Atilde" unicode="&#xc3;" horiz-adv-x="629" 
d="M632 886q-20 -42 -51 -64t-66 -22q-22 0 -35 8t-22.5 17t-19.5 17t-25 8q-31 0 -66 -42l-17 10q21 42 51.5 64t66.5 22q22 0 35 -7.5t22.5 -17t19.5 -17t25 -7.5q31 0 66 42zM504 84q3 -36 18.5 -49.5t30.5 -14.5l-4 -20q-20 2 -50 2.5t-59 0.5q-36 0 -68 -0.5t-52 -2.5
l4 20q24 1 41 5t27.5 13t14.5 25t3 41l-9 164h-246l-75 -106q-28 -39 -39 -66t-6.5 -43.5t23 -24t49.5 -8.5l-5 -20q-28 2 -58 2.5t-56 0.5t-42.5 -0.5t-32.5 -2.5l5 20q20 5 44.5 24t55.5 63l431 606h15zM400 288l-17 303l-214 -303h231z" />
    <glyph glyph-name="Adieresis" unicode="&#xc4;" horiz-adv-x="629" 
d="M348 772q-23 0 -36.5 14.5t-13.5 36.5q0 23 20 44t47 21q21 0 35.5 -14.5t14.5 -35.5q0 -25 -20 -45.5t-47 -20.5zM577 888q21 0 35.5 -14.5t14.5 -35.5q0 -25 -20 -45.5t-47 -20.5q-23 0 -36.5 14.5t-13.5 36.5q0 23 20 44t47 21zM504 84q3 -36 18.5 -49.5t30.5 -14.5
l-4 -20q-20 2 -50 2.5t-59 0.5q-36 0 -68 -0.5t-52 -2.5l4 20q24 1 41 5t27.5 13t14.5 25t3 41l-9 164h-246l-75 -106q-28 -39 -39 -66t-6.5 -43.5t23 -24t49.5 -8.5l-5 -20q-28 2 -58 2.5t-56 0.5t-42.5 -0.5t-32.5 -2.5l5 20q20 5 44.5 24t55.5 63l431 606h15zM400 288
l-17 303l-214 -303h231z" />
    <glyph glyph-name="Aring" unicode="&#xc5;" horiz-adv-x="629" 
d="M461 742q-35 0 -59 21t-24 59q0 22 8.5 40.5t23.5 32.5t35 22t42 8q36 0 61 -21.5t25 -58.5q0 -21 -9 -39.5t-24.5 -33t-36 -22.5t-42.5 -8zM483 904q-15 0 -29.5 -6.5t-25.5 -18t-17.5 -26t-6.5 -30.5q0 -30 19 -45t42 -15q32 0 57 23.5t25 59.5q0 29 -20.5 43.5
t-43.5 14.5zM504 84q3 -36 18.5 -49.5t30.5 -14.5l-4 -20q-20 2 -50 2.5t-59 0.5q-36 0 -68 -0.5t-52 -2.5l4 20q24 1 41 5t27.5 13t14.5 25t3 41l-9 164h-246l-75 -106q-28 -39 -39 -66t-6.5 -43.5t23 -24t49.5 -8.5l-5 -20q-28 2 -58 2.5t-56 0.5t-42.5 -0.5t-32.5 -2.5
l5 20q20 5 44.5 24t55.5 63l431 606h15zM400 288l-17 303l-214 -303h231z" />
    <glyph glyph-name="AE" unicode="&#xc6;" horiz-adv-x="897" 
d="M727 705q46 0 102.5 0.5t104.5 2.5q-13 -35 -23 -68t-15 -50q-5 -18 -8 -34.5l-5 -27.5h-22q16 89 -2.5 123t-78.5 34h-93q-25 0 -41 -2.5t-26.5 -11.5t-18 -25.5t-14.5 -43.5l-63 -236h108q23 0 38.5 9.5t27 25t20.5 35.5t17 42h22q-13 -39 -19.5 -64.5t-14.5 -57.5
q-6 -22 -11.5 -47t-14.5 -75h-22q0 17 3 36t1.5 35.5t-12.5 27.5t-39 13h-109l-64 -240q-7 -27 -8.5 -43.5t5 -25.5t21 -11.5t39.5 -2.5h103q36 0 62 9t46.5 30t37 55t33.5 83h22q-5 -14 -10.5 -32.5t-10.5 -39.5q-5 -19 -13 -54.5t-13 -73.5q-51 2 -113 2.5t-113 0.5h-56.5
t-73.5 -0.5t-80 -1t-78 -1.5l4 20q26 1 42.5 4.5t27.5 12.5t18.5 25.5t14.5 43.5l64 240h-163l-223 -252q-15 -16 -22.5 -29t-5.5 -22t16.5 -15t44.5 -8v-20q-14 2 -37.5 2.5t-48.5 0.5q-18 0 -36.5 -0.5t-30.5 -2.5v20q31 2 86 64l496 561q2 26 -13.5 33.5t-53.5 9.5l5 20
q27 -1 56.5 -1.5t59.5 -0.5l59 67h26l-60 -67q45 -1 83 -1h63zM431 366l63 236q1 2 1 3.5t1 3.5l-215 -243h150z" />
    <glyph glyph-name="Ccedilla" unicode="&#xc7;" horiz-adv-x="670" 
d="M712 708q-15 -39 -31 -94t-33 -136h-22q8 52 5.5 87t-15.5 61q-19 38 -54 58t-77 20q-43 0 -84.5 -22t-79 -59.5t-68.5 -87t-54 -105.5t-35.5 -115t-12.5 -115q0 -99 38.5 -147.5t104.5 -48.5q42 0 91 20t87 58q27 27 46.5 63t43.5 95h22q-25 -91 -38.5 -146.5
t-20.5 -93.5h-22q3 21 3 34q0 23 -8 25.5t-25 -8.5q-20 -13 -39 -24.5t-40 -20.5t-45.5 -14t-54.5 -6l-28 -58q11 3 24.5 5t26.5 2q25 0 39 -10.5t14 -29.5q0 -22 -15 -37.5t-37.5 -25.5t-49.5 -15t-51 -5q-35 0 -61 7t-39 15l7 15q8 -3 26.5 -8t53.5 -5q11 0 28.5 2.5t34 8
t28 15.5t11.5 25q0 24 -38 24q-7 0 -18.5 -1.5t-22.5 -5.5l40 82q-103 5 -159.5 64t-56.5 171q0 85 32.5 174t91 161.5t138.5 119t174 46.5q32 0 55 -5.5t40 -14.5t29.5 -21t24.5 -24q14 -14 26 -4t29 55h21z" />
    <glyph glyph-name="Egrave" unicode="&#xc8;" horiz-adv-x="610" 
d="M460 764q-17 25 -31.5 42t-26 30.5t-21 24t-16.5 21.5q-7 16 -3 30.5t18 25.5q15 9 29 5.5t22 -17.5q6 -12 10 -26l9 -31.5t11.5 -39.5t17.5 -51zM443 705q44 0 99 0.5t100 2.5q-13 -35 -23 -68t-15 -50q-5 -18 -8.5 -34.5t-5.5 -27.5h-23q7 44 8.5 74t-7.5 48.5
t-31 26.5t-62 8h-73q-25 0 -41.5 -2.5t-28 -11.5t-18.5 -25.5t-15 -43.5l-63 -236h66q33 0 54 14t35 34t22.5 43t16.5 41h23q-9 -28 -15.5 -49.5t-11 -38t-8 -29.5t-6.5 -25q-7 -25 -14 -55t-18 -87h-23q3 24 6.5 47.5t-1 42.5t-19 30.5t-47.5 11.5h-66l-64 -240
q-7 -27 -8.5 -43.5t5 -25.5t22 -11.5t40.5 -2.5h73q47 0 79 9t55 30t41 55t36 83h23q-11 -29 -22 -72q-5 -19 -13 -54.5t-14 -73.5q-25 1 -55 1.5l-60 1t-59.5 0.5h-54.5h-56.5t-74 -0.5t-81 -1t-77.5 -1.5l5 20q25 1 41.5 4.5t28 12.5t19 25.5t14.5 43.5l133 496
q8 27 9 43.5t-5.5 25.5t-21.5 12.5t-40 4.5l5 20q37 -1 78.5 -1.5t81 -1t74 -0.5h56.5z" />
    <glyph glyph-name="Eacute" unicode="&#xc9;" horiz-adv-x="610" 
d="M549 882q-12 -11 -26.5 -21.5t-33 -24t-41.5 -30.5t-52 -42l-13 14q25 29 43 51t31.5 39.5t24.5 31.5t23 26q16 14 31 17.5t26 -5.5q10 -11 6.5 -25.5t-19.5 -30.5zM443 705q44 0 99 0.5t100 2.5q-13 -35 -23 -68t-15 -50q-5 -18 -8.5 -34.5t-5.5 -27.5h-23q7 44 8.5 74
t-7.5 48.5t-31 26.5t-62 8h-73q-25 0 -41.5 -2.5t-28 -11.5t-18.5 -25.5t-15 -43.5l-63 -236h66q33 0 54 14t35 34t22.5 43t16.5 41h23q-9 -28 -15.5 -49.5t-11 -38t-8 -29.5t-6.5 -25q-7 -25 -14 -55t-18 -87h-23q3 24 6.5 47.5t-1 42.5t-19 30.5t-47.5 11.5h-66l-64 -240
q-7 -27 -8.5 -43.5t5 -25.5t22 -11.5t40.5 -2.5h73q47 0 79 9t55 30t41 55t36 83h23q-11 -29 -22 -72q-5 -19 -13 -54.5t-14 -73.5q-25 1 -55 1.5l-60 1t-59.5 0.5h-54.5h-56.5t-74 -0.5t-81 -1t-77.5 -1.5l5 20q25 1 41.5 4.5t28 12.5t19 25.5t14.5 43.5l133 496
q8 27 9 43.5t-5.5 25.5t-21.5 12.5t-40 4.5l5 20q37 -1 78.5 -1.5t81 -1t74 -0.5h56.5z" />
    <glyph glyph-name="Ecircumflex" unicode="&#xca;" horiz-adv-x="610" 
d="M441 852q-26 -20 -61.5 -40.5t-71.5 -34.5l-6 22q50 20 93.5 55.5t68.5 76.5h22q5 -41 31 -76.5t65 -55.5l-16 -21q-37 14 -71 34t-54 40zM443 705q44 0 99 0.5t100 2.5q-13 -35 -23 -68t-15 -50q-5 -18 -8.5 -34.5t-5.5 -27.5h-23q7 44 8.5 74t-7.5 48.5t-31 26.5t-62 8
h-73q-25 0 -41.5 -2.5t-28 -11.5t-18.5 -25.5t-15 -43.5l-63 -236h66q33 0 54 14t35 34t22.5 43t16.5 41h23q-9 -28 -15.5 -49.5t-11 -38t-8 -29.5t-6.5 -25q-7 -25 -14 -55t-18 -87h-23q3 24 6.5 47.5t-1 42.5t-19 30.5t-47.5 11.5h-66l-64 -240q-7 -27 -8.5 -43.5t5 -25.5
t22 -11.5t40.5 -2.5h73q47 0 79 9t55 30t41 55t36 83h23q-11 -29 -22 -72q-5 -19 -13 -54.5t-14 -73.5q-25 1 -55 1.5l-60 1t-59.5 0.5h-54.5h-56.5t-74 -0.5t-81 -1t-77.5 -1.5l5 20q25 1 41.5 4.5t28 12.5t19 25.5t14.5 43.5l133 496q8 27 9 43.5t-5.5 25.5t-21.5 12.5
t-40 4.5l5 20q37 -1 78.5 -1.5t81 -1t74 -0.5h56.5z" />
    <glyph glyph-name="Edieresis" unicode="&#xcb;" horiz-adv-x="610" 
d="M313 772q-23 0 -36.5 14.5t-13.5 36.5q0 23 20 44t47 21q21 0 35.5 -14.5t14.5 -35.5q0 -25 -20 -45.5t-47 -20.5zM525 772q-23 0 -36.5 14.5t-13.5 36.5q0 23 20 44t47 21q21 0 35.5 -14.5t14.5 -35.5q0 -25 -20 -45.5t-47 -20.5zM443 705q44 0 99 0.5t100 2.5
q-13 -35 -23 -68t-15 -50q-5 -18 -8.5 -34.5t-5.5 -27.5h-23q7 44 8.5 74t-7.5 48.5t-31 26.5t-62 8h-73q-25 0 -41.5 -2.5t-28 -11.5t-18.5 -25.5t-15 -43.5l-63 -236h66q33 0 54 14t35 34t22.5 43t16.5 41h23q-9 -28 -15.5 -49.5t-11 -38t-8 -29.5t-6.5 -25
q-7 -25 -14 -55t-18 -87h-23q3 24 6.5 47.5t-1 42.5t-19 30.5t-47.5 11.5h-66l-64 -240q-7 -27 -8.5 -43.5t5 -25.5t22 -11.5t40.5 -2.5h73q47 0 79 9t55 30t41 55t36 83h23q-11 -29 -22 -72q-5 -19 -13 -54.5t-14 -73.5q-25 1 -55 1.5l-60 1t-59.5 0.5h-54.5h-56.5
t-74 -0.5t-81 -1t-77.5 -1.5l5 20q25 1 41.5 4.5t28 12.5t19 25.5t14.5 43.5l133 496q8 27 9 43.5t-5.5 25.5t-21.5 12.5t-40 4.5l5 20q37 -1 78.5 -1.5t81 -1t74 -0.5h56.5z" />
    <glyph glyph-name="Igrave" unicode="&#xcc;" horiz-adv-x="341" 
d="M258 938q15 9 29 5.5t22 -17.5q6 -12 10 -26l9 -31.5t11.5 -39.5t17.5 -51l-19 -14q-17 25 -31.5 42t-26 30.5t-21 24t-16.5 21.5q-7 16 -3 30.5t18 25.5zM166 106q-7 -27 -8.5 -43.5t5 -25.5t22 -12.5t40.5 -4.5l-4 -20q-23 2 -57.5 2.5t-69.5 0.5q-39 0 -72 -0.5
t-55 -2.5l5 20q25 1 41 4.5t27 12.5t18.5 25.5t14.5 43.5l132 496q7 27 8 43.5t-5.5 25.5t-21.5 12.5t-40 4.5l5 20q20 -2 54 -2.5t73 -0.5q35 0 69.5 0.5t58.5 2.5l-5 -20q-26 -1 -42.5 -4.5t-27.5 -12.5t-18.5 -25.5t-14.5 -43.5z" />
    <glyph glyph-name="Iacute" unicode="&#xcd;" horiz-adv-x="341" 
d="M440 938q10 -11 6.5 -25.5t-19.5 -30.5q-12 -11 -26.5 -21.5t-33 -24t-41.5 -30.5t-52 -42l-13 14q25 29 43 51t31.5 39.5t24.5 31.5t23 26q16 14 31 17.5t26 -5.5zM166 106q-7 -27 -8.5 -43.5t5 -25.5t22 -12.5t40.5 -4.5l-4 -20q-23 2 -57.5 2.5t-69.5 0.5
q-39 0 -72 -0.5t-55 -2.5l5 20q25 1 41 4.5t27 12.5t18.5 25.5t14.5 43.5l132 496q7 27 8 43.5t-5.5 25.5t-21.5 12.5t-40 4.5l5 20q20 -2 54 -2.5t73 -0.5q35 0 69.5 0.5t58.5 2.5l-5 -20q-26 -1 -42.5 -4.5t-27.5 -12.5t-18.5 -25.5t-14.5 -43.5z" />
    <glyph glyph-name="Icircumflex" unicode="&#xce;" horiz-adv-x="341" 
d="M364 931q5 -41 31 -76.5t65 -55.5l-16 -21q-37 14 -71 34t-54 40q-26 -20 -61.5 -40.5t-71.5 -34.5l-6 22q50 20 93.5 55.5t68.5 76.5h22zM166 106q-7 -27 -8.5 -43.5t5 -25.5t22 -12.5t40.5 -4.5l-4 -20q-23 2 -57.5 2.5t-69.5 0.5q-39 0 -72 -0.5t-55 -2.5l5 20
q25 1 41 4.5t27 12.5t18.5 25.5t14.5 43.5l132 496q7 27 8 43.5t-5.5 25.5t-21.5 12.5t-40 4.5l5 20q20 -2 54 -2.5t73 -0.5q35 0 69.5 0.5t58.5 2.5l-5 -20q-26 -1 -42.5 -4.5t-27.5 -12.5t-18.5 -25.5t-14.5 -43.5z" />
    <glyph glyph-name="Idieresis" unicode="&#xcf;" horiz-adv-x="341" 
d="M141 823q0 23 20 44t47 21q21 0 35.5 -14.5t14.5 -35.5q0 -25 -20 -45.5t-47 -20.5q-23 0 -36.5 14.5t-13.5 36.5zM353 823q0 23 20 44t47 21q21 0 35.5 -14.5t14.5 -35.5q0 -25 -20 -45.5t-47 -20.5q-23 0 -36.5 14.5t-13.5 36.5zM166 106q-7 -27 -8.5 -43.5t5 -25.5
t22 -12.5t40.5 -4.5l-4 -20q-23 2 -57.5 2.5t-69.5 0.5q-39 0 -72 -0.5t-55 -2.5l5 20q25 1 41 4.5t27 12.5t18.5 25.5t14.5 43.5l132 496q7 27 8 43.5t-5.5 25.5t-21.5 12.5t-40 4.5l5 20q20 -2 54 -2.5t73 -0.5q35 0 69.5 0.5t58.5 2.5l-5 -20q-26 -1 -42.5 -4.5
t-27.5 -12.5t-18.5 -25.5t-14.5 -43.5z" />
    <glyph glyph-name="Eth" unicode="&#xd0;" horiz-adv-x="725" 
d="M422 708q143 0 212.5 -56t69.5 -165q0 -94 -35.5 -181.5t-98.5 -155.5t-150 -109t-190 -41q-11 0 -28.5 0.5t-37 1l-39 1t-35.5 0.5q-35 0 -67.5 -0.5t-52.5 -2.5l3 20q24 1 40 4.5t27 12.5t18.5 25.5t14.5 43.5l62 235h-115l6 25h116l62 236q6 25 8.5 41t-3 26t-20.5 14
t-43 5l3 20q21 -2 55 -3t67 0q17 0 37.5 0.5l41 1t39.5 1t33 0.5zM218 18q96 0 169 40.5t122 109t74 158t25 186.5q0 90 -49.5 134t-164.5 44q-23 0 -38.5 -3.5t-26 -13.5t-18 -26.5t-14.5 -42.5l-62 -238h203l-6 -25h-204l-62 -237q-6 -22 -8.5 -38.5t2 -27t18 -15.5
t40.5 -5z" />
    <glyph glyph-name="Ntilde" unicode="&#xd1;" horiz-adv-x="770" 
d="M476 850q-31 0 -66 -42l-17 10q21 42 51.5 64t66.5 22q22 0 35 -7.5t22.5 -17t19.5 -17t25 -7.5q31 0 66 42l16 -11q-20 -42 -51 -64t-66 -22q-22 0 -35 8t-22.5 17t-19.5 17t-25 8zM812 754q35 0 47.5 -15.5t12.5 -35.5q0 -25 -15 -48.5t-44 -23.5q-23 0 -30.5 13
t-7.5 26q0 17 9.5 34t22.5 29h-3q-28 -1 -47.5 -14.5t-34.5 -36.5q-46 -68 -94 -239t-107 -448h-22l-228 644q-19 -100 -41 -203t-44.5 -192.5t-45.5 -157t-45 -97.5q-18 -24 -42.5 -43.5t-64.5 -19.5q-35 0 -47.5 15.5t-12.5 36.5q0 25 15 48t44 23q23 0 30.5 -13t7.5 -26
q0 -17 -9.5 -34t-22.5 -29h3q27 1 47.5 14.5t35.5 37.5q20 31 40 88t40.5 135t41.5 174t42 206q6 27 6.5 43.5t-7 25.5t-24.5 12.5t-46 4.5l5 20q16 -2 39.5 -2.5t49.5 -0.5q47 0 81 3l189 -553q17 77 36.5 157.5t41 153t44 131.5t46.5 93q19 27 45 45.5t63 18.5z" />
    <glyph glyph-name="Ograve" unicode="&#xd2;" horiz-adv-x="729" 
d="M453 938q15 9 29 5.5t22 -17.5q6 -12 10 -26l9 -31.5t11.5 -39.5t17.5 -51l-19 -14q-17 25 -31.5 42t-26 30.5t-21 24t-16.5 21.5q-7 16 -3 30.5t18 25.5zM54 226q0 83 29.5 171t84.5 160t132 118.5t171 46.5q112 0 174 -62.5t62 -178.5q0 -82 -30 -170t-85 -160
t-132 -118.5t-171 -46.5q-112 0 -173.5 62.5t-61.5 177.5zM462 704q-58 0 -112.5 -43t-96.5 -112.5t-67.5 -157.5t-25.5 -178q0 -99 38.5 -154t99.5 -55q58 0 112.5 43t96.5 112.5t67.5 157.5t25.5 178q0 99 -38.5 154t-99.5 55z" />
    <glyph glyph-name="Oacute" unicode="&#xd3;" horiz-adv-x="729" 
d="M635 938q10 -11 6.5 -25.5t-19.5 -30.5q-12 -11 -26.5 -21.5t-33 -24t-41.5 -30.5t-52 -42l-13 14q25 29 43 51t31.5 39.5t24.5 31.5t23 26q16 14 31 17.5t26 -5.5zM54 226q0 83 29.5 171t84.5 160t132 118.5t171 46.5q112 0 174 -62.5t62 -178.5q0 -82 -30 -170
t-85 -160t-132 -118.5t-171 -46.5q-112 0 -173.5 62.5t-61.5 177.5zM462 704q-58 0 -112.5 -43t-96.5 -112.5t-67.5 -157.5t-25.5 -178q0 -99 38.5 -154t99.5 -55q58 0 112.5 43t96.5 112.5t67.5 157.5t25.5 178q0 99 -38.5 154t-99.5 55z" />
    <glyph glyph-name="Ocircumflex" unicode="&#xd4;" horiz-adv-x="729" 
d="M559 931q5 -41 31 -76.5t65 -55.5l-16 -21q-37 14 -71 34t-54 40q-26 -20 -61.5 -40.5t-71.5 -34.5l-6 22q50 20 93.5 55.5t68.5 76.5h22zM54 226q0 83 29.5 171t84.5 160t132 118.5t171 46.5q112 0 174 -62.5t62 -178.5q0 -82 -30 -170t-85 -160t-132 -118.5t-171 -46.5
q-112 0 -173.5 62.5t-61.5 177.5zM462 704q-58 0 -112.5 -43t-96.5 -112.5t-67.5 -157.5t-25.5 -178q0 -99 38.5 -154t99.5 -55q58 0 112.5 43t96.5 112.5t67.5 157.5t25.5 178q0 99 -38.5 154t-99.5 55z" />
    <glyph glyph-name="Otilde" unicode="&#xd5;" horiz-adv-x="729" 
d="M486 904q22 0 35 -7.5t22.5 -17t19.5 -17t25 -7.5q31 0 66 42l16 -11q-20 -42 -51 -64t-66 -22q-22 0 -35 8t-22.5 17t-19.5 17t-25 8q-31 0 -66 -42l-17 10q21 42 51.5 64t66.5 22zM54 226q0 83 29.5 171t84.5 160t132 118.5t171 46.5q112 0 174 -62.5t62 -178.5
q0 -82 -30 -170t-85 -160t-132 -118.5t-171 -46.5q-112 0 -173.5 62.5t-61.5 177.5zM462 704q-58 0 -112.5 -43t-96.5 -112.5t-67.5 -157.5t-25.5 -178q0 -99 38.5 -154t99.5 -55q58 0 112.5 43t96.5 112.5t67.5 157.5t25.5 178q0 99 -38.5 154t-99.5 55z" />
    <glyph glyph-name="Odieresis" unicode="&#xd6;" horiz-adv-x="729" 
d="M336 823q0 23 20 44t47 21q21 0 35.5 -14.5t14.5 -35.5q0 -25 -20 -45.5t-47 -20.5q-23 0 -36.5 14.5t-13.5 36.5zM548 823q0 23 20 44t47 21q21 0 35.5 -14.5t14.5 -35.5q0 -25 -20 -45.5t-47 -20.5q-23 0 -36.5 14.5t-13.5 36.5zM54 226q0 83 29.5 171t84.5 160
t132 118.5t171 46.5q112 0 174 -62.5t62 -178.5q0 -82 -30 -170t-85 -160t-132 -118.5t-171 -46.5q-112 0 -173.5 62.5t-61.5 177.5zM462 704q-58 0 -112.5 -43t-96.5 -112.5t-67.5 -157.5t-25.5 -178q0 -99 38.5 -154t99.5 -55q58 0 112.5 43t96.5 112.5t67.5 157.5
t25.5 178q0 99 -38.5 154t-99.5 55z" />
    <glyph glyph-name="multiply" unicode="&#xd7;" horiz-adv-x="513" 
d="M250 355l-125 175l26 18l123 -175l227 177l16 -22l-227 -176l125 -173l-25 -18l-124 173l-224 -174l-15 22z" />
    <glyph glyph-name="Oslash" unicode="&#xd8;" horiz-adv-x="729" 
d="M667 632q40 -60 40 -151q0 -82 -30 -170t-85 -160t-132 -118.5t-171 -46.5q-113 0 -175 64l-112 -119l-17 14l115 122q-46 61 -46 159q0 83 29.5 171t84.5 160t132 118.5t171 46.5q122 0 183 -73l123 128l15 -13zM462 704q-58 0 -112.5 -43t-96.5 -112.5t-67.5 -157.5
t-25.5 -178q0 -43 8 -81l421 454q-15 57 -48.5 87.5t-78.5 30.5zM298 4q58 0 112.5 43t96.5 112.5t67.5 157.5t25.5 178q0 36 -6 66l-419 -454q17 -50 49 -76.5t74 -26.5z" />
    <glyph glyph-name="Ugrave" unicode="&#xd9;" horiz-adv-x="682" 
d="M433 938q15 9 29 5.5t22 -17.5q6 -12 10 -26l9 -31.5t11.5 -39.5t17.5 -51l-19 -14q-17 25 -31.5 42t-26 30.5t-21 24t-16.5 21.5q-7 16 -3 30.5t18 25.5zM631 592q14 55 -1 74.5t-66 21.5l5 20q17 -2 46 -2.5t55 -0.5t51.5 0.5t42.5 2.5l-5 -20q-26 -1 -43 -6t-29 -16
t-19.5 -29t-14.5 -45l-78 -301q-18 -70 -42 -122t-56 -90q-36 -42 -89 -67.5t-116 -25.5q-49 0 -88.5 12.5t-65.5 41.5q-36 41 -35 99t25 149l83 314q7 27 8 43.5t-5.5 25.5t-21.5 12.5t-40 4.5l6 20q20 -2 55 -2.5t74 -0.5q35 0 68 0.5t57 2.5l-6 -20q-26 -1 -42.5 -4.5
t-27.5 -12.5t-18.5 -25.5t-14.5 -43.5l-88 -331q-13 -51 -19.5 -96.5t1.5 -79.5t35 -54t79 -20q56 0 98 19.5t72.5 54t51.5 82t36 103.5z" />
    <glyph glyph-name="Uacute" unicode="&#xda;" horiz-adv-x="682" 
d="M615 938q10 -11 6.5 -25.5t-19.5 -30.5q-12 -11 -26.5 -21.5t-33 -24t-41.5 -30.5t-52 -42l-13 14q25 29 43 51t31.5 39.5t24.5 31.5t23 26q16 14 31 17.5t26 -5.5zM631 592q14 55 -1 74.5t-66 21.5l5 20q17 -2 46 -2.5t55 -0.5t51.5 0.5t42.5 2.5l-5 -20q-26 -1 -43 -6
t-29 -16t-19.5 -29t-14.5 -45l-78 -301q-18 -70 -42 -122t-56 -90q-36 -42 -89 -67.5t-116 -25.5q-49 0 -88.5 12.5t-65.5 41.5q-36 41 -35 99t25 149l83 314q7 27 8 43.5t-5.5 25.5t-21.5 12.5t-40 4.5l6 20q20 -2 55 -2.5t74 -0.5q35 0 68 0.5t57 2.5l-6 -20
q-26 -1 -42.5 -4.5t-27.5 -12.5t-18.5 -25.5t-14.5 -43.5l-88 -331q-13 -51 -19.5 -96.5t1.5 -79.5t35 -54t79 -20q56 0 98 19.5t72.5 54t51.5 82t36 103.5z" />
    <glyph glyph-name="Ucircumflex" unicode="&#xdb;" horiz-adv-x="682" 
d="M539 931q5 -41 31 -76.5t65 -55.5l-16 -21q-37 14 -71 34t-54 40q-26 -20 -61.5 -40.5t-71.5 -34.5l-6 22q50 20 93.5 55.5t68.5 76.5h22zM631 592q14 55 -1 74.5t-66 21.5l5 20q17 -2 46 -2.5t55 -0.5t51.5 0.5t42.5 2.5l-5 -20q-26 -1 -43 -6t-29 -16t-19.5 -29
t-14.5 -45l-78 -301q-18 -70 -42 -122t-56 -90q-36 -42 -89 -67.5t-116 -25.5q-49 0 -88.5 12.5t-65.5 41.5q-36 41 -35 99t25 149l83 314q7 27 8 43.5t-5.5 25.5t-21.5 12.5t-40 4.5l6 20q20 -2 55 -2.5t74 -0.5q35 0 68 0.5t57 2.5l-6 -20q-26 -1 -42.5 -4.5t-27.5 -12.5
t-18.5 -25.5t-14.5 -43.5l-88 -331q-13 -51 -19.5 -96.5t1.5 -79.5t35 -54t79 -20q56 0 98 19.5t72.5 54t51.5 82t36 103.5z" />
    <glyph glyph-name="Udieresis" unicode="&#xdc;" horiz-adv-x="682" 
d="M316 823q0 23 20 44t47 21q21 0 35.5 -14.5t14.5 -35.5q0 -25 -20 -45.5t-47 -20.5q-23 0 -36.5 14.5t-13.5 36.5zM528 823q0 23 20 44t47 21q21 0 35.5 -14.5t14.5 -35.5q0 -25 -20 -45.5t-47 -20.5q-23 0 -36.5 14.5t-13.5 36.5zM631 592q14 55 -1 74.5t-66 21.5l5 20
q17 -2 46 -2.5t55 -0.5t51.5 0.5t42.5 2.5l-5 -20q-26 -1 -43 -6t-29 -16t-19.5 -29t-14.5 -45l-78 -301q-18 -70 -42 -122t-56 -90q-36 -42 -89 -67.5t-116 -25.5q-49 0 -88.5 12.5t-65.5 41.5q-36 41 -35 99t25 149l83 314q7 27 8 43.5t-5.5 25.5t-21.5 12.5t-40 4.5l6 20
q20 -2 55 -2.5t74 -0.5q35 0 68 0.5t57 2.5l-6 -20q-26 -1 -42.5 -4.5t-27.5 -12.5t-18.5 -25.5t-14.5 -43.5l-88 -331q-13 -51 -19.5 -96.5t1.5 -79.5t35 -54t79 -20q56 0 98 19.5t72.5 54t51.5 82t36 103.5z" />
    <glyph glyph-name="Yacute" unicode="&#xdd;" horiz-adv-x="670" 
d="M598 882q-12 -11 -26.5 -21.5t-33 -24t-41.5 -30.5t-52 -42l-13 14q25 29 43 51t31.5 39.5t24.5 31.5t23 26q16 14 31 17.5t26 -5.5q10 -11 6.5 -25.5t-19.5 -30.5zM700 722q34 0 46 -18.5t10 -40.5q-1 -10 -4.5 -21.5t-11 -21t-18 -15.5t-25.5 -6q-23 0 -31 13.5
t-7 29.5t10 31.5t22 27.5h-3q-16 -1 -29.5 -7t-25.5 -15q-22 -16 -49.5 -44t-57 -69.5t-61 -98t-61.5 -129.5l-58 -232q-7 -27 -8 -43.5t5.5 -25.5t21.5 -12.5t40 -4.5l-5 -20q-23 2 -56 2.5t-68 0.5q-39 0 -74 -0.5t-57 -2.5l5 20q26 1 42.5 4.5t28 12.5t18.5 25.5t14 43.5
l59 233q-6 55 -15.5 113t-23 106t-33 78.5t-45.5 30.5q-17 0 -28.5 -10.5t-19.5 -36.5l-28 -82h-22l33 97q15 44 35 65.5t63 21.5q41 0 69 -25.5t47 -73t30.5 -114t20.5 -149.5q38 97 86.5 171t100.5 126q23 23 54.5 44t63.5 21z" />
    <glyph glyph-name="Thorn" unicode="&#xde;" horiz-adv-x="605" 
d="M166 106q-7 -27 -8.5 -43.5t5 -25.5t22 -12.5t40.5 -4.5l-4 -20q-23 2 -57.5 2.5t-69.5 0.5q-39 0 -72 -0.5t-55 -2.5l5 20q25 1 41 4.5t27 12.5t18.5 25.5t14.5 43.5l132 496q7 27 8 43.5t-5.5 25.5t-21.5 12.5t-40 4.5l5 20q20 -2 54 -2.5t73 -0.5q35 0 69.5 0.5
t58.5 2.5l-5 -20q-26 -1 -42.5 -4.5t-27.5 -12.5t-18.5 -25.5t-14.5 -43.5l-8 -29q26 1 52.5 1.5t53.5 0.5q101 0 150 -41t49 -110q0 -59 -27.5 -109t-77 -86t-119 -56.5t-153.5 -20.5h-40zM184 172h44q74 0 125 21t82.5 57t45 85t13.5 105q0 59 -29.5 87.5t-97.5 28.5
q-31 0 -48 -0.5t-34 -2.5z" />
    <glyph glyph-name="germandbls" unicode="&#xdf;" horiz-adv-x="547" 
d="M366 767q-43 0 -70.5 -40.5t-53.5 -137.5l-201 -763q-24 -1 -47 -4t-43 -10l182 695q18 67 38 118t48.5 86t67.5 53t94 18q38 0 63.5 -8.5t42 -22.5t23.5 -32t7 -38q0 -28 -12.5 -53t-32 -47.5t-42.5 -43.5t-45 -42q-17 -15 -25.5 -33t-8.5 -42q0 -20 6 -37t15.5 -32.5
t21 -30t23.5 -30.5q26 -35 42.5 -70t16.5 -75q0 -36 -14 -65.5t-38.5 -50t-57 -32t-69.5 -11.5q-24 0 -47 5t-41 15.5t-29 27t-11 38.5q0 23 11 35.5t28 12.5q14 0 22 -7.5t13 -18t6.5 -22t1.5 -20.5q0 -11 -2 -20l-4 -18q8 -3 17.5 -5.5t24.5 -2.5q45 0 75 27t30 77
q0 28 -11.5 61.5t-40.5 69.5q-10 12 -21 26t-21 29.5t-16.5 33.5t-6.5 39q0 25 9.5 42.5t24 32.5t32.5 30t35 33q29 31 46.5 69.5t17.5 84.5q0 55 -21 80.5t-53 25.5z" />
    <glyph glyph-name="agrave" unicode="&#xe0;" horiz-adv-x="523" 
d="M374 570q-17 25 -31.5 42t-26 30.5t-21 24t-16.5 21.5q-7 16 -3 30.5t18 25.5q15 9 29 5.5t22 -17.5q6 -12 10 -26l9 -31.5t11.5 -39.5t17.5 -51zM455 163h19l-25 -73q-22 -60 -54 -82t-61 -22q-39 0 -55 26q-14 23 -7.5 53t14.5 62l18 72q-49 -115 -99 -164t-102 -49
q-48 0 -71 33.5t-23 87.5q0 40 11.5 86.5t31.5 93.5t48 90.5t60.5 77t69 53.5t74.5 20q26 0 43.5 -19.5t20.5 -56.5l16 62q24 1 48 4t44 10l-125 -442q-2 -7 -4.5 -17.5t-2.5 -20.5t4.5 -17t17.5 -7q20 0 39 22t38 80zM132 18q21 0 49 25t56.5 67.5t54.5 99t45 118.5l18 71
q5 50 -9.5 80t-44.5 30q-33 0 -69 -40t-66 -101t-49.5 -134t-19.5 -139q0 -43 9 -60t26 -17z" />
    <glyph glyph-name="aacute" unicode="&#xe1;" horiz-adv-x="523" 
d="M463 688q-12 -11 -26.5 -21.5t-33 -24t-41.5 -30.5t-52 -42l-13 14q25 29 43 51t31.5 39.5t24.5 31.5t23 26q16 14 31 17.5t26 -5.5q10 -11 6.5 -25.5t-19.5 -30.5zM351 86q-2 -7 -4.5 -17.5t-2.5 -20.5t4.5 -17t17.5 -7q20 0 39 22t38 80l12 37h19l-25 -73
q-22 -60 -54 -82t-61 -22q-39 0 -55 26q-14 23 -7.5 53t14.5 62l18 72q-49 -115 -99 -164t-102 -49q-48 0 -71 33.5t-23 87.5q0 40 11.5 86.5t31.5 93.5t48 90.5t60.5 77t69 53.5t74.5 20q26 0 43.5 -19.5t20.5 -56.5l16 62q24 1 48 4t44 10zM132 18q21 0 49 25t56.5 67.5
t54.5 99t45 118.5l18 71q5 50 -9.5 80t-44.5 30q-33 0 -69 -40t-66 -101t-49.5 -134t-19.5 -139q0 -43 9 -60t26 -17z" />
    <glyph glyph-name="acircumflex" unicode="&#xe2;" horiz-adv-x="523" 
d="M400 737q5 -41 31 -76.5t65 -55.5l-16 -21q-37 14 -71 34t-54 40q-26 -20 -61.5 -40.5t-71.5 -34.5l-6 22q50 20 93.5 55.5t68.5 76.5h22zM351 86q-2 -7 -4.5 -17.5t-2.5 -20.5t4.5 -17t17.5 -7q20 0 39 22t38 80l12 37h19l-25 -73q-22 -60 -54 -82t-61 -22q-39 0 -55 26
q-14 23 -7.5 53t14.5 62l18 72q-49 -115 -99 -164t-102 -49q-48 0 -71 33.5t-23 87.5q0 40 11.5 86.5t31.5 93.5t48 90.5t60.5 77t69 53.5t74.5 20q26 0 43.5 -19.5t20.5 -56.5l16 62q24 1 48 4t44 10zM132 18q21 0 49 25t56.5 67.5t54.5 99t45 118.5l18 71q5 50 -9.5 80
t-44.5 30q-33 0 -69 -40t-66 -101t-49.5 -134t-19.5 -139q0 -43 9 -60t26 -17z" />
    <glyph glyph-name="atilde" unicode="&#xe3;" horiz-adv-x="523" 
d="M511 692q-20 -42 -51 -64t-66 -22q-22 0 -35 8t-22.5 17t-19.5 17t-25 8q-31 0 -66 -42l-17 10q21 42 51.5 64t66.5 22q22 0 35 -7.5t22.5 -17t19.5 -17t25 -7.5q31 0 66 42zM351 86q-2 -7 -4.5 -17.5t-2.5 -20.5t4.5 -17t17.5 -7q20 0 39 22t38 80l12 37h19l-25 -73
q-22 -60 -54 -82t-61 -22q-39 0 -55 26q-14 23 -7.5 53t14.5 62l18 72q-49 -115 -99 -164t-102 -49q-48 0 -71 33.5t-23 87.5q0 40 11.5 86.5t31.5 93.5t48 90.5t60.5 77t69 53.5t74.5 20q26 0 43.5 -19.5t20.5 -56.5l16 62q24 1 48 4t44 10zM132 18q21 0 49 25t56.5 67.5
t54.5 99t45 118.5l18 71q5 50 -9.5 80t-44.5 30q-33 0 -69 -40t-66 -101t-49.5 -134t-19.5 -139q0 -43 9 -60t26 -17z" />
    <glyph glyph-name="adieresis" unicode="&#xe4;" horiz-adv-x="523" 
d="M259 627q-23 0 -36.5 14.5t-13.5 36.5q0 23 20 44t47 21q21 0 35.5 -14.5t14.5 -35.5q0 -25 -20 -45.5t-47 -20.5zM488 743q21 0 35.5 -14.5t14.5 -35.5q0 -25 -20 -45.5t-47 -20.5q-23 0 -36.5 14.5t-13.5 36.5q0 23 20 44t47 21zM351 86q-2 -7 -4.5 -17.5t-2.5 -20.5
t4.5 -17t17.5 -7q20 0 39 22t38 80l12 37h19l-25 -73q-22 -60 -54 -82t-61 -22q-39 0 -55 26q-14 23 -7.5 53t14.5 62l18 72q-49 -115 -99 -164t-102 -49q-48 0 -71 33.5t-23 87.5q0 40 11.5 86.5t31.5 93.5t48 90.5t60.5 77t69 53.5t74.5 20q26 0 43.5 -19.5t20.5 -56.5
l16 62q24 1 48 4t44 10zM132 18q21 0 49 25t56.5 67.5t54.5 99t45 118.5l18 71q5 50 -9.5 80t-44.5 30q-33 0 -69 -40t-66 -101t-49.5 -134t-19.5 -139q0 -43 9 -60t26 -17z" />
    <glyph glyph-name="aring" unicode="&#xe5;" horiz-adv-x="523" 
d="M365 608q-35 0 -59 21t-24 59q0 22 8.5 40.5t23.5 32.5t35 22t42 8q36 0 61 -21.5t25 -58.5q0 -21 -9 -39.5t-24.5 -33t-36 -22.5t-42.5 -8zM387 770q-15 0 -29.5 -6.5t-25.5 -18t-17.5 -26t-6.5 -30.5q0 -30 19 -45t42 -15q32 0 57 23.5t25 59.5q0 29 -20.5 43.5
t-43.5 14.5zM351 86q-2 -7 -4.5 -17.5t-2.5 -20.5t4.5 -17t17.5 -7q20 0 39 22t38 80l12 37h19l-25 -73q-22 -60 -54 -82t-61 -22q-39 0 -55 26q-14 23 -7.5 53t14.5 62l18 72q-49 -115 -99 -164t-102 -49q-48 0 -71 33.5t-23 87.5q0 40 11.5 86.5t31.5 93.5t48 90.5
t60.5 77t69 53.5t74.5 20q26 0 43.5 -19.5t20.5 -56.5l16 62q24 1 48 4t44 10zM132 18q21 0 49 25t56.5 67.5t54.5 99t45 118.5l18 71q5 50 -9.5 80t-44.5 30q-33 0 -69 -40t-66 -101t-49.5 -134t-19.5 -139q0 -43 9 -60t26 -17z" />
    <glyph glyph-name="ae" unicode="&#xe6;" horiz-adv-x="659" 
d="M645 452q0 -44 -30.5 -80.5t-76 -65.5t-98 -50.5t-95.5 -35.5q-5 -24 -7.5 -48t-2.5 -48q0 -51 18.5 -73.5t50.5 -22.5q36 0 74 21.5t76 78.5l20 -8q-15 -25 -36 -49t-47 -43t-56 -30.5t-62 -11.5q-48 0 -81 22t-45 67q-57 -89 -144 -89q-52 0 -76 31t-24 80q0 44 15 92
t40.5 95t60 89.5t74 74.5t82 51t83.5 19q17 0 35 -7.5t31 -27.5q29 21 60.5 33t66.5 12q40 0 67 -19t27 -57zM529 509q-22 0 -48 -22t-51 -59t-46.5 -86t-34.5 -103q45 16 80 32t58 33q36 29 57 69.5t21 90.5q0 21 -9.5 33t-26.5 12zM135 18q23 0 51.5 17.5t56.5 61.5
q-1 8 -1.5 15t-0.5 15q0 39 12 86t34.5 94.5t53.5 91t70 74.5q-12 17 -25.5 20.5t-20.5 3.5q-40 0 -87.5 -35t-89 -92.5t-69.5 -131.5t-28 -153q0 -30 10.5 -48.5t33.5 -18.5z" />
    <glyph glyph-name="ccedilla" unicode="&#xe7;" horiz-adv-x="432" 
d="M320 528q45 0 76.5 -22.5t31.5 -62.5q0 -14 -5 -28.5t-14 -26t-22 -18.5t-30 -7q-21 0 -31 11.5t-10 27.5q0 29 23 49.5t52 25.5q-10 14 -26 22.5t-42 8.5q-38 0 -76 -31.5t-68 -84.5t-49 -122.5t-19 -145.5q0 -51 19 -73.5t51 -22.5q36 0 74 21.5t76 78.5l20 -8
q-15 -25 -36 -49t-47 -43t-56 -30.5t-62 -11.5l-27 -58q8 3 19 5t22 2q43 0 43 -40q0 -22 -12 -37.5t-30 -25.5t-39.5 -15t-41.5 -5q-28 0 -49 7t-31 15l7 15q7 -3 21 -8t39 -5q8 0 20 2.5t23.5 8t20 15.5t8.5 25q0 24 -28 24q-5 0 -14 -1.5t-17 -5.5l40 84
q-49 8 -77.5 43.5t-28.5 101.5q0 58 21 127t60 128.5t95 99.5t126 40z" />
    <glyph glyph-name="egrave" unicode="&#xe8;" horiz-adv-x="429" 
d="M349 570q-17 25 -31.5 42t-26 30.5t-21 24t-16.5 21.5q-7 16 -3 30.5t18 25.5q15 9 29 5.5t22 -17.5q6 -12 10 -26l9 -31.5t11.5 -39.5t17.5 -51zM416 462q0 -46 -30.5 -84t-75.5 -68t-97 -52.5t-96 -36.5q-11 -50 -11 -97q0 -51 18.5 -73.5t50.5 -22.5q36 0 76 21.5
t78 78.5l16 -8q-15 -25 -36 -49t-47 -43t-56 -30.5t-62 -11.5q-61 0 -96.5 35.5t-35.5 105.5q0 36 11.5 80t32 88.5t50 86.5t66.5 74.5t80 52t90 19.5q31 0 52.5 -16.5t21.5 -49.5zM320 509q-25 0 -53.5 -22t-56 -59t-51 -85.5t-37.5 -102.5q44 15 78.5 31t57.5 33
q36 29 57 69.5t21 90.5q0 29 -4 37t-12 8z" />
    <glyph glyph-name="eacute" unicode="&#xe9;" horiz-adv-x="429" 
d="M451 744q10 -11 6.5 -25.5t-19.5 -30.5q-12 -11 -26.5 -21.5t-33 -24t-41.5 -30.5t-52 -42l-13 14q25 29 43 51t31.5 39.5t24.5 31.5t23 26q16 14 31 17.5t26 -5.5zM342 528q31 0 52.5 -16.5t21.5 -49.5q0 -46 -30.5 -84t-75.5 -68t-97 -52.5t-96 -36.5q-11 -50 -11 -97
q0 -51 18.5 -73.5t50.5 -22.5q36 0 76 21.5t78 78.5l16 -8q-15 -25 -36 -49t-47 -43t-56 -30.5t-62 -11.5q-61 0 -96.5 35.5t-35.5 105.5q0 36 11.5 80t32 88.5t50 86.5t66.5 74.5t80 52t90 19.5zM258 304q36 29 57 69.5t21 90.5q0 29 -4 37t-12 8q-25 0 -53.5 -22t-56 -59
t-51 -85.5t-37.5 -102.5q44 15 78.5 31t57.5 33z" />
    <glyph glyph-name="ecircumflex" unicode="&#xea;" horiz-adv-x="429" 
d="M375 737q5 -41 31 -76.5t65 -55.5l-16 -21q-37 14 -71 34t-54 40q-26 -20 -61.5 -40.5t-71.5 -34.5l-6 22q50 20 93.5 55.5t68.5 76.5h22zM342 528q31 0 52.5 -16.5t21.5 -49.5q0 -46 -30.5 -84t-75.5 -68t-97 -52.5t-96 -36.5q-11 -50 -11 -97q0 -51 18.5 -73.5
t50.5 -22.5q36 0 76 21.5t78 78.5l16 -8q-15 -25 -36 -49t-47 -43t-56 -30.5t-62 -11.5q-61 0 -96.5 35.5t-35.5 105.5q0 36 11.5 80t32 88.5t50 86.5t66.5 74.5t80 52t90 19.5zM258 304q36 29 57 69.5t21 90.5q0 29 -4 37t-12 8q-25 0 -53.5 -22t-56 -59t-51 -85.5
t-37.5 -102.5q44 15 78.5 31t57.5 33z" />
    <glyph glyph-name="edieresis" unicode="&#xeb;" horiz-adv-x="429" 
d="M234 627q-23 0 -36.5 14.5t-13.5 36.5q0 23 20 44t47 21q21 0 35.5 -14.5t14.5 -35.5q0 -25 -20 -45.5t-47 -20.5zM463 743q21 0 35.5 -14.5t14.5 -35.5q0 -25 -20 -45.5t-47 -20.5q-23 0 -36.5 14.5t-13.5 36.5q0 23 20 44t47 21zM342 528q31 0 52.5 -16.5t21.5 -49.5
q0 -46 -30.5 -84t-75.5 -68t-97 -52.5t-96 -36.5q-11 -50 -11 -97q0 -51 18.5 -73.5t50.5 -22.5q36 0 76 21.5t78 78.5l16 -8q-15 -25 -36 -49t-47 -43t-56 -30.5t-62 -11.5q-61 0 -96.5 35.5t-35.5 105.5q0 36 11.5 80t32 88.5t50 86.5t66.5 74.5t80 52t90 19.5zM258 304
q36 29 57 69.5t21 90.5q0 29 -4 37t-12 8q-25 0 -53.5 -22t-56 -59t-51 -85.5t-37.5 -102.5q44 15 78.5 31t57.5 33z" />
    <glyph glyph-name="igrave" unicode="&#xec;" horiz-adv-x="302" 
d="M163 744q15 9 29 5.5t22 -17.5q6 -12 10 -26l9 -31.5t11.5 -39.5t17.5 -51l-19 -14q-17 25 -31.5 42t-26 30.5t-21 24t-16.5 21.5q-7 16 -3 30.5t18 25.5zM158 429q21 62 -14 62q-23 0 -41 -25t-38 -77l-14 -37h-19l26 73q11 32 26 52t31.5 31t34 15.5t32.5 4.5
q32 0 47 -13t18.5 -33.5t-2 -45.5t-13.5 -48l-107 -303q-11 -29 -7.5 -45.5t23.5 -16.5t38 22t40 80l14 37h19l-26 -73q-21 -59 -54.5 -81t-68.5 -22q-32 0 -48 12t-20 31.5t1 44.5t15 52z" />
    <glyph glyph-name="iacute" unicode="&#xed;" horiz-adv-x="302" 
d="M345 744q10 -11 6.5 -25.5t-19.5 -30.5q-12 -11 -26.5 -21.5t-33 -24t-41.5 -30.5t-52 -42l-13 14q25 29 43 51t31.5 39.5t24.5 31.5t23 26q16 14 31 17.5t26 -5.5zM158 429q21 62 -14 62q-23 0 -41 -25t-38 -77l-14 -37h-19l26 73q11 32 26 52t31.5 31t34 15.5t32.5 4.5
q32 0 47 -13t18.5 -33.5t-2 -45.5t-13.5 -48l-107 -303q-11 -29 -7.5 -45.5t23.5 -16.5t38 22t40 80l14 37h19l-26 -73q-21 -59 -54.5 -81t-68.5 -22q-32 0 -48 12t-20 31.5t1 44.5t15 52z" />
    <glyph glyph-name="icircumflex" unicode="&#xee;" horiz-adv-x="302" 
d="M269 737q5 -41 31 -76.5t65 -55.5l-16 -21q-37 14 -71 34t-54 40q-26 -20 -61.5 -40.5t-71.5 -34.5l-6 22q50 20 93.5 55.5t68.5 76.5h22zM158 429q21 62 -14 62q-23 0 -41 -25t-38 -77l-14 -37h-19l26 73q11 32 26 52t31.5 31t34 15.5t32.5 4.5q32 0 47 -13t18.5 -33.5
t-2 -45.5t-13.5 -48l-107 -303q-11 -29 -7.5 -45.5t23.5 -16.5t38 22t40 80l14 37h19l-26 -73q-21 -59 -54.5 -81t-68.5 -22q-32 0 -48 12t-20 31.5t1 44.5t15 52z" />
    <glyph glyph-name="idieresis" unicode="&#xef;" horiz-adv-x="302" 
d="M78 678q0 23 20 44t47 21q21 0 35.5 -14.5t14.5 -35.5q0 -25 -20 -45.5t-47 -20.5q-23 0 -36.5 14.5t-13.5 36.5zM290 678q0 23 20 44t47 21q21 0 35.5 -14.5t14.5 -35.5q0 -25 -20 -45.5t-47 -20.5q-23 0 -36.5 14.5t-13.5 36.5zM158 429q21 62 -14 62q-23 0 -41 -25
t-38 -77l-14 -37h-19l26 73q11 32 26 52t31.5 31t34 15.5t32.5 4.5q32 0 47 -13t18.5 -33.5t-2 -45.5t-13.5 -48l-107 -303q-11 -29 -7.5 -45.5t23.5 -16.5t38 22t40 80l14 37h19l-26 -73q-21 -59 -54.5 -81t-68.5 -22q-32 0 -48 12t-20 31.5t1 44.5t15 52z" />
    <glyph glyph-name="eth" unicode="&#xf0;" horiz-adv-x="487" 
d="M345 675q48 -51 75 -120t27 -161q0 -64 -19 -135.5t-55.5 -132t-90.5 -100.5t-124 -40q-63 0 -100 38.5t-37 118.5q0 55 18.5 122t54.5 125.5t88 98t119 39.5q18 0 31 -4.5t22 -10.5q-8 44 -22 78.5t-33 62.5l-185 -82l-6 18l179 79q-26 32 -57 55.5t-65 40.5l12 17
q45 -17 83.5 -40t70.5 -53l160 71l6 -18zM164 6q41 0 76.5 39.5t62.5 100.5t42.5 134.5t15.5 140.5q0 20 -1 37.5t-3 34.5q-19 15 -56 15q-39 0 -74 -40t-62 -101t-42.5 -134t-15.5 -140q0 -45 14 -66t43 -21z" />
    <glyph glyph-name="ntilde" unicode="&#xf1;" horiz-adv-x="580" 
d="M304 656q-31 0 -66 -42l-17 10q21 42 51.5 64t66.5 22q22 0 35 -7.5t22.5 -17t19.5 -17t25 -7.5q31 0 66 42l16 -11q-20 -42 -51 -64t-66 -22q-22 0 -35 8t-22.5 17t-19.5 17t-25 8zM530 162l-25 -73q-11 -31 -25.5 -51.5t-30.5 -31.5t-33 -15.5t-32 -4.5q-45 0 -63 29
q-11 18 -7 47t16 64l95 286q3 10 7 24.5t3 27.5t-7.5 22.5t-24.5 9.5q-29 0 -64 -32.5t-70.5 -89t-69 -134t-59.5 -167.5l-18 -73h-87l120 429q3 9 5.5 20t2 20t-5.5 15.5t-17 6.5q-22 0 -39 -21.5t-38 -80.5l-13 -37h-19l25 73q11 32 25 52t29.5 31t32 15.5t32.5 4.5
q30 0 43 -13t15.5 -33.5t-2.5 -45t-11 -48.5l-35 -137q33 77 63.5 130t60.5 85.5t61.5 47t65.5 14.5q35 0 53 -13.5t24 -35t2 -48.5t-13 -54l-97 -292q-9 -27 -7.5 -44.5t23.5 -17.5q19 0 37.5 21t39.5 81l13 37h19z" />
    <glyph glyph-name="ograve" unicode="&#xf2;" horiz-adv-x="488" 
d="M289 744q15 9 29 5.5t22 -17.5q6 -12 10 -26l9 -31.5t11.5 -39.5t17.5 -51l-19 -14q-17 25 -31.5 42t-26 30.5t-21 24t-16.5 21.5q-7 16 -3 30.5t18 25.5zM21 143q0 55 19 122t55.5 125.5t90.5 98t124 39.5q63 0 100 -38.5t37 -118.5q0 -55 -19 -122t-55.5 -125.5
t-90.5 -98t-124 -39.5q-63 0 -100 38.5t-37 118.5zM304 508q-40 0 -76 -40t-63 -101t-42.5 -134t-15.5 -140q0 -45 14 -66t43 -21q41 0 76.5 39.5t62.5 100.5t42.5 134.5t15.5 140.5q0 46 -14 66.5t-43 20.5z" />
    <glyph glyph-name="oacute" unicode="&#xf3;" horiz-adv-x="488" 
d="M471 744q10 -11 6.5 -25.5t-19.5 -30.5q-12 -11 -26.5 -21.5t-33 -24t-41.5 -30.5t-52 -42l-13 14q25 29 43 51t31.5 39.5t24.5 31.5t23 26q16 14 31 17.5t26 -5.5zM21 143q0 55 19 122t55.5 125.5t90.5 98t124 39.5q63 0 100 -38.5t37 -118.5q0 -55 -19 -122
t-55.5 -125.5t-90.5 -98t-124 -39.5q-63 0 -100 38.5t-37 118.5zM304 508q-40 0 -76 -40t-63 -101t-42.5 -134t-15.5 -140q0 -45 14 -66t43 -21q41 0 76.5 39.5t62.5 100.5t42.5 134.5t15.5 140.5q0 46 -14 66.5t-43 20.5z" />
    <glyph glyph-name="ocircumflex" unicode="&#xf4;" horiz-adv-x="488" 
d="M395 737q5 -41 31 -76.5t65 -55.5l-16 -21q-37 14 -71 34t-54 40q-26 -20 -61.5 -40.5t-71.5 -34.5l-6 22q50 20 93.5 55.5t68.5 76.5h22zM21 143q0 55 19 122t55.5 125.5t90.5 98t124 39.5q63 0 100 -38.5t37 -118.5q0 -55 -19 -122t-55.5 -125.5t-90.5 -98t-124 -39.5
q-63 0 -100 38.5t-37 118.5zM304 508q-40 0 -76 -40t-63 -101t-42.5 -134t-15.5 -140q0 -45 14 -66t43 -21q41 0 76.5 39.5t62.5 100.5t42.5 134.5t15.5 140.5q0 46 -14 66.5t-43 20.5z" />
    <glyph glyph-name="otilde" unicode="&#xf5;" horiz-adv-x="488" 
d="M322 710q22 0 35 -7.5t22.5 -17t19.5 -17t25 -7.5q31 0 66 42l16 -11q-20 -42 -51 -64t-66 -22q-22 0 -35 8t-22.5 17t-19.5 17t-25 8q-31 0 -66 -42l-17 10q21 42 51.5 64t66.5 22zM21 143q0 55 19 122t55.5 125.5t90.5 98t124 39.5q63 0 100 -38.5t37 -118.5
q0 -55 -19 -122t-55.5 -125.5t-90.5 -98t-124 -39.5q-63 0 -100 38.5t-37 118.5zM304 508q-40 0 -76 -40t-63 -101t-42.5 -134t-15.5 -140q0 -45 14 -66t43 -21q41 0 76.5 39.5t62.5 100.5t42.5 134.5t15.5 140.5q0 46 -14 66.5t-43 20.5z" />
    <glyph glyph-name="odieresis" unicode="&#xf6;" horiz-adv-x="488" 
d="M204 678q0 23 20 44t47 21q21 0 35.5 -14.5t14.5 -35.5q0 -25 -20 -45.5t-47 -20.5q-23 0 -36.5 14.5t-13.5 36.5zM416 678q0 23 20 44t47 21q21 0 35.5 -14.5t14.5 -35.5q0 -25 -20 -45.5t-47 -20.5q-23 0 -36.5 14.5t-13.5 36.5zM21 143q0 55 19 122t55.5 125.5
t90.5 98t124 39.5q63 0 100 -38.5t37 -118.5q0 -55 -19 -122t-55.5 -125.5t-90.5 -98t-124 -39.5q-63 0 -100 38.5t-37 118.5zM304 508q-40 0 -76 -40t-63 -101t-42.5 -134t-15.5 -140q0 -45 14 -66t43 -21q41 0 76.5 39.5t62.5 100.5t42.5 134.5t15.5 140.5q0 46 -14 66.5
t-43 20.5z" />
    <glyph glyph-name="divide" unicode="&#xf7;" horiz-adv-x="657" 
d="M334 499q7 23 27.5 39t43.5 16t35 -16t5 -39t-28 -39t-44 -16t-34.5 16t-4.5 39zM96 370h501l-9 -30h-501zM251 211q7 23 27.5 39t43.5 16t35 -16t5 -39t-28 -39.5t-44 -16.5t-34.5 16.5t-4.5 39.5z" />
    <glyph glyph-name="oslash" unicode="&#xf8;" horiz-adv-x="488" 
d="M421 474q26 -38 26 -103q0 -55 -19 -122t-55.5 -125.5t-90.5 -98t-124 -39.5q-67 0 -103 42l-84 -101l-14 13l86 105q-22 39 -22 98q0 55 19 122t55.5 125.5t90.5 98t124 39.5q64 0 100 -39l80 97l13 -12zM304 508q-39 0 -73.5 -37t-61 -95t-43 -127.5t-19.5 -135.5
l253 327q-4 68 -56 68zM164 6q40 0 75 38.5t62 97.5t43 130.5t17 138.5l-254 -331q4 -74 57 -74z" />
    <glyph glyph-name="ugrave" unicode="&#xf9;" horiz-adv-x="567" 
d="M359 570q-17 25 -31.5 42t-26 30.5t-21 24t-16.5 21.5q-7 16 -3 30.5t18 25.5q15 9 29 5.5t22 -17.5q6 -12 10 -26l9 -31.5t11.5 -39.5t17.5 -51zM499 162h19l-25 -73q-11 -31 -25.5 -51.5t-30.5 -31.5t-33 -15.5t-32 -4.5q-16 0 -30 6.5t-21 20.5q-8 17 -5.5 42.5
t13.5 70.5l31 125q-30 -73 -58 -123.5t-56.5 -82t-57.5 -45.5t-61 -14q-33 0 -52 11.5t-26.5 32t-5 48t13.5 59.5l97 292q10 30 7 46t-23 16q-19 0 -37.5 -21t-39.5 -81l-13 -37h-19l25 73q11 32 25.5 52t30.5 31t33 15.5t32 4.5q33 0 48.5 -12t19.5 -31.5t-0.5 -45
t-13.5 -51.5l-95 -286q-14 -44 -8.5 -64t30.5 -20q29 0 63.5 33t69 92.5t67.5 141.5t59 180l12 49q25 1 48.5 4t42.5 10l-124 -443q-8 -27 -7 -44.5t21 -17.5q22 0 40 23t38 79z" />
    <glyph glyph-name="uacute" unicode="&#xfa;" horiz-adv-x="567" 
d="M448 688q-12 -11 -26.5 -21.5t-33 -24t-41.5 -30.5t-52 -42l-13 14q25 29 43 51t31.5 39.5t24.5 31.5t23 26q16 14 31 17.5t26 -5.5q10 -11 6.5 -25.5t-19.5 -30.5zM499 162h19l-25 -73q-11 -31 -25.5 -51.5t-30.5 -31.5t-33 -15.5t-32 -4.5q-16 0 -30 6.5t-21 20.5
q-8 17 -5.5 42.5t13.5 70.5l31 125q-30 -73 -58 -123.5t-56.5 -82t-57.5 -45.5t-61 -14q-33 0 -52 11.5t-26.5 32t-5 48t13.5 59.5l97 292q10 30 7 46t-23 16q-19 0 -37.5 -21t-39.5 -81l-13 -37h-19l25 73q11 32 25.5 52t30.5 31t33 15.5t32 4.5q33 0 48.5 -12t19.5 -31.5
t-0.5 -45t-13.5 -51.5l-95 -286q-14 -44 -8.5 -64t30.5 -20q29 0 63.5 33t69 92.5t67.5 141.5t59 180l12 49q25 1 48.5 4t42.5 10l-124 -443q-8 -27 -7 -44.5t21 -17.5q22 0 40 23t38 79z" />
    <glyph glyph-name="ucircumflex" unicode="&#xfb;" horiz-adv-x="567" 
d="M340 658q-26 -20 -61.5 -40.5t-71.5 -34.5l-6 22q50 20 93.5 55.5t68.5 76.5h22q5 -41 31 -76.5t65 -55.5l-16 -21q-37 14 -71 34t-54 40zM499 162h19l-25 -73q-11 -31 -25.5 -51.5t-30.5 -31.5t-33 -15.5t-32 -4.5q-16 0 -30 6.5t-21 20.5q-8 17 -5.5 42.5t13.5 70.5
l31 125q-30 -73 -58 -123.5t-56.5 -82t-57.5 -45.5t-61 -14q-33 0 -52 11.5t-26.5 32t-5 48t13.5 59.5l97 292q10 30 7 46t-23 16q-19 0 -37.5 -21t-39.5 -81l-13 -37h-19l25 73q11 32 25.5 52t30.5 31t33 15.5t32 4.5q33 0 48.5 -12t19.5 -31.5t-0.5 -45t-13.5 -51.5
l-95 -286q-14 -44 -8.5 -64t30.5 -20q29 0 63.5 33t69 92.5t67.5 141.5t59 180l12 49q25 1 48.5 4t42.5 10l-124 -443q-8 -27 -7 -44.5t21 -17.5q22 0 40 23t38 79z" />
    <glyph glyph-name="udieresis" unicode="&#xfc;" horiz-adv-x="567" 
d="M244 627q-23 0 -36.5 14.5t-13.5 36.5q0 23 20 44t47 21q21 0 35.5 -14.5t14.5 -35.5q0 -25 -20 -45.5t-47 -20.5zM456 627q-23 0 -36.5 14.5t-13.5 36.5q0 23 20 44t47 21q21 0 35.5 -14.5t14.5 -35.5q0 -25 -20 -45.5t-47 -20.5zM394 85q-8 -27 -7 -44.5t21 -17.5
q22 0 40 23t38 79l13 37h19l-25 -73q-11 -31 -25.5 -51.5t-30.5 -31.5t-33 -15.5t-32 -4.5q-16 0 -30 6.5t-21 20.5q-8 17 -5.5 42.5t13.5 70.5l31 125q-30 -73 -58 -123.5t-56.5 -82t-57.5 -45.5t-61 -14q-33 0 -52 11.5t-26.5 32t-5 48t13.5 59.5l97 292q10 30 7 46
t-23 16q-19 0 -37.5 -21t-39.5 -81l-13 -37h-19l25 73q11 32 25.5 52t30.5 31t33 15.5t32 4.5q33 0 48.5 -12t19.5 -31.5t-0.5 -45t-13.5 -51.5l-95 -286q-14 -44 -8.5 -64t30.5 -20q29 0 63.5 33t69 92.5t67.5 141.5t59 180l12 49q25 1 48.5 4t42.5 10z" />
    <glyph glyph-name="yacute" unicode="&#xfd;" horiz-adv-x="481" 
d="M416 688q-12 -11 -26.5 -21.5t-33 -24t-41.5 -30.5t-52 -42l-13 14q25 29 43 51t31.5 39.5t24.5 31.5t23 26q16 14 31 17.5t26 -5.5q10 -11 6.5 -25.5t-19.5 -30.5zM406 528q52 0 52 -81q0 -51 -17.5 -110t-45.5 -118t-63 -115t-71 -101q-12 -15 -31 -36.5t-43.5 -44.5
t-55.5 -45.5t-67 -39.5q-30 -14 -51.5 -19.5t-35.5 -5.5q-20 0 -35 10.5t-15 30.5q0 22 16.5 33.5t37.5 11.5q23 0 43.5 -12t39.5 -27q34 18 71.5 46.5t78.5 73.5l-74 448q-5 31 -12 43t-20 12q-11 0 -25 -17.5t-34 -74.5l-13 -37h-19l25 73q21 61 52 81.5t63 20.5
q31 0 47.5 -19t24.5 -73l51 -376q52 72 93 155.5t58 169.5q-12 6 -26 15.5t-25.5 21.5t-18.5 27t-6 32q2 23 16 35t35 12z" />
    <glyph glyph-name="thorn" unicode="&#xfe;" horiz-adv-x="551" 
d="M409 528q48 0 76 -34.5t28 -106.5q0 -57 -19.5 -126.5t-57 -130.5t-92 -102.5t-124.5 -41.5q-27 0 -48.5 14.5t-32.5 43.5l-38 -132q-12 -42 12 -57t69 -15l-6 -21q-20 1 -56.5 2.5t-77.5 1.5q-32 0 -63.5 -1.5t-47.5 -2.5l6 21q36 0 52 13.5t26 48.5l188 666
q-33 -72 -76 -124t-94 -100l-11 13q29 28 55.5 55.5t51.5 61t49 76.5t49 102l36 129q24 1 47.5 4t43.5 10l-126 -440q45 95 89 134t92 39zM219 9q42 0 80 41.5t66.5 102.5t45 130.5t16.5 125.5q0 45 -12.5 66t-34.5 21q-20 0 -44.5 -19.5t-49.5 -53.5t-48 -78.5t-41 -95.5
l-51 -180q14 -34 31.5 -47t41.5 -13z" />
    <glyph glyph-name="ydieresis" unicode="&#xff;" horiz-adv-x="481" 
d="M212 627q-23 0 -36.5 14.5t-13.5 36.5q0 23 20 44t47 21q21 0 35.5 -14.5t14.5 -35.5q0 -25 -20 -45.5t-47 -20.5zM441 743q21 0 35.5 -14.5t14.5 -35.5q0 -25 -20 -45.5t-47 -20.5q-23 0 -36.5 14.5t-13.5 36.5q0 23 20 44t47 21zM406 528q52 0 52 -81q0 -51 -17.5 -110
t-45.5 -118t-63 -115t-71 -101q-12 -15 -31 -36.5t-43.5 -44.5t-55.5 -45.5t-67 -39.5q-30 -14 -51.5 -19.5t-35.5 -5.5q-20 0 -35 10.5t-15 30.5q0 22 16.5 33.5t37.5 11.5q23 0 43.5 -12t39.5 -27q34 18 71.5 46.5t78.5 73.5l-74 448q-5 31 -12 43t-20 12q-11 0 -25 -17.5
t-34 -74.5l-13 -37h-19l25 73q21 61 52 81.5t63 20.5q31 0 47.5 -19t24.5 -73l51 -376q52 72 93 155.5t58 169.5q-12 6 -26 15.5t-25.5 21.5t-18.5 27t-6 32q2 23 16 35t35 12z" />
    <glyph glyph-name="Amacron" unicode="&#x100;" horiz-adv-x="629" 
d="M638 844l-6 -25h-352l6 25h352zM504 84q3 -36 18.5 -49.5t30.5 -14.5l-4 -20q-20 2 -50 2.5t-59 0.5q-36 0 -68 -0.5t-52 -2.5l4 20q24 1 41 5t27.5 13t14.5 25t3 41l-9 164h-246l-75 -106q-28 -39 -39 -66t-6.5 -43.5t23 -24t49.5 -8.5l-5 -20q-28 2 -58 2.5t-56 0.5
t-42.5 -0.5t-32.5 -2.5l5 20q20 5 44.5 24t55.5 63l431 606h15zM400 288l-17 303l-214 -303h231z" />
    <glyph glyph-name="amacron" unicode="&#x101;" horiz-adv-x="523" 
d="M531 712l-6 -25h-312l6 25h312zM351 86q-2 -7 -4.5 -17.5t-2.5 -20.5t4.5 -17t17.5 -7q20 0 39 22t38 80l12 37h19l-25 -73q-22 -60 -54 -82t-61 -22q-39 0 -55 26q-14 23 -7.5 53t14.5 62l18 72q-49 -115 -99 -164t-102 -49q-48 0 -71 33.5t-23 87.5q0 40 11.5 86.5
t31.5 93.5t48 90.5t60.5 77t69 53.5t74.5 20q26 0 43.5 -19.5t20.5 -56.5l16 62q24 1 48 4t44 10zM132 18q21 0 49 25t56.5 67.5t54.5 99t45 118.5l18 71q5 50 -9.5 80t-44.5 30q-33 0 -69 -40t-66 -101t-49.5 -134t-19.5 -139q0 -43 9 -60t26 -17z" />
    <glyph glyph-name="Abreve" unicode="&#x102;" horiz-adv-x="629" 
d="M614 895q-13 -19 -25.5 -38t-28 -33.5t-36 -23.5t-49.5 -9q-28 0 -44 9t-24 23.5t-11.5 33.5t-6.5 38l26 12q5 -14 8.5 -25t10 -18.5t19.5 -11.5t36 -4q24 0 38.5 4t25 11.5t20 18.5t21.5 25zM504 84q3 -36 18.5 -49.5t30.5 -14.5l-4 -20q-20 2 -50 2.5t-59 0.5
q-36 0 -68 -0.5t-52 -2.5l4 20q24 1 41 5t27.5 13t14.5 25t3 41l-9 164h-246l-75 -106q-28 -39 -39 -66t-6.5 -43.5t23 -24t49.5 -8.5l-5 -20q-28 2 -58 2.5t-56 0.5t-42.5 -0.5t-32.5 -2.5l5 20q20 5 44.5 24t55.5 63l431 606h15zM400 288l-17 303l-214 -303h231z" />
    <glyph glyph-name="abreve" unicode="&#x103;" horiz-adv-x="523" 
d="M354 597q-28 0 -44 9t-24 23.5t-11.5 33.5t-6.5 38l26 12q5 -14 8.5 -25t10 -18.5t19.5 -11.5t36 -4q24 0 38.5 4t25 11.5t20 18.5t21.5 25l20 -12q-13 -19 -25.5 -38t-28 -33.5t-36 -23.5t-49.5 -9zM351 86q-2 -7 -4.5 -17.5t-2.5 -20.5t4.5 -17t17.5 -7q20 0 39 22
t38 80l12 37h19l-25 -73q-22 -60 -54 -82t-61 -22q-39 0 -55 26q-14 23 -7.5 53t14.5 62l18 72q-49 -115 -99 -164t-102 -49q-48 0 -71 33.5t-23 87.5q0 40 11.5 86.5t31.5 93.5t48 90.5t60.5 77t69 53.5t74.5 20q26 0 43.5 -19.5t20.5 -56.5l16 62q24 1 48 4t44 10zM132 18
q21 0 49 25t56.5 67.5t54.5 99t45 118.5l18 71q5 50 -9.5 80t-44.5 30q-33 0 -69 -40t-66 -101t-49.5 -134t-19.5 -139q0 -43 9 -60t26 -17z" />
    <glyph glyph-name="Aogonek" unicode="&#x104;" horiz-adv-x="629" 
d="M557 -131q-32 -30 -64.5 -43.5t-64.5 -13.5q-37 0 -55.5 16t-18.5 42q0 25 15 45.5t38 37t49.5 29t50.5 20.5q-16 1 -33 1h-34q-36 0 -68 -0.5t-52 -2.5l4 20q24 1 41 5t27.5 13t14.5 25t3 41l-9 164h-246l-75 -106q-28 -39 -39 -66t-6.5 -43.5t23 -24t49.5 -8.5l-5 -20
q-28 2 -58 2.5t-56 0.5t-42.5 -0.5t-32.5 -2.5l5 20q20 5 44.5 24t55.5 63l431 606h15l40 -629q3 -36 18.5 -49.5t30.5 -14.5l-4 -20q-6 0 -9 1q-19 -6 -38.5 -15.5t-35.5 -22.5t-26 -29.5t-10 -36.5q0 -37 39 -37q20 0 42 8t35 18zM400 288l-17 303l-214 -303h231z" />
    <glyph glyph-name="aogonek" unicode="&#x105;" horiz-adv-x="523" 
d="M455 163h19l-25 -73q-20 -56 -49 -78.5t-56 -25.5q-29 -14 -51.5 -36t-22.5 -52q0 -38 38 -38q19 0 38 8.5t30 22.5l12 -11q-29 -35 -59.5 -51.5t-62.5 -16.5q-35 0 -53.5 16.5t-18.5 42.5q0 20 10.5 37.5t27.5 32.5t38.5 27t42.5 21q-23 6 -34 23q-14 23 -7.5 53
t14.5 62l18 72q-49 -115 -99 -164t-102 -49q-48 0 -71 33.5t-23 87.5q0 40 11.5 86.5t31.5 93.5t48 90.5t60.5 77t69 53.5t74.5 20q26 0 43.5 -19.5t20.5 -56.5l16 62q24 1 48 4t44 10l-125 -442q-2 -7 -4.5 -17.5t-2.5 -20.5t4.5 -17t17.5 -7q20 0 39 22t38 80zM132 18
q21 0 49 25t56.5 67.5t54.5 99t45 118.5l18 71q5 50 -9.5 80t-44.5 30q-33 0 -69 -40t-66 -101t-49.5 -134t-19.5 -139q0 -43 9 -60t26 -17z" />
    <glyph glyph-name="Cacute" unicode="&#x106;" horiz-adv-x="670" 
d="M633 938q10 -11 6.5 -25.5t-19.5 -30.5q-12 -11 -26.5 -21.5t-33 -24t-41.5 -30.5t-52 -42l-13 14q25 29 43 51t31.5 39.5t24.5 31.5t23 26q16 14 31 17.5t26 -5.5zM712 708q-15 -39 -31 -94t-33 -136h-22q8 52 5.5 87t-15.5 61q-19 38 -54 58t-77 20q-43 0 -84.5 -22
t-79 -59.5t-68.5 -87t-54 -105.5t-35.5 -115t-12.5 -115q0 -99 38.5 -147.5t104.5 -48.5q42 0 91 20t87 58q27 27 46.5 63t43.5 95h22q-25 -91 -38.5 -146.5t-20.5 -93.5h-22q3 21 3 34q0 23 -8 25.5t-25 -8.5q-21 -13 -40.5 -25t-41.5 -21t-48 -14t-59 -5q-111 0 -172 59
t-61 176q0 85 32.5 174t91 161.5t138.5 119t174 46.5q32 0 55 -5.5t40 -14.5t29.5 -21t24.5 -24q14 -14 26 -4t29 55h21z" />
    <glyph glyph-name="cacute" unicode="&#x107;" horiz-adv-x="432" 
d="M452 744q10 -11 6.5 -25.5t-19.5 -30.5q-12 -11 -26.5 -21.5t-33 -24t-41.5 -30.5t-52 -42l-13 14q25 29 43 51t31.5 39.5t24.5 31.5t23 26q16 14 31 17.5t26 -5.5zM323 508q-38 0 -76 -31.5t-68 -84.5t-49 -122.5t-19 -145.5q0 -51 19 -73.5t51 -22.5q36 0 74 21.5
t76 78.5l20 -8q-15 -25 -36 -49t-47 -43t-56 -30.5t-62 -11.5q-60 0 -96 36.5t-36 110.5q0 58 21 127t60 128.5t95 99.5t126 40q45 0 76.5 -22.5t31.5 -62.5q0 -14 -5 -28.5t-14 -26t-22 -18.5t-30 -7q-21 0 -31 11.5t-10 27.5q0 29 23 49.5t52 25.5q-10 14 -26 22.5
t-42 8.5z" />
    <glyph glyph-name="Ccircumflex" unicode="&#x108;" horiz-adv-x="670" 
d="M557 931q5 -41 31 -76.5t65 -55.5l-16 -21q-37 14 -71 34t-54 40q-26 -20 -61.5 -40.5t-71.5 -34.5l-6 22q50 20 93.5 55.5t68.5 76.5h22zM712 708q-15 -39 -31 -94t-33 -136h-22q8 52 5.5 87t-15.5 61q-19 38 -54 58t-77 20q-43 0 -84.5 -22t-79 -59.5t-68.5 -87
t-54 -105.5t-35.5 -115t-12.5 -115q0 -99 38.5 -147.5t104.5 -48.5q42 0 91 20t87 58q27 27 46.5 63t43.5 95h22q-25 -91 -38.5 -146.5t-20.5 -93.5h-22q3 21 3 34q0 23 -8 25.5t-25 -8.5q-21 -13 -40.5 -25t-41.5 -21t-48 -14t-59 -5q-111 0 -172 59t-61 176q0 85 32.5 174
t91 161.5t138.5 119t174 46.5q32 0 55 -5.5t40 -14.5t29.5 -21t24.5 -24q14 -14 26 -4t29 55h21z" />
    <glyph glyph-name="ccircumflex" unicode="&#x109;" horiz-adv-x="432" 
d="M376 737q5 -41 31 -76.5t65 -55.5l-16 -21q-37 14 -71 34t-54 40q-26 -20 -61.5 -40.5t-71.5 -34.5l-6 22q50 20 93.5 55.5t68.5 76.5h22zM323 508q-38 0 -76 -31.5t-68 -84.5t-49 -122.5t-19 -145.5q0 -51 19 -73.5t51 -22.5q36 0 74 21.5t76 78.5l20 -8
q-15 -25 -36 -49t-47 -43t-56 -30.5t-62 -11.5q-60 0 -96 36.5t-36 110.5q0 58 21 127t60 128.5t95 99.5t126 40q45 0 76.5 -22.5t31.5 -62.5q0 -14 -5 -28.5t-14 -26t-22 -18.5t-30 -7q-21 0 -31 11.5t-10 27.5q0 29 23 49.5t52 25.5q-10 14 -26 22.5t-42 8.5z" />
    <glyph glyph-name="Cdotaccent" unicode="&#x10a;" horiz-adv-x="670" 
d="M465 825q0 13 5.5 26.5t15.5 24t23.5 17.5t29.5 7q23 0 37 -15t14 -38q0 -13 -6 -26.5t-16 -24.5t-23.5 -17.5t-29.5 -6.5q-23 0 -36.5 15t-13.5 38zM712 708q-15 -39 -31 -94t-33 -136h-22q8 52 5.5 87t-15.5 61q-19 38 -54 58t-77 20q-43 0 -84.5 -22t-79 -59.5
t-68.5 -87t-54 -105.5t-35.5 -115t-12.5 -115q0 -99 38.5 -147.5t104.5 -48.5q42 0 91 20t87 58q27 27 46.5 63t43.5 95h22q-25 -91 -38.5 -146.5t-20.5 -93.5h-22q3 21 3 34q0 23 -8 25.5t-25 -8.5q-21 -13 -40.5 -25t-41.5 -21t-48 -14t-59 -5q-111 0 -172 59t-61 176
q0 85 32.5 174t91 161.5t138.5 119t174 46.5q32 0 55 -5.5t40 -14.5t29.5 -21t24.5 -24q14 -14 26 -4t29 55h21z" />
    <glyph glyph-name="cdotaccent" unicode="&#x10b;" horiz-adv-x="432" 
d="M288 688q0 13 5.5 26.5t15.5 25t23.5 18.5t29.5 7q23 0 37 -14.5t14 -36.5q0 -13 -5.5 -27t-15.5 -25t-24 -18t-30 -7q-23 0 -36.5 14.5t-13.5 36.5zM323 508q-38 0 -76 -31.5t-68 -84.5t-49 -122.5t-19 -145.5q0 -51 19 -73.5t51 -22.5q36 0 74 21.5t76 78.5l20 -8
q-15 -25 -36 -49t-47 -43t-56 -30.5t-62 -11.5q-60 0 -96 36.5t-36 110.5q0 58 21 127t60 128.5t95 99.5t126 40q45 0 76.5 -22.5t31.5 -62.5q0 -14 -5 -28.5t-14 -26t-22 -18.5t-30 -7q-21 0 -31 11.5t-10 27.5q0 29 23 49.5t52 25.5q-10 14 -26 22.5t-42 8.5z" />
    <glyph glyph-name="Ccaron" unicode="&#x10c;" horiz-adv-x="670" 
d="M526 856q39 17 95.5 36.5t110.5 31.5l5 -14q-73 -23 -135 -57.5t-100 -72.5h-18q-26 44 -57 77t-82 53l4 14q34 -6 59 -14t45.5 -16.5t37.5 -18t35 -19.5zM712 708q-15 -39 -31 -94t-33 -136h-22q8 52 5.5 87t-15.5 61q-19 38 -54 58t-77 20q-43 0 -84.5 -22t-79 -59.5
t-68.5 -87t-54 -105.5t-35.5 -115t-12.5 -115q0 -99 38.5 -147.5t104.5 -48.5q42 0 91 20t87 58q27 27 46.5 63t43.5 95h22q-25 -91 -38.5 -146.5t-20.5 -93.5h-22q3 21 3 34q0 23 -8 25.5t-25 -8.5q-21 -13 -40.5 -25t-41.5 -21t-48 -14t-59 -5q-111 0 -172 59t-61 176
q0 85 32.5 174t91 161.5t138.5 119t174 46.5q32 0 55 -5.5t40 -14.5t29.5 -21t24.5 -24q14 -14 26 -4t29 55h21z" />
    <glyph glyph-name="ccaron" unicode="&#x10d;" horiz-adv-x="432" 
d="M368 698q35 27 81 55.5t94 48.5l5 -14q-67 -29 -123.5 -75t-91.5 -97h-18q-11 62 -37.5 102.5t-81.5 69.5l4 14q63 -17 100 -43.5t68 -60.5zM323 508q-38 0 -76 -31.5t-68 -84.5t-49 -122.5t-19 -145.5q0 -51 19 -73.5t51 -22.5q36 0 74 21.5t76 78.5l20 -8
q-15 -25 -36 -49t-47 -43t-56 -30.5t-62 -11.5q-60 0 -96 36.5t-36 110.5q0 58 21 127t60 128.5t95 99.5t126 40q45 0 76.5 -22.5t31.5 -62.5q0 -14 -5 -28.5t-14 -26t-22 -18.5t-30 -7q-21 0 -31 11.5t-10 27.5q0 29 23 49.5t52 25.5q-10 14 -26 22.5t-42 8.5z" />
    <glyph glyph-name="Dcaron" unicode="&#x10e;" horiz-adv-x="725" 
d="M445 856q39 17 95.5 36.5t110.5 31.5l5 -14q-73 -23 -135 -57.5t-100 -72.5h-18q-26 44 -57 77t-82 53l4 14q34 -6 59 -14t45.5 -16.5t37.5 -18t35 -19.5zM704 487q0 -94 -35.5 -181.5t-98.5 -155.5t-150 -109t-190 -41q-11 0 -28.5 0.5t-37 1l-39 1t-35.5 0.5
q-35 0 -67.5 -0.5t-52.5 -2.5l3 20q24 1 40 4.5t27 12.5t18.5 25.5t14.5 43.5l131 496q6 25 8.5 41t-3 26t-20.5 14t-43 5l3 20q21 -2 55 -3t67 0q17 0 37.5 0.5l41 1t39.5 1t33 0.5q143 0 212.5 -56t69.5 -165zM218 18q96 0 169 40.5t122 109t74 158t25 186.5
q0 90 -49.5 134t-164.5 44q-23 0 -38.5 -3.5t-26 -13.5t-18 -26.5t-14.5 -42.5l-131 -500q-6 -22 -8.5 -38.5t2 -27t18 -15.5t40.5 -5z" />
    <glyph glyph-name="dcaron" unicode="&#x10f;" horiz-adv-x="542" 
d="M369 85q-7 -23 -5.5 -42.5t23.5 -19.5q20 0 36.5 22.5t36.5 79.5l12 37h19l-23 -73q-9 -30 -23 -50t-29.5 -32t-32 -16.5t-31.5 -4.5q-60 0 -63 57q-1 16 2.5 36.5t10.5 46.5l14 51q-49 -103 -98 -147t-102 -44q-48 0 -76 32t-28 100q0 60 24.5 131.5t67.5 133.5
t102.5 103.5t128.5 41.5q19 0 36 -12.5t25 -35.5l50 187q9 34 -3 50t-61 16l6 21q55 1 97 11t80 30zM720 784q1 -2 1 -8q0 -39 -34.5 -101.5t-97.5 -138.5l-14 4q34 74 47.5 124t13.5 69t-13 19l3 21q6 0 11 -0.5t10 -0.5q25 0 42 3.5t31 8.5zM145 18q23 0 51 24.5t57 66.5
t55.5 97.5t45.5 116.5l35 131q-7 27 -21.5 39t-31.5 12q-48 0 -90.5 -40t-75 -100t-51 -130t-18.5 -130q0 -87 44 -87z" />
    <glyph glyph-name="Dcroat" unicode="&#x110;" horiz-adv-x="725" 
d="M422 708q143 0 212.5 -56t69.5 -165q0 -94 -35.5 -181.5t-98.5 -155.5t-150 -109t-190 -41q-11 0 -28.5 0.5t-37 1l-39 1t-35.5 0.5q-35 0 -67.5 -0.5t-52.5 -2.5l3 20q24 1 40 4.5t27 12.5t18.5 25.5t14.5 43.5l62 235h-115l6 25h116l62 236q6 25 8.5 41t-3 26t-20.5 14
t-43 5l3 20q21 -2 55 -3t67 0q17 0 37.5 0.5l41 1t39.5 1t33 0.5zM218 18q96 0 169 40.5t122 109t74 158t25 186.5q0 90 -49.5 134t-164.5 44q-23 0 -38.5 -3.5t-26 -13.5t-18 -26.5t-14.5 -42.5l-62 -238h203l-6 -25h-204l-62 -237q-6 -22 -8.5 -38.5t2 -27t18 -15.5
t40.5 -5z" />
    <glyph glyph-name="dcroat" unicode="&#x111;" horiz-adv-x="542" 
d="M369 85q-7 -23 -5.5 -42.5t23.5 -19.5q20 0 36.5 22.5t36.5 79.5l12 37h19l-23 -73q-9 -30 -23 -50t-29.5 -32t-32 -16.5t-31.5 -4.5q-60 0 -63 57q-1 16 2.5 36.5t10.5 46.5l14 51q-49 -103 -98 -147t-102 -44q-48 0 -76 32t-28 100q0 60 24.5 131.5t67.5 133.5
t102.5 103.5t128.5 41.5q19 0 36 -12.5t25 -35.5l34 128h-164l6 20h164l10 39q9 34 -3 50t-61 16l6 21q55 1 97 11t80 30l-46 -167h97l-6 -20h-97zM145 18q23 0 51 24.5t57 66.5t55.5 97.5t45.5 116.5l35 131q-7 27 -21.5 39t-31.5 12q-48 0 -90.5 -40t-75 -100t-51 -130
t-18.5 -130q0 -87 44 -87z" />
    <glyph glyph-name="Emacron" unicode="&#x112;" horiz-adv-x="610" 
d="M597 819h-352l6 25h352zM443 705q44 0 99 0.5t100 2.5q-13 -35 -23 -68t-15 -50q-5 -18 -8.5 -34.5t-5.5 -27.5h-23q7 44 8.5 74t-7.5 48.5t-31 26.5t-62 8h-73q-25 0 -41.5 -2.5t-28 -11.5t-18.5 -25.5t-15 -43.5l-63 -236h66q33 0 54 14t35 34t22.5 43t16.5 41h23
q-9 -28 -15.5 -49.5t-11 -38t-8 -29.5t-6.5 -25q-7 -25 -14 -55t-18 -87h-23q3 24 6.5 47.5t-1 42.5t-19 30.5t-47.5 11.5h-66l-64 -240q-7 -27 -8.5 -43.5t5 -25.5t22 -11.5t40.5 -2.5h73q47 0 79 9t55 30t41 55t36 83h23q-11 -29 -22 -72q-5 -19 -13 -54.5t-14 -73.5
q-25 1 -55 1.5l-60 1t-59.5 0.5h-54.5h-56.5t-74 -0.5t-81 -1t-77.5 -1.5l5 20q25 1 41.5 4.5t28 12.5t19 25.5t14.5 43.5l133 496q8 27 9 43.5t-5.5 25.5t-21.5 12.5t-40 4.5l5 20q37 -1 78.5 -1.5t81 -1t74 -0.5h56.5z" />
    <glyph glyph-name="emacron" unicode="&#x113;" horiz-adv-x="429" 
d="M506 712l-6 -25h-312l6 25h312zM342 528q31 0 52.5 -16.5t21.5 -49.5q0 -46 -30.5 -84t-75.5 -68t-97 -52.5t-96 -36.5q-11 -50 -11 -97q0 -51 18.5 -73.5t50.5 -22.5q36 0 76 21.5t78 78.5l16 -8q-15 -25 -36 -49t-47 -43t-56 -30.5t-62 -11.5q-61 0 -96.5 35.5
t-35.5 105.5q0 36 11.5 80t32 88.5t50 86.5t66.5 74.5t80 52t90 19.5zM258 304q36 29 57 69.5t21 90.5q0 29 -4 37t-12 8q-25 0 -53.5 -22t-56 -59t-51 -85.5t-37.5 -102.5q44 15 78.5 31t57.5 33z" />
    <glyph glyph-name="Ebreve" unicode="&#x114;" horiz-adv-x="610" 
d="M440 791q-28 0 -44 9t-24 23.5t-11.5 33.5t-6.5 38l26 12q5 -14 8.5 -25t10 -18.5t19.5 -11.5t36 -4q24 0 38.5 4t25 11.5t20 18.5t21.5 25l20 -12q-13 -19 -25.5 -38t-28 -33.5t-36 -23.5t-49.5 -9zM443 705q44 0 99 0.5t100 2.5q-13 -35 -23 -68t-15 -50
q-5 -18 -8.5 -34.5t-5.5 -27.5h-23q7 44 8.5 74t-7.5 48.5t-31 26.5t-62 8h-73q-25 0 -41.5 -2.5t-28 -11.5t-18.5 -25.5t-15 -43.5l-63 -236h66q33 0 54 14t35 34t22.5 43t16.5 41h23q-9 -28 -15.5 -49.5t-11 -38t-8 -29.5t-6.5 -25q-7 -25 -14 -55t-18 -87h-23
q3 24 6.5 47.5t-1 42.5t-19 30.5t-47.5 11.5h-66l-64 -240q-7 -27 -8.5 -43.5t5 -25.5t22 -11.5t40.5 -2.5h73q47 0 79 9t55 30t41 55t36 83h23q-11 -29 -22 -72q-5 -19 -13 -54.5t-14 -73.5q-25 1 -55 1.5l-60 1t-59.5 0.5h-54.5h-56.5t-74 -0.5t-81 -1t-77.5 -1.5l5 20
q25 1 41.5 4.5t28 12.5t19 25.5t14.5 43.5l133 496q8 27 9 43.5t-5.5 25.5t-21.5 12.5t-40 4.5l5 20q37 -1 78.5 -1.5t81 -1t74 -0.5h56.5z" />
    <glyph glyph-name="ebreve" unicode="&#x115;" horiz-adv-x="429" 
d="M468 701q-13 -19 -25.5 -38t-28 -33.5t-36 -23.5t-49.5 -9q-28 0 -44 9t-24 23.5t-11.5 33.5t-6.5 38l26 12q5 -14 8.5 -25t10 -18.5t19.5 -11.5t36 -4q24 0 38.5 4t25 11.5t20 18.5t21.5 25zM342 528q31 0 52.5 -16.5t21.5 -49.5q0 -46 -30.5 -84t-75.5 -68t-97 -52.5
t-96 -36.5q-11 -50 -11 -97q0 -51 18.5 -73.5t50.5 -22.5q36 0 76 21.5t78 78.5l16 -8q-15 -25 -36 -49t-47 -43t-56 -30.5t-62 -11.5q-61 0 -96.5 35.5t-35.5 105.5q0 36 11.5 80t32 88.5t50 86.5t66.5 74.5t80 52t90 19.5zM258 304q36 29 57 69.5t21 90.5q0 29 -4 37
t-12 8q-25 0 -53.5 -22t-56 -59t-51 -85.5t-37.5 -102.5q44 15 78.5 31t57.5 33z" />
    <glyph glyph-name="Edotaccent" unicode="&#x116;" horiz-adv-x="610" 
d="M444 772q-23 0 -36.5 15t-13.5 38q0 13 5.5 26.5t15.5 24t23.5 17.5t29.5 7q23 0 37 -15t14 -38q0 -13 -6 -26.5t-16 -24.5t-23.5 -17.5t-29.5 -6.5zM443 705q44 0 99 0.5t100 2.5q-13 -35 -23 -68t-15 -50q-5 -18 -8.5 -34.5t-5.5 -27.5h-23q7 44 8.5 74t-7.5 48.5
t-31 26.5t-62 8h-73q-25 0 -41.5 -2.5t-28 -11.5t-18.5 -25.5t-15 -43.5l-63 -236h66q33 0 54 14t35 34t22.5 43t16.5 41h23q-9 -28 -15.5 -49.5t-11 -38t-8 -29.5t-6.5 -25q-7 -25 -14 -55t-18 -87h-23q3 24 6.5 47.5t-1 42.5t-19 30.5t-47.5 11.5h-66l-64 -240
q-7 -27 -8.5 -43.5t5 -25.5t22 -11.5t40.5 -2.5h73q47 0 79 9t55 30t41 55t36 83h23q-11 -29 -22 -72q-5 -19 -13 -54.5t-14 -73.5q-25 1 -55 1.5l-60 1t-59.5 0.5h-54.5h-56.5t-74 -0.5t-81 -1t-77.5 -1.5l5 20q25 1 41.5 4.5t28 12.5t19 25.5t14.5 43.5l133 496
q8 27 9 43.5t-5.5 25.5t-21.5 12.5t-40 4.5l5 20q37 -1 78.5 -1.5t81 -1t74 -0.5h56.5z" />
    <glyph glyph-name="edotaccent" unicode="&#x117;" horiz-adv-x="429" 
d="M337 637q-23 0 -36.5 14.5t-13.5 36.5q0 13 5.5 26.5t15.5 25t23.5 18.5t29.5 7q23 0 37 -14.5t14 -36.5q0 -13 -5.5 -27t-15.5 -25t-24 -18t-30 -7zM416 462q0 -46 -30.5 -84t-75.5 -68t-97 -52.5t-96 -36.5q-11 -50 -11 -97q0 -51 18.5 -73.5t50.5 -22.5q36 0 76 21.5
t78 78.5l16 -8q-15 -25 -36 -49t-47 -43t-56 -30.5t-62 -11.5q-61 0 -96.5 35.5t-35.5 105.5q0 36 11.5 80t32 88.5t50 86.5t66.5 74.5t80 52t90 19.5q31 0 52.5 -16.5t21.5 -49.5zM320 509q-25 0 -53.5 -22t-56 -59t-51 -85.5t-37.5 -102.5q44 15 78.5 31t57.5 33
q36 29 57 69.5t21 90.5q0 29 -4 37t-12 8z" />
    <glyph glyph-name="Eogonek" unicode="&#x118;" horiz-adv-x="610" 
d="M443 705q44 0 99 0.5t100 2.5q-13 -35 -23 -68t-15 -50q-5 -18 -8.5 -34.5t-5.5 -27.5h-23q7 44 8.5 74t-7.5 48.5t-31 26.5t-62 8h-73q-25 0 -41.5 -2.5t-28 -11.5t-18.5 -25.5t-15 -43.5l-63 -236h66q33 0 54 14t35 34t22.5 43t16.5 41h23q-9 -28 -15.5 -49.5t-11 -38
t-8 -29.5t-6.5 -25q-7 -25 -14 -55t-18 -87h-23q3 24 6.5 47.5t-1 42.5t-19 30.5t-47.5 11.5h-66l-64 -240q-7 -27 -8.5 -43.5t5 -25.5t22 -11.5t40.5 -2.5h73q47 0 79 9t55 30t41 55t36 83h23q-11 -29 -22 -72q-5 -19 -13 -54.5t-14 -73.5q-8 0 -12 1q-19 -6 -38.5 -15.5
t-35.5 -22.5t-26 -29.5t-10 -36.5q0 -37 39 -37q20 0 42 8t35 18l11 -17q-32 -30 -64.5 -43.5t-64.5 -13.5q-37 0 -55.5 16t-18.5 42q0 24 15 45t37.5 37.5t49 29t50.5 20.5q-46 1 -94.5 1h-88.5h-56.5t-74 -0.5t-81 -1t-77.5 -1.5l5 20q25 1 41.5 4.5t28 12.5t19 25.5
t14.5 43.5l133 496q8 27 9 43.5t-5.5 25.5t-21.5 12.5t-40 4.5l5 20q37 -1 78.5 -1.5t81 -1t74 -0.5h56.5z" />
    <glyph glyph-name="eogonek" unicode="&#x119;" horiz-adv-x="429" 
d="M416 462q0 -46 -30.5 -84t-75.5 -68t-97 -52.5t-96 -36.5q-11 -50 -11 -97q0 -51 18.5 -73.5t50.5 -22.5q36 0 76 21.5t78 78.5l16 -8q-25 -43 -68 -80.5t-95 -49.5q-31 -14 -56.5 -37t-25.5 -55q0 -38 38 -38q19 0 38 8.5t30 22.5l12 -11q-29 -35 -59.5 -51.5
t-62.5 -16.5q-35 0 -53.5 16.5t-18.5 42.5q0 19 10 36.5t26 31.5t36 26t41 21q-58 2 -91.5 37.5t-33.5 103.5q0 36 11.5 80t32 88.5t50 86.5t66.5 74.5t80 52t90 19.5q31 0 52.5 -16.5t21.5 -49.5zM320 509q-25 0 -53.5 -22t-56 -59t-51 -85.5t-37.5 -102.5q44 15 78.5 31
t57.5 33q36 29 57 69.5t21 90.5q0 29 -4 37t-12 8z" />
    <glyph glyph-name="Ecaron" unicode="&#x11a;" horiz-adv-x="610" 
d="M413 780q-26 44 -57 77t-82 53l4 14q34 -6 59 -14t45.5 -16.5t37.5 -18t35 -19.5q39 17 95.5 36.5t110.5 31.5l5 -14q-73 -23 -135 -57.5t-100 -72.5h-18zM153 708q37 -1 78.5 -1.5t81 -1t74 -0.5h56.5q44 0 99 0.5t100 2.5q-13 -35 -23 -68t-15 -50q-5 -18 -8.5 -34.5
t-5.5 -27.5h-23q7 44 8.5 74t-7.5 48.5t-31 26.5t-62 8h-73q-25 0 -41.5 -2.5t-28 -11.5t-18.5 -25.5t-15 -43.5l-63 -236h66q33 0 54 14t35 34t22.5 43t16.5 41h23q-9 -28 -15.5 -49.5t-11 -38t-8 -29.5t-6.5 -25q-7 -25 -14 -55t-18 -87h-23q3 24 6.5 47.5t-1 42.5
t-19 30.5t-47.5 11.5h-66l-64 -240q-7 -27 -8.5 -43.5t5 -25.5t22 -11.5t40.5 -2.5h73q47 0 79 9t55 30t41 55t36 83h23q-11 -29 -22 -72q-5 -19 -13 -54.5t-14 -73.5q-25 1 -55 1.5l-60 1t-59.5 0.5h-54.5h-56.5t-74 -0.5t-81 -1t-77.5 -1.5l5 20q25 1 41.5 4.5t28 12.5
t19 25.5t14.5 43.5l133 496q8 27 9 43.5t-5.5 25.5t-21.5 12.5t-40 4.5z" />
    <glyph glyph-name="ecaron" unicode="&#x11b;" horiz-adv-x="429" 
d="M314 616q-11 62 -37.5 102.5t-81.5 69.5l4 14q63 -17 100 -43.5t68 -60.5q35 27 81 55.5t94 48.5l5 -14q-67 -29 -123.5 -75t-91.5 -97h-18zM342 528q31 0 52.5 -16.5t21.5 -49.5q0 -46 -30.5 -84t-75.5 -68t-97 -52.5t-96 -36.5q-11 -50 -11 -97q0 -51 18.5 -73.5
t50.5 -22.5q36 0 76 21.5t78 78.5l16 -8q-15 -25 -36 -49t-47 -43t-56 -30.5t-62 -11.5q-61 0 -96.5 35.5t-35.5 105.5q0 36 11.5 80t32 88.5t50 86.5t66.5 74.5t80 52t90 19.5zM258 304q36 29 57 69.5t21 90.5q0 29 -4 37t-12 8q-25 0 -53.5 -22t-56 -59t-51 -85.5
t-37.5 -102.5q44 15 78.5 31t57.5 33z" />
    <glyph glyph-name="Gcircumflex" unicode="&#x11c;" horiz-adv-x="705" 
d="M554 931q5 -41 31 -76.5t65 -55.5l-16 -21q-37 14 -71 34t-54 40q-26 -20 -61.5 -40.5t-71.5 -34.5l-6 22q50 20 93.5 55.5t68.5 76.5h22zM316 6q36 0 66 10t48 21q22 13 31.5 28.5t14.5 34.5l23 88q8 30 9 48.5t-7.5 28.5t-27 14t-49.5 5l5 20q26 -2 66 -2.5t74 -0.5
q33 0 60 0.5t45 2.5l-5 -20q-17 -1 -28 -4t-18.5 -12t-13.5 -25.5t-14 -44.5l-53 -198h-20q2 9 2.5 19t-0.5 18.5t-4.5 14t-9.5 5.5t-13 -3t-25 -14q-39 -25 -80 -39.5t-90 -14.5q-124 0 -188 59.5t-64 169.5q0 85 31.5 174.5t89.5 163.5t138.5 121.5t178.5 47.5
q33 0 57.5 -5t43.5 -14t34 -20.5t29 -25.5q15 -15 28 -5t29 56h22q-15 -39 -31 -94t-33 -136h-22q2 20 3.5 38.5t1.5 36.5q0 21 -3 39t-11 34q-21 37 -62 57.5t-92 20.5q-55 0 -102 -25.5t-84.5 -68t-66 -97.5t-48 -113t-29 -114.5t-9.5 -103.5q0 -91 42.5 -133.5
t130.5 -42.5z" />
    <glyph glyph-name="gcircumflex" unicode="&#x11d;" horiz-adv-x="449" 
d="M461 620q20 0 31.5 -8t11.5 -27q0 -22 -16.5 -40t-39.5 -18q-28 0 -28 29q0 15 8 29l-13 6q-6 -3 -12 -7q-12 -8 -26.5 -25.5t-27.5 -39.5q35 -11 54.5 -36t19.5 -67q0 -34 -14 -67.5t-40.5 -62t-63 -48t-81.5 -24.5q-22 -12 -43.5 -23t-38 -21.5t-26.5 -20.5t-10 -20
q0 -19 60 -34l73 -19q51 -14 82 -31.5t31 -54.5q0 -27 -18 -59.5t-54.5 -60t-92.5 -46.5t-132 -19q-78 0 -114.5 20.5t-36.5 52.5q0 16 8 33.5t27.5 35.5t52 37t82.5 39q-38 16 -38 52q0 15 5.5 29.5t22.5 31t47.5 35t79.5 42.5q-62 2 -99.5 28t-37.5 81q0 27 12 63
t38.5 67.5t69.5 53.5t106 22q26 0 51 -5q31 50 65 75q1 0 1 1q-27 13 -50.5 28t-39.5 31q-26 -20 -61.5 -40.5t-71.5 -34.5l-6 22q50 20 93.5 55.5t68.5 76.5h22q5 -36 26 -68t53 -54q15 5 30 5zM201 231q42 0 68 22.5t40.5 55.5t19.5 70t5 66q0 27 -12 46t-47 19
q-42 0 -68.5 -29t-41 -66t-19.5 -72t-5 -47q0 -36 16 -50.5t44 -14.5zM90 18q-34 -18 -54.5 -35.5t-31 -33t-13.5 -29.5t-3 -25q0 -37 27 -55t68 -18q34 0 69.5 10t65 27.5t48 41t18.5 51.5q0 14 -15 19t-45 13z" />
    <glyph glyph-name="Gbreve" unicode="&#x11e;" horiz-adv-x="705" 
d="M647 895q-13 -19 -25.5 -38t-28 -33.5t-36 -23.5t-49.5 -9q-28 0 -44 9t-24 23.5t-11.5 33.5t-6.5 38l26 12q5 -14 8.5 -25t10 -18.5t19.5 -11.5t36 -4q24 0 38.5 4t25 11.5t20 18.5t21.5 25zM316 6q36 0 66 10t48 21q22 13 31.5 28.5t14.5 34.5l23 88q8 30 9 48.5
t-7.5 28.5t-27 14t-49.5 5l5 20q26 -2 66 -2.5t74 -0.5q33 0 60 0.5t45 2.5l-5 -20q-17 -1 -28 -4t-18.5 -12t-13.5 -25.5t-14 -44.5l-53 -198h-20q2 9 2.5 19t-0.5 18.5t-4.5 14t-9.5 5.5t-13 -3t-25 -14q-39 -25 -80 -39.5t-90 -14.5q-124 0 -188 59.5t-64 169.5
q0 85 31.5 174.5t89.5 163.5t138.5 121.5t178.5 47.5q33 0 57.5 -5t43.5 -14t34 -20.5t29 -25.5q15 -15 28 -5t29 56h22q-15 -39 -31 -94t-33 -136h-22q2 20 3.5 38.5t1.5 36.5q0 21 -3 39t-11 34q-21 37 -62 57.5t-92 20.5q-55 0 -102 -25.5t-84.5 -68t-66 -97.5t-48 -113
t-29 -114.5t-9.5 -103.5q0 -91 42.5 -133.5t130.5 -42.5z" />
    <glyph glyph-name="gbreve" unicode="&#x11f;" horiz-adv-x="449" 
d="M306 597q-28 0 -44 9t-24 23.5t-11.5 33.5t-6.5 38l26 12q5 -14 8.5 -25t10 -18.5t19.5 -11.5t36 -4q24 0 38.5 4t25 11.5t20 18.5t21.5 25l20 -12q-13 -19 -25.5 -38t-28 -33.5t-36 -23.5t-49.5 -9zM461 620q20 0 31.5 -8t11.5 -27q0 -22 -16.5 -40t-39.5 -18
q-28 0 -28 29q0 20 13 36q-5 5 -14.5 0.5t-15.5 -8.5q-12 -8 -26.5 -25.5t-27.5 -39.5q35 -11 54.5 -36t19.5 -67q0 -34 -14 -67.5t-40.5 -62t-63 -48t-81.5 -24.5q-22 -12 -43.5 -23t-38 -21.5t-26.5 -20.5t-10 -20q0 -19 60 -34l73 -19q51 -14 82 -31.5t31 -54.5
q0 -27 -18 -59.5t-54.5 -60t-92.5 -46.5t-132 -19q-78 0 -114.5 20.5t-36.5 52.5q0 16 8 33.5t27.5 35.5t52 37t82.5 39q-38 16 -38 52q0 15 5.5 29.5t22.5 31t47.5 35t79.5 42.5q-62 2 -99.5 28t-37.5 81q0 27 12 63t38.5 67.5t69.5 53.5t106 22q26 0 51 -5q31 50 65 75
q14 10 30.5 16t34.5 6zM201 231q42 0 68 22.5t40.5 55.5t19.5 70t5 66q0 27 -12 46t-47 19q-42 0 -68.5 -29t-41 -66t-19.5 -72t-5 -47q0 -36 16 -50.5t44 -14.5zM90 18q-34 -18 -54.5 -35.5t-31 -33t-13.5 -29.5t-3 -25q0 -37 27 -55t68 -18q34 0 69.5 10t65 27.5t48 41
t18.5 51.5q0 14 -15 19t-45 13z" />
    <glyph glyph-name="Gdotaccent" unicode="&#x120;" horiz-adv-x="705" 
d="M462 825q0 13 5.5 26.5t15.5 24t23.5 17.5t29.5 7q23 0 37 -15t14 -38q0 -13 -6 -26.5t-16 -24.5t-23.5 -17.5t-29.5 -6.5q-23 0 -36.5 15t-13.5 38zM316 6q36 0 66 10t48 21q22 13 31.5 28.5t14.5 34.5l23 88q8 30 9 48.5t-7.5 28.5t-27 14t-49.5 5l5 20q26 -2 66 -2.5
t74 -0.5q33 0 60 0.5t45 2.5l-5 -20q-17 -1 -28 -4t-18.5 -12t-13.5 -25.5t-14 -44.5l-53 -198h-20q2 9 2.5 19t-0.5 18.5t-4.5 14t-9.5 5.5t-13 -3t-25 -14q-39 -25 -80 -39.5t-90 -14.5q-124 0 -188 59.5t-64 169.5q0 85 31.5 174.5t89.5 163.5t138.5 121.5t178.5 47.5
q33 0 57.5 -5t43.5 -14t34 -20.5t29 -25.5q15 -15 28 -5t29 56h22q-15 -39 -31 -94t-33 -136h-22q2 20 3.5 38.5t1.5 36.5q0 21 -3 39t-11 34q-21 37 -62 57.5t-92 20.5q-55 0 -102 -25.5t-84.5 -68t-66 -97.5t-48 -113t-29 -114.5t-9.5 -103.5q0 -91 42.5 -133.5
t130.5 -42.5z" />
    <glyph glyph-name="gdotaccent" unicode="&#x121;" horiz-adv-x="449" 
d="M314 637q-23 0 -36.5 14.5t-13.5 36.5q0 13 5.5 26.5t15.5 25t23.5 18.5t29.5 7q23 0 37 -14.5t14 -36.5q0 -13 -5.5 -27t-15.5 -25t-24 -18t-30 -7zM461 620q20 0 31.5 -8t11.5 -27q0 -22 -16.5 -40t-39.5 -18q-28 0 -28 29q0 20 13 36q-5 5 -14.5 0.5t-15.5 -8.5
q-12 -8 -26.5 -25.5t-27.5 -39.5q35 -11 54.5 -36t19.5 -67q0 -34 -14 -67.5t-40.5 -62t-63 -48t-81.5 -24.5q-22 -12 -43.5 -23t-38 -21.5t-26.5 -20.5t-10 -20q0 -19 60 -34l73 -19q51 -14 82 -31.5t31 -54.5q0 -27 -18 -59.5t-54.5 -60t-92.5 -46.5t-132 -19
q-78 0 -114.5 20.5t-36.5 52.5q0 16 8 33.5t27.5 35.5t52 37t82.5 39q-38 16 -38 52q0 15 5.5 29.5t22.5 31t47.5 35t79.5 42.5q-62 2 -99.5 28t-37.5 81q0 27 12 63t38.5 67.5t69.5 53.5t106 22q26 0 51 -5q31 50 65 75q14 10 30.5 16t34.5 6zM201 231q42 0 68 22.5
t40.5 55.5t19.5 70t5 66q0 27 -12 46t-47 19q-42 0 -68.5 -29t-41 -66t-19.5 -72t-5 -47q0 -36 16 -50.5t44 -14.5zM90 18q-34 -18 -54.5 -35.5t-31 -33t-13.5 -29.5t-3 -25q0 -37 27 -55t68 -18q34 0 69.5 10t65 27.5t48 41t18.5 51.5q0 14 -15 19t-45 13z" />
    <glyph glyph-name="Gcommaaccent" unicode="&#x122;" horiz-adv-x="705" 
d="M316 6q36 0 66 10t48 21q22 13 31.5 28.5t14.5 34.5l23 88q8 30 9 48.5t-7.5 28.5t-27 14t-49.5 5l5 20q26 -2 66 -2.5t74 -0.5q33 0 60 0.5t45 2.5l-5 -20q-17 -1 -28 -4t-18.5 -12t-13.5 -25.5t-14 -44.5l-53 -198h-20q2 9 2.5 19t-0.5 18.5t-4.5 14t-9.5 5.5t-13 -3
t-25 -14q-39 -25 -80 -39.5t-90 -14.5q-124 0 -188 59.5t-64 169.5q0 85 31.5 174.5t89.5 163.5t138.5 121.5t178.5 47.5q33 0 57.5 -5t43.5 -14t34 -20.5t29 -25.5q15 -15 28 -5t29 56h22q-15 -39 -31 -94t-33 -136h-22q2 20 3.5 38.5t1.5 36.5q0 21 -3 39t-11 34
q-21 37 -62 57.5t-92 20.5q-55 0 -102 -25.5t-84.5 -68t-66 -97.5t-48 -113t-29 -114.5t-9.5 -103.5q0 -91 42.5 -133.5t130.5 -42.5zM293 -69q26 0 40.5 -16.5t14.5 -41.5q0 -16 -4 -32t-14.5 -30.5t-29.5 -28t-50 -23.5l-7 17q12 3 24.5 9t23 14.5t18 18.5t8.5 22
q-8 -7 -19.5 -11.5t-24.5 -4.5q-20 0 -32.5 11t-12.5 31q0 22 16.5 43.5t48.5 21.5z" />
    <glyph glyph-name="gcommaaccent" unicode="&#x123;" horiz-adv-x="449" 
d="M303 583q-26 0 -40.5 16.5t-14.5 41.5q0 16 4 32t14.5 30.5t29.5 28t50 23.5l7 -17q-12 -3 -24.5 -9t-23 -14.5t-18 -18.5t-8.5 -22q8 7 19.5 11.5t24.5 4.5q20 0 32.5 -11t12.5 -31q0 -22 -16.5 -43.5t-48.5 -21.5zM461 620q20 0 31.5 -8t11.5 -27q0 -22 -16.5 -40
t-39.5 -18q-28 0 -28 29q0 20 13 36q-5 5 -14.5 0.5t-15.5 -8.5q-12 -8 -26.5 -25.5t-27.5 -39.5q35 -11 54.5 -36t19.5 -67q0 -34 -14 -67.5t-40.5 -62t-63 -48t-81.5 -24.5q-22 -12 -43.5 -23t-38 -21.5t-26.5 -20.5t-10 -20q0 -19 60 -34l73 -19q51 -14 82 -31.5
t31 -54.5q0 -27 -18 -59.5t-54.5 -60t-92.5 -46.5t-132 -19q-78 0 -114.5 20.5t-36.5 52.5q0 16 8 33.5t27.5 35.5t52 37t82.5 39q-38 16 -38 52q0 15 5.5 29.5t22.5 31t47.5 35t79.5 42.5q-62 2 -99.5 28t-37.5 81q0 27 12 63t38.5 67.5t69.5 53.5t106 22q26 0 51 -5
q31 50 65 75q14 10 30.5 16t34.5 6zM201 231q42 0 68 22.5t40.5 55.5t19.5 70t5 66q0 27 -12 46t-47 19q-42 0 -68.5 -29t-41 -66t-19.5 -72t-5 -47q0 -36 16 -50.5t44 -14.5zM90 18q-34 -18 -54.5 -35.5t-31 -33t-13.5 -29.5t-3 -25q0 -37 27 -55t68 -18q34 0 69.5 10
t65 27.5t48 41t18.5 51.5q0 14 -15 19t-45 13z" />
    <glyph glyph-name="Hcircumflex" unicode="&#x124;" horiz-adv-x="755" 
d="M508 852q-26 -20 -61.5 -40.5t-71.5 -34.5l-6 22q50 20 93.5 55.5t68.5 76.5h22q5 -41 31 -76.5t65 -55.5l-16 -21q-37 14 -71 34t-54 40zM691 705q39 0 73 0.5t56 2.5l-5 -20q-26 -1 -42.5 -4.5t-27.5 -12.5t-18.5 -25.5t-14.5 -43.5l-132 -496q-7 -27 -8.5 -43.5
t5 -25.5t22 -12.5t40.5 -4.5l-4 -20q-21 2 -55 2.5t-73 0.5q-35 0 -69.5 -0.5t-57.5 -2.5l4 20q26 1 42.5 4.5t27.5 12.5t18.5 25.5t14.5 43.5l64 240h-321l-64 -240q-7 -27 -8.5 -43.5t5 -25.5t22 -12.5t40.5 -4.5l-4 -20q-23 2 -57.5 2.5t-69.5 0.5q-39 0 -72 -0.5
t-55 -2.5l5 20q25 1 41 4.5t27 12.5t18.5 25.5t14.5 43.5l132 496q7 27 8 43.5t-5.5 25.5t-21.5 12.5t-40 4.5l5 20q20 -2 54 -2.5t73 -0.5q35 0 69.5 0.5t58.5 2.5l-5 -20q-26 -1 -42.5 -4.5t-27.5 -12.5t-18.5 -25.5t-14.5 -43.5l-63 -236h321l63 236q8 27 9 43.5t-6 25.5
t-22 12.5t-40 4.5l5 20q23 -2 57 -2.5t69 -0.5z" />
    <glyph glyph-name="hcircumflex" unicode="&#x125;" horiz-adv-x="536" 
d="M438 1002q5 -41 31 -76.5t65 -55.5l-16 -21q-37 14 -71 34t-54 40q-26 -20 -61.5 -40.5t-71.5 -34.5l-6 22q50 20 93.5 55.5t68.5 76.5h22zM467 162h19l-25 -73q-11 -31 -25.5 -51.5t-30.5 -31.5t-33 -15.5t-32 -4.5q-30 0 -46 10.5t-21.5 29t-1 44.5t14.5 56l95 286
q4 11 7.5 25.5t3 27.5t-7.5 22t-25 9q-28 0 -59 -27t-63.5 -75.5t-63.5 -117t-59 -152.5l-36 -124h-87l198 667q10 34 -2.5 50t-61.5 16l6 21q55 1 98.5 11t81.5 30l-145 -496q56 125 110 177t116 52q35 0 53 -13.5t24 -35t2 -48.5t-13 -54l-97 -292q-8 -26 -7.5 -44
t23.5 -18q19 0 37.5 21t39.5 81z" />
    <glyph glyph-name="Hbar" unicode="&#x126;" horiz-adv-x="755" 
d="M694 533h123l-5 -20h-124l-108 -407q-7 -27 -8.5 -43.5t5 -25.5t22 -12.5t40.5 -4.5l-4 -20q-21 2 -55 2.5t-73 0.5q-35 0 -69.5 -0.5t-57.5 -2.5l4 20q26 1 42.5 4.5t27.5 12.5t18.5 25.5t14.5 43.5l64 240h-321l-64 -240q-7 -27 -8.5 -43.5t5 -25.5t22 -12.5t40.5 -4.5
l-4 -20q-23 2 -57.5 2.5t-69.5 0.5q-39 0 -72 -0.5t-55 -2.5l5 20q25 1 41 4.5t27 12.5t18.5 25.5t14.5 43.5l108 407h-122l5 20h123l18 69q7 27 8 43.5t-5.5 25.5t-21.5 12.5t-40 4.5l5 20q20 -2 54 -2.5t73 -0.5q35 0 69.5 0.5t58.5 2.5l-5 -20q-26 -1 -42.5 -4.5
t-27.5 -12.5t-18.5 -25.5t-14.5 -43.5l-18 -69h321l18 69q8 27 9 43.5t-6 25.5t-22 12.5t-40 4.5l5 20q23 -2 57 -2.5t69 -0.5q39 0 73 0.5t56 2.5l-5 -20q-26 -1 -42.5 -4.5t-27.5 -12.5t-18.5 -25.5t-14.5 -43.5zM595 513h-321l-39 -147h321z" />
    <glyph glyph-name="hbar" unicode="&#x127;" horiz-adv-x="536" 
d="M486 162l-25 -73q-11 -31 -25.5 -51.5t-30.5 -31.5t-33 -15.5t-32 -4.5q-30 0 -46 10.5t-21.5 29t-1 44.5t14.5 56l95 286q4 11 7.5 25.5t3 27.5t-7.5 22t-25 9q-28 0 -59 -27t-63.5 -75.5t-63.5 -117t-59 -152.5l-36 -124h-87l180 608h-95l6 20h95l12 39q10 34 -2.5 50
t-61.5 16l6 21q55 1 98.5 11t81.5 30l-49 -167h164l-6 -20h-164l-90 -309q56 125 110 177t116 52q35 0 53 -13.5t24 -35t2 -48.5t-13 -54l-97 -292q-8 -26 -7.5 -44t23.5 -18q19 0 37.5 21t39.5 81l13 37h19z" />
    <glyph glyph-name="Itilde" unicode="&#x128;" horiz-adv-x="341" 
d="M291 904q22 0 35 -7.5t22.5 -17t19.5 -17t25 -7.5q31 0 66 42l16 -11q-20 -42 -51 -64t-66 -22q-22 0 -35 8t-22.5 17t-19.5 17t-25 8q-31 0 -66 -42l-17 10q21 42 51.5 64t66.5 22zM166 106q-7 -27 -8.5 -43.5t5 -25.5t22 -12.5t40.5 -4.5l-4 -20q-23 2 -57.5 2.5
t-69.5 0.5q-39 0 -72 -0.5t-55 -2.5l5 20q25 1 41 4.5t27 12.5t18.5 25.5t14.5 43.5l132 496q7 27 8 43.5t-5.5 25.5t-21.5 12.5t-40 4.5l5 20q20 -2 54 -2.5t73 -0.5q35 0 69.5 0.5t58.5 2.5l-5 -20q-26 -1 -42.5 -4.5t-27.5 -12.5t-18.5 -25.5t-14.5 -43.5z" />
    <glyph glyph-name="itilde" unicode="&#x129;" horiz-adv-x="302" 
d="M196 710q22 0 35 -7.5t22.5 -17t19.5 -17t25 -7.5q31 0 66 42l16 -11q-20 -42 -51 -64t-66 -22q-22 0 -35 8t-22.5 17t-19.5 17t-25 8q-31 0 -66 -42l-17 10q21 42 51.5 64t66.5 22zM158 429q21 62 -14 62q-23 0 -41 -25t-38 -77l-14 -37h-19l26 73q11 32 26 52t31.5 31
t34 15.5t32.5 4.5q32 0 47 -13t18.5 -33.5t-2 -45.5t-13.5 -48l-107 -303q-11 -29 -7.5 -45.5t23.5 -16.5t38 22t40 80l14 37h19l-26 -73q-21 -59 -54.5 -81t-68.5 -22q-32 0 -48 12t-20 31.5t1 44.5t15 52z" />
    <glyph glyph-name="Imacron" unicode="&#x12a;" horiz-adv-x="341" 
d="M475 819h-352l6 25h352zM166 106q-7 -27 -8.5 -43.5t5 -25.5t22 -12.5t40.5 -4.5l-4 -20q-23 2 -57.5 2.5t-69.5 0.5q-39 0 -72 -0.5t-55 -2.5l5 20q25 1 41 4.5t27 12.5t18.5 25.5t14.5 43.5l132 496q7 27 8 43.5t-5.5 25.5t-21.5 12.5t-40 4.5l5 20q20 -2 54 -2.5
t73 -0.5q35 0 69.5 0.5t58.5 2.5l-5 -20q-26 -1 -42.5 -4.5t-27.5 -12.5t-18.5 -25.5t-14.5 -43.5z" />
    <glyph glyph-name="imacron" unicode="&#x12b;" horiz-adv-x="302" 
d="M365 687h-265l5 25h265zM158 429q21 62 -14 62q-23 0 -41 -25t-38 -77l-14 -37h-19l26 73q11 32 26 52t31.5 31t34 15.5t32.5 4.5q32 0 47 -13t18.5 -33.5t-2 -45.5t-13.5 -48l-107 -303q-11 -29 -7.5 -45.5t23.5 -16.5t38 22t40 80l14 37h19l-26 -73q-21 -59 -54.5 -81
t-68.5 -22q-32 0 -48 12t-20 31.5t1 44.5t15 52z" />
    <glyph glyph-name="Ibreve" unicode="&#x12c;" horiz-adv-x="341" 
d="M457 895q-13 -19 -25.5 -38t-28 -33.5t-36 -23.5t-49.5 -9q-28 0 -44 9t-24 23.5t-11.5 33.5t-6.5 38l26 12q5 -14 8.5 -25t10 -18.5t19.5 -11.5t36 -4q24 0 38.5 4t25 11.5t20 18.5t21.5 25zM166 106q-7 -27 -8.5 -43.5t5 -25.5t22 -12.5t40.5 -4.5l-4 -20
q-23 2 -57.5 2.5t-69.5 0.5q-39 0 -72 -0.5t-55 -2.5l5 20q25 1 41 4.5t27 12.5t18.5 25.5t14.5 43.5l132 496q7 27 8 43.5t-5.5 25.5t-21.5 12.5t-40 4.5l5 20q20 -2 54 -2.5t73 -0.5q35 0 69.5 0.5t58.5 2.5l-5 -20q-26 -1 -42.5 -4.5t-27.5 -12.5t-18.5 -25.5
t-14.5 -43.5z" />
    <glyph glyph-name="ibreve" unicode="&#x12d;" horiz-adv-x="302" 
d="M362 701q-13 -19 -25.5 -38t-28 -33.5t-36 -23.5t-49.5 -9q-28 0 -44 9t-24 23.5t-11.5 33.5t-6.5 38l26 12q5 -14 8.5 -25t10 -18.5t19.5 -11.5t36 -4q24 0 38.5 4t25 11.5t20 18.5t21.5 25zM158 429q21 62 -14 62q-23 0 -41 -25t-38 -77l-14 -37h-19l26 73q11 32 26 52
t31.5 31t34 15.5t32.5 4.5q32 0 47 -13t18.5 -33.5t-2 -45.5t-13.5 -48l-107 -303q-11 -29 -7.5 -45.5t23.5 -16.5t38 22t40 80l14 37h19l-26 -73q-21 -59 -54.5 -81t-68.5 -22q-32 0 -48 12t-20 31.5t1 44.5t15 52z" />
    <glyph glyph-name="Iogonek" unicode="&#x12e;" horiz-adv-x="341" 
d="M278 705q35 0 69.5 0.5t58.5 2.5l-5 -20q-26 -1 -42.5 -4.5t-27.5 -12.5t-18.5 -25.5t-14.5 -43.5l-132 -496q-7 -27 -8.5 -43.5t5 -25.5t22 -12.5t40.5 -4.5l-3 -17h9l-10 -3v0q-18 -6 -37.5 -15.5t-35 -22.5t-25.5 -29.5t-10 -35.5q0 -37 39 -37q20 0 42 8t35 18
l11 -17q-32 -30 -64.5 -43.5t-64.5 -13.5q-37 0 -55.5 16t-18.5 42q0 24 15 45t37.5 37.5t49 29t50.5 20.5q-22 1 -46.5 1h-48.5q-39 0 -72 -0.5t-55 -2.5l5 20q25 1 41 4.5t27 12.5t18.5 25.5t14.5 43.5l132 496q7 27 8 43.5t-5.5 25.5t-21.5 12.5t-40 4.5l5 20
q20 -2 54 -2.5t73 -0.5z" />
    <glyph glyph-name="iogonek" unicode="&#x12f;" horiz-adv-x="302" 
d="M262 760q26 0 40.5 -19t9.5 -45t-26.5 -45t-47.5 -19t-40 19t-9 45t26 45t47 19zM233 162h19l-26 -73q-19 -52 -47.5 -75t-59.5 -27q-29 -14 -52 -36.5t-23 -52.5q0 -38 38 -38q19 0 38 8.5t30 22.5l12 -11q-29 -35 -59.5 -51.5t-62.5 -16.5q-35 0 -53.5 16.5t-18.5 42.5
q0 20 10 37t27 31.5t37.5 26.5t41.5 21q-25 4 -36.5 17t-13.5 31.5t3 42t14 48.5l107 303q21 62 -14 62q-23 0 -41 -25t-38 -77l-14 -37h-19l26 73q11 32 26 52t31.5 31t34 15.5t32.5 4.5q32 0 47 -13t18.5 -33.5t-2 -45.5t-13.5 -48l-107 -303q-11 -29 -7.5 -45.5
t23.5 -16.5t38 22t40 80z" />
    <glyph glyph-name="Idotaccent" unicode="&#x130;" horiz-adv-x="341" 
d="M272 825q0 13 5.5 26.5t15.5 24t23.5 17.5t29.5 7q23 0 37 -15t14 -38q0 -13 -6 -26.5t-16 -24.5t-23.5 -17.5t-29.5 -6.5q-23 0 -36.5 15t-13.5 38zM166 106q-7 -27 -8.5 -43.5t5 -25.5t22 -12.5t40.5 -4.5l-4 -20q-23 2 -57.5 2.5t-69.5 0.5q-39 0 -72 -0.5t-55 -2.5
l5 20q25 1 41 4.5t27 12.5t18.5 25.5t14.5 43.5l132 496q7 27 8 43.5t-5.5 25.5t-21.5 12.5t-40 4.5l5 20q20 -2 54 -2.5t73 -0.5q35 0 69.5 0.5t58.5 2.5l-5 -20q-26 -1 -42.5 -4.5t-27.5 -12.5t-18.5 -25.5t-14.5 -43.5z" />
    <glyph glyph-name="dotlessi" unicode="&#x131;" horiz-adv-x="302" 
d="M158 429q21 62 -14 62q-23 0 -41 -25t-38 -77l-14 -37h-19l26 73q11 32 26 52t31.5 31t34 15.5t32.5 4.5q32 0 47 -13t18.5 -33.5t-2 -45.5t-13.5 -48l-107 -303q-11 -29 -7.5 -45.5t23.5 -16.5t38 22t40 80l14 37h19l-26 -73q-21 -59 -54.5 -81t-68.5 -22q-32 0 -48 12
t-20 31.5t1 44.5t15 52z" />
    <glyph glyph-name="Jcircumflex" unicode="&#x134;" horiz-adv-x="636" 
d="M501 852q-26 -20 -61.5 -40.5t-71.5 -34.5l-6 22q50 20 93.5 55.5t68.5 76.5h22q5 -41 31 -76.5t65 -55.5l-16 -21q-37 14 -71 34t-54 40zM737 730q12 -11 -0.5 -27.5t-66.5 -36.5q-75 -50 -125.5 -126.5t-82.5 -173.5h99l-3 -20h-102q-3 -10 -6 -19.5t-5 -19.5l-62 -242
q-13 -51 -34 -97t-50 -80.5t-67 -55t-85 -20.5q-45 0 -73 13.5t-29 41.5q-1 22 14.5 40.5t40.5 18.5q18 0 29.5 -11.5t12.5 -28.5q1 -18 -11 -31.5t-29 -21.5q15 -5 35 -5q41 0 68 27.5t45.5 72t32.5 101.5t29 116l30 117q6 23 13 43.5t15 40.5h-133l3 20h138
q23 50 52.5 91.5t65 76.5t75 66.5t82.5 62.5q-48 -25 -98.5 -42.5t-99.5 -17.5q-36 0 -65.5 9t-57 19.5t-57 19t-66.5 8.5q-34 0 -50.5 -17.5t-14.5 -48.5q1 -30 20 -48t54 -25l-3 -20q-19 3 -38.5 11t-35 21.5t-25.5 34t-11 49.5q-2 54 28.5 88.5t87.5 34.5
q41 0 72.5 -16.5t60.5 -37t59.5 -37t70.5 -16.5q26 0 47.5 3t42 9t42 14.5t45.5 18.5q21 32 41 49t35 4z" />
    <glyph glyph-name="jcircumflex" unicode="&#x135;" horiz-adv-x="276" 
d="M275 737q5 -41 31 -76.5t65 -55.5l-16 -21q-37 14 -71 34t-54 40q-26 -20 -61.5 -40.5t-71.5 -34.5l-6 22q50 20 93.5 55.5t68.5 76.5h22zM-84 -173q38 5 60.5 28t38.5 80l139 494q10 34 6.5 48t-21.5 14q-20 0 -38 -22.5t-38 -79.5l-13 -37h-19l24 73q20 61 53 82t70 21
q32 0 46.5 -12t18.5 -31.5t-0.5 -45t-12.5 -51.5l-77 -273q-32 -113 -79.5 -190.5t-115.5 -102.5q-15 -5 -31.5 -7.5t-27.5 -2.5q-23 0 -35 10.5t-12 28.5q0 22 17.5 41.5t41.5 19.5q16 0 24.5 -8.5t8.5 -22.5t-8.5 -28.5t-19.5 -25.5z" />
    <glyph glyph-name="Kcommaaccent" unicode="&#x136;" horiz-adv-x="675" 
d="M648 722q35 0 48 -17.5t11 -41.5q-1 -9 -4.5 -20t-10.5 -21t-17.5 -16.5t-25.5 -6.5q-23 0 -31.5 13.5t-7.5 29.5q1 14 10 30.5t22 28.5h-3q-13 -1 -20.5 -4.5t-15.5 -9.5q-18 -16 -30.5 -45t-24.5 -62.5t-25.5 -68.5t-33.5 -65t-48.5 -51t-70.5 -26q24 -5 43.5 -13
t33.5 -25t21 -47t5 -79l-4 -113q-1 -23 3.5 -37t26.5 -14q26 0 43 18.5t31 59.5l17 51h20l-26 -77q-19 -56 -49 -81.5t-73 -25.5q-48 0 -68 29.5t-16 86.5l7 113q2 35 0.5 59t-6 39.5t-12 26t-18.5 18.5q-52 -13 -70 -8t-18 19t18.5 19t72.5 -9q43 5 72 26t48.5 51t32 65.5
t24.5 69t25.5 62.5t33.5 46q17 14 31.5 18.5t28.5 4.5zM221 0q-23 2 -57.5 2.5t-69.5 0.5q-39 0 -72 -0.5t-55 -2.5l5 20q25 1 41 4.5t27 12.5t18.5 25.5t14.5 43.5l132 496q7 27 8 43.5t-5.5 25.5t-21.5 12.5t-40 4.5l5 20q20 -2 54 -2.5t73 -0.5q35 0 69.5 0.5t58.5 2.5
l-5 -20q-26 -1 -42.5 -4.5t-27.5 -12.5t-18.5 -25.5t-14.5 -43.5l-132 -496q-7 -27 -8.5 -43.5t5 -25.5t22 -12.5t40.5 -4.5zM245 -69q26 0 40.5 -16.5t14.5 -41.5q0 -16 -4 -32t-14.5 -30.5t-29.5 -28t-50 -23.5l-7 17q12 3 24.5 9t23 14.5t18 18.5t8.5 22
q-8 -7 -19.5 -11.5t-24.5 -4.5q-20 0 -32.5 11t-12.5 31q0 22 16.5 43.5t48.5 21.5z" />
    <glyph glyph-name="kcommaaccent" unicode="&#x137;" horiz-adv-x="515" 
d="M432 528q35 0 48 -17.5t11 -41.5q-1 -9 -4.5 -20t-10.5 -21t-17.5 -16.5t-25.5 -6.5q-23 0 -31.5 13.5t-7.5 29.5q1 14 10 30.5t22 28.5h-2q-12 0 -20.5 -4t-16.5 -10q-21 -17 -34.5 -47t-29.5 -61t-40 -57.5t-68 -36.5q31 -1 59.5 -8t49 -22t30 -38.5t2.5 -58.5
l-20 -100q-5 -23 -0.5 -32t20.5 -9q20 0 37 22.5t37 79.5l12 37h19l-24 -73q-19 -60 -51 -81.5t-68 -21.5q-32 0 -52 22t-9 73l18 86q12 56 -11 83.5t-102 34.5l-84 -285h-87l198 667q10 34 -2.5 50t-61.5 16l6 21q55 1 98.5 11t81.5 30l-146 -498q58 5 88 30.5t47.5 58.5
t31.5 66.5t40 52.5q18 14 32 18.5t28 4.5zM153 -69q26 0 40.5 -16.5t14.5 -41.5q0 -16 -4 -32t-14.5 -30.5t-29.5 -28t-50 -23.5l-7 17q12 3 24.5 9t23 14.5t18 18.5t8.5 22q-8 -7 -19.5 -11.5t-24.5 -4.5q-20 0 -32.5 11t-12.5 31q0 22 16.5 43.5t48.5 21.5z" />
    <glyph glyph-name="kgreenlandic" unicode="&#x138;" horiz-adv-x="558" 
d="M463 528q35 0 48 -17.5t11 -41.5q-1 -9 -4.5 -20t-10.5 -21t-17.5 -16.5t-25.5 -6.5q-23 0 -31.5 13.5t-7.5 29.5q1 14 10 30.5t22 28.5h-2q-12 0 -20.5 -4t-16.5 -10q-22 -19 -36 -53.5t-31 -70.5t-42.5 -66t-72.5 -41q31 -1 58.5 -8t48 -22t30 -38.5t4.5 -59.5l-10 -70
q-3 -23 0.5 -32t19.5 -9q20 0 37 22.5t37 79.5l12 37h19l-24 -73q-19 -60 -51 -81.5t-68 -21.5q-32 0 -50.5 20.5t-10.5 74.5l8 56q4 29 1.5 49.5t-14.5 34.5t-35.5 22.5t-62.5 11.5l-64 -255h-87l120 429q18 62 -14 62q-22 0 -40 -23t-38 -79l-13 -37h-19l25 73
q11 32 25.5 52t30.5 31t33 15.5t32 4.5q26 0 39 -10.5t16.5 -29t-0.5 -44t-12 -56.5l-30 -120q40 4 66.5 18.5t44 35.5t29 46.5t22 51t22.5 48t30 37.5q18 14 32 18.5t28 4.5z" />
    <glyph glyph-name="Lacute" unicode="&#x139;" horiz-adv-x="586" 
d="M423 938q10 -11 6.5 -25.5t-19.5 -30.5q-12 -11 -26.5 -21.5t-33 -24t-41.5 -30.5t-52 -42l-13 14q25 29 43 51t31.5 39.5t24.5 31.5t23 26q16 14 31 17.5t26 -5.5zM535 210q-6 -16 -12 -37t-13 -45q-5 -19 -13 -54.5t-14 -73.5q-25 1 -55 1.5l-60 1t-59.5 0.5h-54.5
h-56.5t-74 -0.5t-81 -1t-77.5 -1.5l5 20q25 1 41.5 4.5t28 12.5t19 25.5t14.5 43.5l133 496q8 27 9 43.5t-5.5 25.5t-21.5 12.5t-40 4.5l5 20q21 -2 55 -2.5t73 -0.5q35 0 69.5 0.5t57.5 2.5l-5 -20q-26 -1 -42.5 -4.5t-28 -12.5t-18.5 -25.5t-15 -43.5l-133 -496
q-7 -27 -8.5 -43.5t5 -25.5t22 -11.5t40.5 -2.5h73q47 0 79 9.5t55.5 31.5t42 58t37.5 88h23z" />
    <glyph glyph-name="lacute" unicode="&#x13a;" horiz-adv-x="277" 
d="M401 1003q10 -11 6.5 -25.5t-19.5 -30.5q-12 -11 -26.5 -21.5t-33 -24t-41.5 -30.5t-52 -42l-13 14q25 29 43 51t31.5 39.5t24.5 31.5t23 26q16 14 31 17.5t26 -5.5zM102 85q-8 -29 -5 -45.5t22 -16.5q20 0 37.5 22.5t37.5 79.5l13 37h19l-25 -73q-20 -57 -51 -80
t-69 -23q-33 0 -48 13t-19 33t0.5 45t11.5 49l163 541q10 34 -2 50t-61 16l7 21q55 1 97 11t81 30z" />
    <glyph glyph-name="Lcommaaccent" unicode="&#x13b;" horiz-adv-x="586" 
d="M535 210q-6 -16 -12 -37t-13 -45q-5 -19 -13 -54.5t-14 -73.5q-25 1 -55 1.5l-60 1t-59.5 0.5h-54.5h-56.5t-74 -0.5t-81 -1t-77.5 -1.5l5 20q25 1 41.5 4.5t28 12.5t19 25.5t14.5 43.5l133 496q8 27 9 43.5t-5.5 25.5t-21.5 12.5t-40 4.5l5 20q21 -2 55 -2.5t73 -0.5
q35 0 69.5 0.5t57.5 2.5l-5 -20q-26 -1 -42.5 -4.5t-28 -12.5t-18.5 -25.5t-15 -43.5l-133 -496q-7 -27 -8.5 -43.5t5 -25.5t22 -11.5t40.5 -2.5h73q47 0 79 9.5t55.5 31.5t42 58t37.5 88h23zM241 -69q26 0 40.5 -16.5t14.5 -41.5q0 -16 -4 -32t-14.5 -30.5t-29.5 -28
t-50 -23.5l-7 17q12 3 24.5 9t23 14.5t18 18.5t8.5 22q-8 -7 -19.5 -11.5t-24.5 -4.5q-20 0 -32.5 11t-12.5 31q0 22 16.5 43.5t48.5 21.5z" />
    <glyph glyph-name="lcommaaccent" unicode="&#x13c;" horiz-adv-x="277" 
d="M102 85q-8 -29 -5 -45.5t22 -16.5q20 0 37.5 22.5t37.5 79.5l13 37h19l-25 -73q-20 -57 -51 -80t-69 -23q-33 0 -48 13t-19 33t0.5 45t11.5 49l163 541q10 34 -2 50t-61 16l7 21q55 1 97 11t81 30zM70 -69q26 0 40.5 -16.5t14.5 -41.5q0 -16 -4 -32t-14.5 -30.5
t-29.5 -28t-50 -23.5l-7 17q12 3 24.5 9t23 14.5t18 18.5t8.5 22q-8 -7 -19.5 -11.5t-24.5 -4.5q-20 0 -32.5 11t-12.5 31q0 22 16.5 43.5t48.5 21.5z" />
    <glyph glyph-name="Lcaron" unicode="&#x13d;" horiz-adv-x="586" 
d="M414 485q39 70 55 117.5t16 65.5q0 9 -6.5 14t-26.5 5l3 21q12 0 21.5 -0.5t19.5 -0.5q25 0 42 3.5t31 8.5q1 -2 1 -8q0 -38 -37.5 -97.5t-104.5 -132.5zM535 210q-6 -16 -12 -37t-13 -45q-5 -19 -13 -54.5t-14 -73.5q-25 1 -55 1.5l-60 1t-59.5 0.5h-54.5h-56.5
t-74 -0.5t-81 -1t-77.5 -1.5l5 20q25 1 41.5 4.5t28 12.5t19 25.5t14.5 43.5l133 496q8 27 9 43.5t-5.5 25.5t-21.5 12.5t-40 4.5l5 20q21 -2 55 -2.5t73 -0.5q35 0 69.5 0.5t57.5 2.5l-5 -20q-26 -1 -42.5 -4.5t-28 -12.5t-18.5 -25.5t-15 -43.5l-133 -496
q-7 -27 -8.5 -43.5t5 -25.5t22 -11.5t40.5 -2.5h73q47 0 79 9.5t55.5 31.5t42 58t37.5 88h23z" />
    <glyph glyph-name="lcaron" unicode="&#x13e;" horiz-adv-x="277" 
d="M102 85q-8 -29 -5 -45.5t22 -16.5q20 0 37.5 22.5t37.5 79.5l13 37h19l-25 -73q-20 -57 -51 -80t-69 -23q-33 0 -48 13t-19 33t0.5 45t11.5 49l163 541q10 34 -2 50t-61 16l7 21q55 1 97 11t81 30zM322 540q34 74 47.5 124t13.5 69t-13 19l3 21q6 0 11 -0.5t10 -0.5
q25 0 42 3.5t31 8.5q1 -2 1 -8q0 -39 -34.5 -101.5t-97.5 -138.5z" />
    <glyph glyph-name="Ldot" unicode="&#x13f;" horiz-adv-x="597" 
d="M535 210q-6 -16 -12 -37t-13 -45q-5 -19 -13 -54.5t-14 -73.5q-25 1 -55 1.5l-60 1t-59.5 0.5h-54.5h-56.5t-74 -0.5t-81 -1t-77.5 -1.5l5 20q25 1 41.5 4.5t28 12.5t19 25.5t14.5 43.5l133 496q8 27 9 43.5t-5.5 25.5t-21.5 12.5t-40 4.5l5 20q21 -2 55 -2.5t73 -0.5
q35 0 69.5 0.5t57.5 2.5l-5 -20q-26 -1 -42.5 -4.5t-28 -12.5t-18.5 -25.5t-15 -43.5l-133 -496q-7 -27 -8.5 -43.5t5 -25.5t22 -11.5t40.5 -2.5h73q47 0 79 9.5t55.5 31.5t42 58t37.5 88h23zM459 355q5 26 26 45t47 19t40.5 -19t9.5 -45t-26.5 -45t-47.5 -19t-40 19t-9 45z
" />
    <glyph glyph-name="ldot" unicode="&#x140;" horiz-adv-x="414" 
d="M102 85q-8 -29 -5 -45.5t22 -16.5q20 0 37.5 22.5t37.5 79.5l13 37h19l-25 -73q-20 -57 -51 -80t-69 -23q-33 0 -48 13t-19 33t0.5 45t11.5 49l163 541q10 34 -2 50t-61 16l7 21q55 1 97 11t81 30zM271 295q5 26 26 45t47 19t40.5 -19t9.5 -45t-26.5 -45t-47.5 -19
t-40 19t-9 45z" />
    <glyph glyph-name="Lslash" unicode="&#x141;" horiz-adv-x="587" 
d="M537 210q-6 -16 -12 -37t-13 -45q-5 -19 -13 -54.5t-14 -73.5q-25 1 -55 1.5l-60 1t-59.5 0.5h-54.5h-56.5t-74 -0.5t-81 -1t-77.5 -1.5l5 20q25 1 41.5 4.5t28 12.5t19 25.5t14.5 43.5l42 155l-102 -51l6 23l102 51l85 318q8 27 9 43.5t-5.5 25.5t-21.5 12.5t-40 4.5
l5 20q21 -2 55 -2.5t73 -0.5q35 0 69.5 0.5t57.5 2.5l-5 -20q-26 -1 -42.5 -4.5t-28 -12.5t-18.5 -25.5t-15 -43.5l-74 -274l289 145l-6 -23l-289 -145l-53 -199q-7 -27 -8.5 -43.5t5 -25.5t22 -11.5t40.5 -2.5h73q47 0 79 9.5t55.5 31.5t42 58t37.5 88h23z" />
    <glyph glyph-name="lslash" unicode="&#x142;" horiz-adv-x="308" 
d="M117 85q-8 -29 -5 -45.5t22 -16.5q20 0 37.5 22.5t37.5 79.5l13 37h19l-25 -73q-20 -57 -51 -80t-69 -23q-33 0 -48 13t-19 33t0.5 45t11.5 49l59 196l-100 -67l4 30l106 72l94 310q10 34 -2 50t-61 16l7 21q55 1 97 11t81 30l-115 -390l138 92l-4 -30l-144 -95z" />
    <glyph glyph-name="Nacute" unicode="&#x143;" horiz-adv-x="770" 
d="M647 882q-12 -11 -26.5 -21.5t-33 -24t-41.5 -30.5t-52 -42l-13 14q25 29 43 51t31.5 39.5t24.5 31.5t23 26q16 14 31 17.5t26 -5.5q10 -11 6.5 -25.5t-19.5 -30.5zM812 754q35 0 47.5 -15.5t12.5 -35.5q0 -25 -15 -48.5t-44 -23.5q-23 0 -30.5 13t-7.5 26q0 17 9.5 34
t22.5 29h-3q-28 -1 -47.5 -14.5t-34.5 -36.5q-46 -68 -94 -239t-107 -448h-22l-228 644q-19 -100 -41 -203t-44.5 -192.5t-45.5 -157t-45 -97.5q-18 -24 -42.5 -43.5t-64.5 -19.5q-35 0 -47.5 15.5t-12.5 36.5q0 25 15 48t44 23q23 0 30.5 -13t7.5 -26q0 -17 -9.5 -34
t-22.5 -29h3q27 1 47.5 14.5t35.5 37.5q20 31 40 88t40.5 135t41.5 174t42 206q6 27 6.5 43.5t-7 25.5t-24.5 12.5t-46 4.5l5 20q16 -2 39.5 -2.5t49.5 -0.5q47 0 81 3l189 -553q17 77 36.5 157.5t41 153t44 131.5t46.5 93q19 27 45 45.5t63 18.5z" />
    <glyph glyph-name="nacute" unicode="&#x144;" horiz-adv-x="580" 
d="M475 688q-12 -11 -26.5 -21.5t-33 -24t-41.5 -30.5t-52 -42l-13 14q25 29 43 51t31.5 39.5t24.5 31.5t23 26q16 14 31 17.5t26 -5.5q10 -11 6.5 -25.5t-19.5 -30.5zM530 162l-25 -73q-11 -31 -25.5 -51.5t-30.5 -31.5t-33 -15.5t-32 -4.5q-45 0 -63 29q-11 18 -7 47
t16 64l95 286q3 10 7 24.5t3 27.5t-7.5 22.5t-24.5 9.5q-29 0 -64 -32.5t-70.5 -89t-69 -134t-59.5 -167.5l-18 -73h-87l120 429q3 9 5.5 20t2 20t-5.5 15.5t-17 6.5q-22 0 -39 -21.5t-38 -80.5l-13 -37h-19l25 73q11 32 25 52t29.5 31t32 15.5t32.5 4.5q30 0 43 -13
t15.5 -33.5t-2.5 -45t-11 -48.5l-35 -137q33 77 63.5 130t60.5 85.5t61.5 47t65.5 14.5q35 0 53 -13.5t24 -35t2 -48.5t-13 -54l-97 -292q-9 -27 -7.5 -44.5t23.5 -17.5q19 0 37.5 21t39.5 81l13 37h19z" />
    <glyph glyph-name="Ncommaaccent" unicode="&#x145;" horiz-adv-x="770" 
d="M812 754q35 0 47.5 -15.5t12.5 -35.5q0 -25 -15 -48.5t-44 -23.5q-23 0 -30.5 13t-7.5 26q0 17 9.5 34t22.5 29h-3q-28 -1 -47.5 -14.5t-34.5 -36.5q-46 -68 -94 -239t-107 -448h-22l-228 644q-19 -100 -41 -203t-44.5 -192.5t-45.5 -157t-45 -97.5q-18 -24 -42.5 -43.5
t-64.5 -19.5q-35 0 -47.5 15.5t-12.5 36.5q0 25 15 48t44 23q23 0 30.5 -13t7.5 -26q0 -17 -9.5 -34t-22.5 -29h3q27 1 47.5 14.5t35.5 37.5q20 31 40 88t40.5 135t41.5 174t42 206q6 27 6.5 43.5t-7 25.5t-24.5 12.5t-46 4.5l5 20q16 -2 39.5 -2.5t49.5 -0.5q47 0 81 3
l189 -553q17 77 36.5 157.5t41 153t44 131.5t46.5 93q19 27 45 45.5t63 18.5zM272 -69q26 0 40.5 -16.5t14.5 -41.5q0 -16 -4 -32t-14.5 -30.5t-29.5 -28t-50 -23.5l-7 17q12 3 24.5 9t23 14.5t18 18.5t8.5 22q-8 -7 -19.5 -11.5t-24.5 -4.5q-20 0 -32.5 11t-12.5 31
q0 22 16.5 43.5t48.5 21.5z" />
    <glyph glyph-name="ncommaaccent" unicode="&#x146;" horiz-adv-x="580" 
d="M530 162l-25 -73q-11 -31 -25.5 -51.5t-30.5 -31.5t-33 -15.5t-32 -4.5q-45 0 -63 29q-11 18 -7 47t16 64l95 286q3 10 7 24.5t3 27.5t-7.5 22.5t-24.5 9.5q-29 0 -64 -32.5t-70.5 -89t-69 -134t-59.5 -167.5l-18 -73h-87l120 429q3 9 5.5 20t2 20t-5.5 15.5t-17 6.5
q-22 0 -39 -21.5t-38 -80.5l-13 -37h-19l25 73q11 32 25 52t29.5 31t32 15.5t32.5 4.5q30 0 43 -13t15.5 -33.5t-2.5 -45t-11 -48.5l-35 -137q33 77 63.5 130t60.5 85.5t61.5 47t65.5 14.5q35 0 53 -13.5t24 -35t2 -48.5t-13 -54l-97 -292q-9 -27 -7.5 -44.5t23.5 -17.5
q19 0 37.5 21t39.5 81l13 37h19zM194 -69q26 0 40.5 -16.5t14.5 -41.5q0 -16 -4 -32t-14.5 -30.5t-29.5 -28t-50 -23.5l-7 17q12 3 24.5 9t23 14.5t18 18.5t8.5 22q-8 -7 -19.5 -11.5t-24.5 -4.5q-20 0 -32.5 11t-12.5 31q0 22 16.5 43.5t48.5 21.5z" />
    <glyph glyph-name="Ncaron" unicode="&#x147;" horiz-adv-x="770" 
d="M511 780q-26 44 -57 77t-82 53l4 14q34 -6 59 -14t45.5 -16.5t37.5 -18t35 -19.5q39 17 95.5 36.5t110.5 31.5l5 -14q-73 -23 -135 -57.5t-100 -72.5h-18zM812 754q35 0 47.5 -15.5t12.5 -35.5q0 -25 -15 -48.5t-44 -23.5q-23 0 -30.5 13t-7.5 26q0 17 9.5 34t22.5 29h-3
q-28 -1 -47.5 -14.5t-34.5 -36.5q-46 -68 -94 -239t-107 -448h-22l-228 644q-19 -100 -41 -203t-44.5 -192.5t-45.5 -157t-45 -97.5q-18 -24 -42.5 -43.5t-64.5 -19.5q-35 0 -47.5 15.5t-12.5 36.5q0 25 15 48t44 23q23 0 30.5 -13t7.5 -26q0 -17 -9.5 -34t-22.5 -29h3
q27 1 47.5 14.5t35.5 37.5q20 31 40 88t40.5 135t41.5 174t42 206q6 27 6.5 43.5t-7 25.5t-24.5 12.5t-46 4.5l5 20q16 -2 39.5 -2.5t49.5 -0.5q47 0 81 3l189 -553q17 77 36.5 157.5t41 153t44 131.5t46.5 93q19 27 45 45.5t63 18.5z" />
    <glyph glyph-name="ncaron" unicode="&#x148;" horiz-adv-x="580" 
d="M351 616q-11 62 -37.5 102.5t-81.5 69.5l4 14q63 -17 100 -43.5t68 -60.5q35 27 81 55.5t94 48.5l5 -14q-67 -29 -123.5 -75t-91.5 -97h-18zM511 162h19l-25 -73q-11 -31 -25.5 -51.5t-30.5 -31.5t-33 -15.5t-32 -4.5q-45 0 -63 29q-11 18 -7 47t16 64l95 286
q3 10 7 24.5t3 27.5t-7.5 22.5t-24.5 9.5q-29 0 -64 -32.5t-70.5 -89t-69 -134t-59.5 -167.5l-18 -73h-87l120 429q3 9 5.5 20t2 20t-5.5 15.5t-17 6.5q-22 0 -39 -21.5t-38 -80.5l-13 -37h-19l25 73q11 32 25 52t29.5 31t32 15.5t32.5 4.5q30 0 43 -13t15.5 -33.5t-2.5 -45
t-11 -48.5l-35 -137q33 77 63.5 130t60.5 85.5t61.5 47t65.5 14.5q35 0 53 -13.5t24 -35t2 -48.5t-13 -54l-97 -292q-9 -27 -7.5 -44.5t23.5 -17.5q19 0 37.5 21t39.5 81z" />
    <glyph glyph-name="napostrophe" unicode="&#x149;" horiz-adv-x="580" 
d="M124 702q0 -52 -39 -103.5t-108 -85.5l-5 14q48 29 75.5 63t30.5 68q-12 -11 -25 -18t-27 -7q-18 0 -28 9.5t-10 25.5t8 32.5t21 30t29.5 22t33.5 8.5q23 0 33.5 -18t10.5 -41zM530 162l-25 -73q-11 -31 -25.5 -51.5t-30.5 -31.5t-33 -15.5t-32 -4.5q-45 0 -63 29
q-11 18 -7 47t16 64l95 286q3 10 7 24.5t3 27.5t-7.5 22.5t-24.5 9.5q-29 0 -64 -32.5t-70.5 -89t-69 -134t-59.5 -167.5l-18 -73h-87l120 429q3 9 5.5 20t2 20t-5.5 15.5t-17 6.5q-22 0 -39 -21.5t-38 -80.5l-13 -37h-19l25 73q11 32 25 52t29.5 31t32 15.5t32.5 4.5
q30 0 43 -13t15.5 -33.5t-2.5 -45t-11 -48.5l-35 -137q33 77 63.5 130t60.5 85.5t61.5 47t65.5 14.5q35 0 53 -13.5t24 -35t2 -48.5t-13 -54l-97 -292q-9 -27 -7.5 -44.5t23.5 -17.5q19 0 37.5 21t39.5 81l13 37h19z" />
    <glyph glyph-name="Eng" unicode="&#x14a;" horiz-adv-x="701" 
d="M680 705q26 0 51.5 0.5t42.5 2.5l-5 -20q-26 -1 -43 -6t-28.5 -16t-19 -29t-14.5 -45l-139 -525q-29 -131 -78 -193t-121 -62q-32 0 -60 13t-30 42q-1 23 15.5 41t39.5 18q18 0 29.5 -11.5t12.5 -28.5q1 -18 -11.5 -31.5t-28.5 -21.5q15 -5 35 -5q29 0 52.5 13t43 35.5
t34.5 53t26 65.5l-243 658l-141 -537q-7 -27 -8.5 -45t6 -29t24 -16t45.5 -6l-5 -20q-17 2 -46 2.5t-55 0.5t-51.5 -0.5t-42.5 -2.5l5 20q26 1 43 6t28.5 16t19 29t14.5 45l129 486q7 27 8 43.5t-5.5 25.5t-21.5 12.5t-40 4.5l5 20q16 -2 39.5 -2.5t49.5 -0.5q47 0 81 3
l202 -562l117 446q7 27 8.5 45t-6 29t-24 16t-45.5 6l5 20q17 -2 46 -2.5t55 -0.5z" />
    <glyph glyph-name="eng" unicode="&#x14b;" horiz-adv-x="549" 
d="M435 528q33 0 51 -11t24.5 -30.5t3.5 -47.5t-13 -62l-74 -262q-32 -112 -79.5 -190t-115.5 -103q-15 -5 -31.5 -7.5t-27.5 -2.5q-28 0 -40 14.5t-5 39.5q5 16 20.5 31t36.5 15q20 0 28 -13t3 -30q-3 -10 -9 -20.5t-17 -21.5q38 5 60.5 28t38.5 80l135 477q11 40 9 62
t-31 22t-64 -32.5t-70.5 -89t-69 -134t-59.5 -167.5l-18 -73h-87l120 429q8 31 6 46.5t-20 15.5q-22 0 -40 -23t-38 -79l-13 -37h-19l25 73q11 32 25.5 52t30.5 31t33 15.5t32 4.5q26 0 39 -10t16.5 -28t-0.5 -44t-12 -58l-43 -168q33 86 64.5 145t63 95t63.5 52t68 16z" />
    <glyph glyph-name="Omacron" unicode="&#x14c;" horiz-adv-x="729" 
d="M54 226q0 83 29.5 171t84.5 160t132 118.5t171 46.5q112 0 174 -62.5t62 -178.5q0 -82 -30 -170t-85 -160t-132 -118.5t-171 -46.5q-112 0 -173.5 62.5t-61.5 177.5zM462 704q-58 0 -112.5 -43t-96.5 -112.5t-67.5 -157.5t-25.5 -178q0 -99 38.5 -154t99.5 -55
q58 0 112.5 43t96.5 112.5t67.5 157.5t25.5 178q0 99 -38.5 154t-99.5 55zM538 354h-352l6 25h352z" />
    <glyph glyph-name="omacron" unicode="&#x14d;" horiz-adv-x="488" 
d="M520 687h-312l6 25h312zM21 143q0 55 19 122t55.5 125.5t90.5 98t124 39.5q63 0 100 -38.5t37 -118.5q0 -55 -19 -122t-55.5 -125.5t-90.5 -98t-124 -39.5q-63 0 -100 38.5t-37 118.5zM304 508q-40 0 -76 -40t-63 -101t-42.5 -134t-15.5 -140q0 -45 14 -66t43 -21
q41 0 76.5 39.5t62.5 100.5t42.5 134.5t15.5 140.5q0 46 -14 66.5t-43 20.5z" />
    <glyph glyph-name="Obreve" unicode="&#x14e;" horiz-adv-x="729" 
d="M652 895q-13 -19 -25.5 -38t-28 -33.5t-36 -23.5t-49.5 -9q-28 0 -44 9t-24 23.5t-11.5 33.5t-6.5 38l26 12q5 -14 8.5 -25t10 -18.5t19.5 -11.5t36 -4q24 0 38.5 4t25 11.5t20 18.5t21.5 25zM54 226q0 83 29.5 171t84.5 160t132 118.5t171 46.5q112 0 174 -62.5
t62 -178.5q0 -82 -30 -170t-85 -160t-132 -118.5t-171 -46.5q-112 0 -173.5 62.5t-61.5 177.5zM462 704q-58 0 -112.5 -43t-96.5 -112.5t-67.5 -157.5t-25.5 -178q0 -99 38.5 -154t99.5 -55q58 0 112.5 43t96.5 112.5t67.5 157.5t25.5 178q0 99 -38.5 154t-99.5 55z" />
    <glyph glyph-name="obreve" unicode="&#x14f;" horiz-adv-x="488" 
d="M488 701q-13 -19 -25.5 -38t-28 -33.5t-36 -23.5t-49.5 -9q-28 0 -44 9t-24 23.5t-11.5 33.5t-6.5 38l26 12q5 -14 8.5 -25t10 -18.5t19.5 -11.5t36 -4q24 0 38.5 4t25 11.5t20 18.5t21.5 25zM21 143q0 55 19 122t55.5 125.5t90.5 98t124 39.5q63 0 100 -38.5t37 -118.5
q0 -55 -19 -122t-55.5 -125.5t-90.5 -98t-124 -39.5q-63 0 -100 38.5t-37 118.5zM304 508q-40 0 -76 -40t-63 -101t-42.5 -134t-15.5 -140q0 -45 14 -66t43 -21q41 0 76.5 39.5t62.5 100.5t42.5 134.5t15.5 140.5q0 46 -14 66.5t-43 20.5z" />
    <glyph glyph-name="Ohungarumlaut" unicode="&#x150;" horiz-adv-x="729" 
d="M548 784q46 36 82.5 74.5t71.5 63.5q6 4 14 8t16.5 5.5t16.5 -1t14 -10.5q11 -16 -0.5 -33t-27.5 -28q-35 -25 -83 -43.5t-98 -47.5zM361 784q46 36 82.5 74.5t71.5 63.5q6 5 14.5 8.5t17.5 5t17 -1.5t13 -12q8 -17 -2 -32t-27 -27q-35 -25 -83 -43.5t-98 -47.5zM54 226
q0 83 29.5 171t84.5 160t132 118.5t171 46.5q112 0 174 -62.5t62 -178.5q0 -82 -30 -170t-85 -160t-132 -118.5t-171 -46.5q-112 0 -173.5 62.5t-61.5 177.5zM462 704q-58 0 -112.5 -43t-96.5 -112.5t-67.5 -157.5t-25.5 -178q0 -99 38.5 -154t99.5 -55q58 0 112.5 43
t96.5 112.5t67.5 157.5t25.5 178q0 99 -38.5 154t-99.5 55z" />
    <glyph glyph-name="ohungarumlaut" unicode="&#x151;" horiz-adv-x="488" 
d="M220 608q23 36 39 65t27.5 52t21.5 40.5t21 32.5q15 20 31.5 22t28.5 -7q12 -10 13.5 -26t-13.5 -36q-12 -15 -27 -28.5t-34 -30.5t-43 -39t-54 -54zM398 608q23 36 39 65t27.5 52t21.5 40.5t21 32.5q15 20 31.5 22t28.5 -7q12 -10 13.5 -26t-13.5 -36q-12 -15 -27 -28.5
t-34 -30.5t-43 -39t-54 -54zM21 143q0 55 19 122t55.5 125.5t90.5 98t124 39.5q63 0 100 -38.5t37 -118.5q0 -55 -19 -122t-55.5 -125.5t-90.5 -98t-124 -39.5q-63 0 -100 38.5t-37 118.5zM304 508q-40 0 -76 -40t-63 -101t-42.5 -134t-15.5 -140q0 -45 14 -66t43 -21
q41 0 76.5 39.5t62.5 100.5t42.5 134.5t15.5 140.5q0 46 -14 66.5t-43 20.5z" />
    <glyph glyph-name="OE" unicode="&#x152;" horiz-adv-x="956" 
d="M806 705q42 0 93 0.5t94 2.5q-14 -35 -23.5 -68t-14.5 -50q-7 -18 -10 -34.5t-3 -27.5h-22q16 89 -2.5 123t-78.5 34h-83q-25 0 -41 -2.5t-26.5 -11.5t-18 -25.5t-14.5 -43.5l-63 -236h98q23 0 38.5 9.5t27 25t20.5 35.5t17 42h22q-13 -39 -19.5 -64.5t-14.5 -57.5
q-6 -22 -12 -47t-14 -75h-22q0 17 3 36t1.5 35.5t-12.5 27.5t-39 13h-99l-64 -240q-7 -27 -8.5 -43.5t5 -25.5t21 -11.5t39.5 -2.5h93q36 0 62.5 9t46.5 30t37 55t33 83h22q-6 -14 -10.5 -32.5t-10.5 -39.5q-5 -19 -13 -54.5t-13 -73.5q-49 2 -108.5 2.5t-107.5 0.5h-46h-59
t-66.5 -0.5t-67.5 -1.5q-23 -7 -49.5 -11t-52.5 -4q-103 0 -159 62.5t-56 177.5q0 83 28.5 171t80 160t125 118.5t163.5 46.5q58 0 101 -15q35 -1 71 -1.5t70 -0.5h62.5h48.5zM563 602q9 34 4 54t-20.5 30.5t-39 14t-51.5 3.5q-59 0 -112 -43t-93.5 -112.5t-64.5 -157.5
t-24 -178q0 -99 33 -154t85 -55q63 0 99 20.5t52 81.5z" />
    <glyph glyph-name="oe" unicode="&#x153;" horiz-adv-x="719" 
d="M705 452q0 -44 -30.5 -80.5t-76 -65.5t-98 -50.5t-95.5 -35.5q-5 -24 -7.5 -48t-2.5 -48q0 -51 18.5 -73.5t50.5 -22.5q36 0 74 21.5t76 78.5l20 -8q-15 -25 -36 -49t-47 -43t-56 -30.5t-62 -11.5q-58 0 -93 32.5t-39 95.5q-27 -55 -66.5 -91.5t-97.5 -36.5
q-54 0 -88 38.5t-34 118.5q0 54 24 119t67.5 122t103.5 95.5t132 38.5q51 0 71.5 -23.5t15.5 -61.5q38 42 84 68.5t98 26.5q40 0 67 -19t27 -57zM589 509q-22 0 -48 -22t-51 -59t-46.5 -86t-34.5 -103q45 16 80 32t58 33q36 29 57 69.5t21 90.5q0 21 -9.5 33t-26.5 12z
M304 166q7 52 30 110.5t59 110.5q8 19 11 38.5t-1 35t-17 25t-37 9.5q-52 0 -97 -38.5t-78.5 -97.5t-53 -130t-19.5 -136q0 -45 12 -63.5t35 -18.5q45 0 86 42.5t70 112.5z" />
    <glyph glyph-name="Racute" unicode="&#x154;" horiz-adv-x="664" 
d="M533 882q-12 -11 -26.5 -21.5t-33 -24t-41.5 -30.5t-52 -42l-13 14q25 29 43 51t31.5 39.5t24.5 31.5t23 26q16 14 31 17.5t26 -5.5q10 -11 6.5 -25.5t-19.5 -30.5zM592 121h23l-4 -13q-17 -61 -44 -91.5t-75 -30.5q-25 0 -42.5 8t-28.5 21.5t-15.5 31t-3.5 35.5l8 112
q3 39 -1.5 66t-23.5 44t-57 24.5t-101 7.5l-61 -230q-6 -23 -8.5 -39.5t3 -26.5t20.5 -15t44 -5l-4 -20q-23 2 -56 2.5t-68 0.5q-39 0 -74 -0.5t-56 -2.5l4 20q25 1 42 4.5t28 12.5t18.5 25.5t14.5 43.5l132 496q6 24 8 40t-4 26t-21 15t-42 5l5 20q20 -2 55 -2.5t68 -0.5
q36 0 72 1t74 1q101 0 150 -38.5t49 -102.5q0 -41 -18.5 -77.5t-52.5 -65t-82 -49t-108 -30.5q10 -1 18.5 -2t16.5 -3q30 -6 52 -14.5t35.5 -23.5t19.5 -37.5t3 -56.5l-8 -102q-1 -15 -0.5 -30t4 -26.5t10 -18.5t18.5 -7q18 1 31.5 22.5t27.5 61.5zM233 356h30q72 0 121 17
t79 46t43 68.5t13 84.5q0 59 -29.5 87.5t-97.5 28.5q-22 0 -37 -4t-25.5 -13.5t-17.5 -26t-14 -42.5z" />
    <glyph glyph-name="racute" unicode="&#x155;" horiz-adv-x="426" 
d="M423 688q-12 -11 -26.5 -21.5t-33 -24t-41.5 -30.5t-52 -42l-13 14q25 29 43 51t31.5 39.5t24.5 31.5t23 26q16 14 31 17.5t26 -5.5q10 -11 6.5 -25.5t-19.5 -30.5zM395 528q28 0 43.5 -16t15.5 -41q0 -30 -21 -51t-49 -21q-17 0 -28.5 9.5t-11.5 26.5q0 24 12.5 40
t32.5 24q-4 4 -11 4q-27 0 -57.5 -31t-61 -87.5t-61 -134.5t-57.5 -171l-20 -79h-87l120 429q10 34 6.5 48t-20.5 14q-22 0 -40 -23t-38 -79l-13 -37h-19l25 73q11 32 25.5 52t30.5 31t33 15.5t32 4.5q30 0 42.5 -13.5t14.5 -34t-3 -45t-11 -47.5l-32 -126q27 73 52 124
t50 82.5t51 45.5t55 14z" />
    <glyph glyph-name="Rcommaaccent" unicode="&#x156;" horiz-adv-x="664" 
d="M592 121h23l-4 -13q-17 -61 -44 -91.5t-75 -30.5q-25 0 -42.5 8t-28.5 21.5t-15.5 31t-3.5 35.5l8 112q3 39 -1.5 66t-23.5 44t-57 24.5t-101 7.5l-61 -230q-6 -23 -8.5 -39.5t3 -26.5t20.5 -15t44 -5l-4 -20q-23 2 -56 2.5t-68 0.5q-39 0 -74 -0.5t-56 -2.5l4 20
q25 1 42 4.5t28 12.5t18.5 25.5t14.5 43.5l132 496q6 24 8 40t-4 26t-21 15t-42 5l5 20q20 -2 55 -2.5t68 -0.5q36 0 72 1t74 1q101 0 150 -38.5t49 -102.5q0 -41 -18.5 -77.5t-52.5 -65t-82 -49t-108 -30.5q10 -1 18.5 -2t16.5 -3q30 -6 52 -14.5t35.5 -23.5t19.5 -37.5
t3 -56.5l-8 -102q-1 -15 -0.5 -30t4 -26.5t10 -18.5t18.5 -7q18 1 31.5 22.5t27.5 61.5zM233 356h30q72 0 121 17t79 46t43 68.5t13 84.5q0 59 -29.5 87.5t-97.5 28.5q-22 0 -37 -4t-25.5 -13.5t-17.5 -26t-14 -42.5zM276 -69q26 0 40.5 -16.5t14.5 -41.5q0 -16 -4 -32
t-14.5 -30.5t-29.5 -28t-50 -23.5l-7 17q12 3 24.5 9t23 14.5t18 18.5t8.5 22q-8 -7 -19.5 -11.5t-24.5 -4.5q-20 0 -32.5 11t-12.5 31q0 22 16.5 43.5t48.5 21.5z" />
    <glyph glyph-name="rcommaaccent" unicode="&#x157;" horiz-adv-x="426" 
d="M395 528q28 0 43.5 -16t15.5 -41q0 -30 -21 -51t-49 -21q-17 0 -28.5 9.5t-11.5 26.5q0 24 12.5 40t32.5 24q-4 4 -11 4q-27 0 -57.5 -31t-61 -87.5t-61 -134.5t-57.5 -171l-20 -79h-87l120 429q10 34 6.5 48t-20.5 14q-22 0 -40 -23t-38 -79l-13 -37h-19l25 73
q11 32 25.5 52t30.5 31t33 15.5t32 4.5q30 0 42.5 -13.5t14.5 -34t-3 -45t-11 -47.5l-32 -126q27 73 52 124t50 82.5t51 45.5t55 14zM60 -69q26 0 40.5 -16.5t14.5 -41.5q0 -16 -4 -32t-14.5 -30.5t-29.5 -28t-50 -23.5l-7 17q12 3 24.5 9t23 14.5t18 18.5t8.5 22
q-8 -7 -19.5 -11.5t-24.5 -4.5q-20 0 -32.5 11t-12.5 31q0 22 16.5 43.5t48.5 21.5z" />
    <glyph glyph-name="Rcaron" unicode="&#x158;" horiz-adv-x="664" 
d="M397 780q-26 44 -57 77t-82 53l4 14q34 -6 59 -14t45.5 -16.5t37.5 -18t35 -19.5q39 17 95.5 36.5t110.5 31.5l5 -14q-73 -23 -135 -57.5t-100 -72.5h-18zM620 566q0 -41 -18.5 -77.5t-52.5 -65t-82 -49t-108 -30.5q10 -1 18.5 -2t16.5 -3q30 -6 52 -14.5t35.5 -23.5
t19.5 -37.5t3 -56.5l-8 -102q-1 -15 -0.5 -30t4 -26.5t10 -18.5t18.5 -7q18 1 31.5 22.5t27.5 61.5l5 14h23l-4 -13q-17 -61 -44 -91.5t-75 -30.5q-25 0 -42.5 8t-28.5 21.5t-15.5 31t-3.5 35.5l8 112q3 39 -1.5 66t-23.5 44t-57 24.5t-101 7.5l-61 -230q-6 -23 -8.5 -39.5
t3 -26.5t20.5 -15t44 -5l-4 -20q-23 2 -56 2.5t-68 0.5q-39 0 -74 -0.5t-56 -2.5l4 20q25 1 42 4.5t28 12.5t18.5 25.5t14.5 43.5l132 496q6 24 8 40t-4 26t-21 15t-42 5l5 20q20 -2 55 -2.5t68 -0.5q36 0 72 1t74 1q101 0 150 -38.5t49 -102.5zM263 356q72 0 121 17t79 46
t43 68.5t13 84.5q0 59 -29.5 87.5t-97.5 28.5q-22 0 -37 -4t-25.5 -13.5t-17.5 -26t-14 -42.5l-65 -246h30z" />
    <glyph glyph-name="rcaron" unicode="&#x159;" horiz-adv-x="426" 
d="M299 616q-11 62 -37.5 102.5t-81.5 69.5l4 14q63 -17 100 -43.5t68 -60.5q35 27 81 55.5t94 48.5l5 -14q-67 -29 -123.5 -75t-91.5 -97h-18zM395 528q28 0 43.5 -16t15.5 -41q0 -30 -21 -51t-49 -21q-17 0 -28.5 9.5t-11.5 26.5q0 24 12.5 40t32.5 24q-4 4 -11 4
q-27 0 -57.5 -31t-61 -87.5t-61 -134.5t-57.5 -171l-20 -79h-87l120 429q10 34 6.5 48t-20.5 14q-22 0 -40 -23t-38 -79l-13 -37h-19l25 73q11 32 25.5 52t30.5 31t33 15.5t32 4.5q30 0 42.5 -13.5t14.5 -34t-3 -45t-11 -47.5l-32 -126q27 73 52 124t50 82.5t51 45.5t55 14z
" />
    <glyph glyph-name="Sacute" unicode="&#x15a;" horiz-adv-x="554" 
d="M526 938q10 -11 6.5 -25.5t-19.5 -30.5q-12 -11 -26.5 -21.5t-33 -24t-41.5 -30.5t-52 -42l-13 14q25 29 43 51t31.5 39.5t24.5 31.5t23 26q16 14 31 17.5t26 -5.5zM576 715q-11 -26 -27 -75.5t-32 -128.5h-20q6 29 6 57q0 27 -8 51.5t-25 43t-44 29.5t-65 11
q-60 0 -100 -31t-40 -96q0 -38 18.5 -70t47 -62t61 -59t61 -60.5t47 -66.5t18.5 -76q0 -52 -23 -89t-60 -61t-81.5 -35t-88.5 -11q-60 0 -92 16t-50 30q-11 9 -20.5 12t-15.5 3q-13 0 -21.5 -13.5t-19.5 -40.5h-20q7 16 14 36t15.5 48t18 66t20.5 90h20q-4 -21 -7 -40.5
t-2 -40.5q3 -69 41.5 -107.5t121.5 -38.5q66 0 106.5 29.5t40.5 95.5q0 42 -17 75t-43 61.5t-55.5 55t-55.5 56.5t-43 66t-17 82q0 48 19 84.5t50 61t70.5 37t80.5 12.5q42 0 71.5 -10t58.5 -32q24 -18 33 -18q14 0 33 53h20z" />
    <glyph glyph-name="sacute" unicode="&#x15b;" horiz-adv-x="381" 
d="M408 744q10 -11 6.5 -25.5t-19.5 -30.5q-12 -11 -26.5 -21.5t-33 -24t-41.5 -30.5t-52 -42l-13 14q25 29 43 51t31.5 39.5t24.5 31.5t23 26q16 14 31 17.5t26 -5.5zM59 15q8 -4 17.5 -6.5t28.5 -2.5q45 0 73 26t28 77q0 31 -11.5 61.5t-40.5 70.5q-23 32 -44 65.5
t-21 79.5q0 32 12.5 58t33.5 45t49 29t60 10q21 0 43 -3.5t39.5 -13.5t28.5 -26.5t11 -43.5q0 -7 -2.5 -16t-8 -17t-14 -13.5t-21.5 -5.5q-17 0 -28.5 11.5t-11.5 30.5q0 18 7.5 34.5t20.5 32.5q-19 12 -50 12q-38 0 -62.5 -25t-24.5 -70q0 -17 4 -30.5t11.5 -27.5
t18.5 -29.5t26 -37.5q25 -38 42 -73t17 -74q0 -35 -14 -64t-37.5 -49.5t-54.5 -32t-66 -11.5q-26 0 -50.5 5.5t-43 17t-30 30.5t-11.5 46q0 14 8 29.5t31 15.5q24 0 34 -19.5t10 -43.5q0 -16 -2.5 -28.5t-4.5 -23.5z" />
    <glyph glyph-name="Scircumflex" unicode="&#x15c;" horiz-adv-x="554" 
d="M450 931q5 -41 31 -76.5t65 -55.5l-16 -21q-37 14 -71 34t-54 40q-26 -20 -61.5 -40.5t-71.5 -34.5l-6 22q50 20 93.5 55.5t68.5 76.5h22zM576 715q-11 -26 -27 -75.5t-32 -128.5h-20q6 29 6 57q0 27 -8 51.5t-25 43t-44 29.5t-65 11q-60 0 -100 -31t-40 -96
q0 -38 18.5 -70t47 -62t61 -59t61 -60.5t47 -66.5t18.5 -76q0 -52 -23 -89t-60 -61t-81.5 -35t-88.5 -11q-60 0 -92 16t-50 30q-11 9 -20.5 12t-15.5 3q-13 0 -21.5 -13.5t-19.5 -40.5h-20q7 16 14 36t15.5 48t18 66t20.5 90h20q-4 -21 -7 -40.5t-2 -40.5q3 -69 41.5 -107.5
t121.5 -38.5q66 0 106.5 29.5t40.5 95.5q0 42 -17 75t-43 61.5t-55.5 55t-55.5 56.5t-43 66t-17 82q0 48 19 84.5t50 61t70.5 37t80.5 12.5q42 0 71.5 -10t58.5 -32q24 -18 33 -18q14 0 33 53h20z" />
    <glyph glyph-name="scircumflex" unicode="&#x15d;" horiz-adv-x="381" 
d="M332 737q5 -41 31 -76.5t65 -55.5l-16 -21q-37 14 -71 34t-54 40q-26 -20 -61.5 -40.5t-71.5 -34.5l-6 22q50 20 93.5 55.5t68.5 76.5h22zM59 15q8 -4 17.5 -6.5t28.5 -2.5q45 0 73 26t28 77q0 31 -11.5 61.5t-40.5 70.5q-23 32 -44 65.5t-21 79.5q0 32 12.5 58t33.5 45
t49 29t60 10q21 0 43 -3.5t39.5 -13.5t28.5 -26.5t11 -43.5q0 -7 -2.5 -16t-8 -17t-14 -13.5t-21.5 -5.5q-17 0 -28.5 11.5t-11.5 30.5q0 18 7.5 34.5t20.5 32.5q-19 12 -50 12q-38 0 -62.5 -25t-24.5 -70q0 -17 4 -30.5t11.5 -27.5t18.5 -29.5t26 -37.5q25 -38 42 -73
t17 -74q0 -35 -14 -64t-37.5 -49.5t-54.5 -32t-66 -11.5q-26 0 -50.5 5.5t-43 17t-30 30.5t-11.5 46q0 14 8 29.5t31 15.5q24 0 34 -19.5t10 -43.5q0 -16 -2.5 -28.5t-4.5 -23.5z" />
    <glyph glyph-name="Scedilla" unicode="&#x15e;" horiz-adv-x="554" 
d="M576 715q-11 -26 -27 -75.5t-32 -128.5h-20q6 29 6 57q0 27 -8 51.5t-25 43t-44 29.5t-65 11q-60 0 -100 -31t-40 -96q0 -38 18.5 -70t47 -62t61 -59t61 -60.5t47 -66.5t18.5 -76q0 -52 -23 -89t-60 -61t-81.5 -35t-88.5 -11h-1l-27 -58q11 3 24.5 5t26.5 2
q25 0 39 -10.5t14 -29.5q0 -22 -15 -37.5t-37.5 -25.5t-49.5 -15t-51 -5q-35 0 -61 7t-39 15l7 15q8 -3 26.5 -8t53.5 -5q11 0 28.5 2.5t34 8t28 15.5t11.5 25q0 24 -38 24q-7 0 -18.5 -1.5t-22.5 -5.5l40 83q-47 4 -73 18t-42 27q-11 9 -20.5 12t-15.5 3q-13 0 -21.5 -13.5
t-19.5 -40.5h-20q7 16 14 36t15.5 48t18 66t20.5 90h20q-4 -21 -7 -40.5t-2 -40.5q3 -69 41.5 -107.5t121.5 -38.5q66 0 106.5 29.5t40.5 95.5q0 42 -17 75t-43 61.5t-55.5 55t-55.5 56.5t-43 66t-17 82q0 48 19 84.5t50 61t70.5 37t80.5 12.5q42 0 71.5 -10t58.5 -32
q24 -18 33 -18q14 0 33 53h20z" />
    <glyph glyph-name="scedilla" unicode="&#x15f;" horiz-adv-x="381" 
d="M244 528q21 0 43 -3.5t39.5 -13.5t28.5 -26.5t11 -43.5q0 -7 -2.5 -16t-8 -17t-14 -13.5t-21.5 -5.5q-17 0 -28.5 11.5t-11.5 30.5q0 18 7.5 34.5t20.5 32.5q-19 12 -50 12q-38 0 -62.5 -25t-24.5 -70q0 -17 4 -30.5t11.5 -27.5t18.5 -29.5t26 -37.5q25 -38 42 -73
t17 -74q0 -34 -13.5 -63t-37 -49.5t-54 -32.5t-65.5 -12l-27 -58q8 3 19 5t22 2q43 0 43 -40q0 -22 -12 -37.5t-30 -25.5t-39.5 -15t-41.5 -5q-28 0 -49 7t-31 15l7 15q7 -3 21 -8t39 -5q8 0 20 2.5t23.5 8t20 15.5t8.5 25q0 24 -28 24q-5 0 -14 -1.5t-17 -5.5l40 83
q-45 4 -78 27t-33 71q0 14 8 29.5t31 15.5q24 0 34 -19.5t10 -43.5q0 -16 -2.5 -28.5t-4.5 -23.5q8 -4 17.5 -6.5t28.5 -2.5q45 0 73 26t28 77q0 31 -11.5 61.5t-40.5 70.5q-23 32 -44 65.5t-21 79.5q0 32 12.5 58t33.5 45t49 29t60 10z" />
    <glyph glyph-name="Scaron" unicode="&#x160;" horiz-adv-x="554" 
d="M419 856q39 17 95.5 36.5t110.5 31.5l5 -14q-73 -23 -135 -57.5t-100 -72.5h-18q-26 44 -57 77t-82 53l4 14q34 -6 59 -14t45.5 -16.5t37.5 -18t35 -19.5zM576 715q-11 -26 -27 -75.5t-32 -128.5h-20q6 29 6 57q0 27 -8 51.5t-25 43t-44 29.5t-65 11q-60 0 -100 -31
t-40 -96q0 -38 18.5 -70t47 -62t61 -59t61 -60.5t47 -66.5t18.5 -76q0 -52 -23 -89t-60 -61t-81.5 -35t-88.5 -11q-60 0 -92 16t-50 30q-11 9 -20.5 12t-15.5 3q-13 0 -21.5 -13.5t-19.5 -40.5h-20q7 16 14 36t15.5 48t18 66t20.5 90h20q-4 -21 -7 -40.5t-2 -40.5
q3 -69 41.5 -107.5t121.5 -38.5q66 0 106.5 29.5t40.5 95.5q0 42 -17 75t-43 61.5t-55.5 55t-55.5 56.5t-43 66t-17 82q0 48 19 84.5t50 61t70.5 37t80.5 12.5q42 0 71.5 -10t58.5 -32q24 -18 33 -18q14 0 33 53h20z" />
    <glyph glyph-name="scaron" unicode="&#x161;" horiz-adv-x="381" 
d="M324 698q35 27 81 55.5t94 48.5l5 -14q-67 -29 -123.5 -75t-91.5 -97h-18q-11 62 -37.5 102.5t-81.5 69.5l4 14q63 -17 100 -43.5t68 -60.5zM59 15q8 -4 17.5 -6.5t28.5 -2.5q45 0 73 26t28 77q0 31 -11.5 61.5t-40.5 70.5q-23 32 -44 65.5t-21 79.5q0 32 12.5 58
t33.5 45t49 29t60 10q21 0 43 -3.5t39.5 -13.5t28.5 -26.5t11 -43.5q0 -7 -2.5 -16t-8 -17t-14 -13.5t-21.5 -5.5q-17 0 -28.5 11.5t-11.5 30.5q0 18 7.5 34.5t20.5 32.5q-19 12 -50 12q-38 0 -62.5 -25t-24.5 -70q0 -17 4 -30.5t11.5 -27.5t18.5 -29.5t26 -37.5
q25 -38 42 -73t17 -74q0 -35 -14 -64t-37.5 -49.5t-54.5 -32t-66 -11.5q-26 0 -50.5 5.5t-43 17t-30 30.5t-11.5 46q0 14 8 29.5t31 15.5q24 0 34 -19.5t10 -43.5q0 -16 -2.5 -28.5t-4.5 -23.5z" />
    <glyph glyph-name="uni0162" unicode="&#x162;" horiz-adv-x="659" 
d="M768 817q23 0 34 -14t11 -34q0 -23 -13.5 -41.5t-33.5 -30.5q-26 -16 -65 -24.5t-93 -8.5q-26 0 -51.5 2t-50.5 5l-148 -555q-8 -29 -9 -47.5t7 -29t27 -14.5t50 -5l-4 -20q-24 2 -59.5 2.5t-74.5 0.5l-36 -75q11 3 24.5 5t26.5 2q25 0 39 -10.5t14 -29.5
q0 -22 -15 -37.5t-37.5 -25.5t-49.5 -15t-51 -5q-35 0 -61 7t-39 15l7 15q8 -3 26.5 -8t53.5 -5q11 0 28.5 2.5t34 8t28 15.5t11.5 25q0 24 -38 24q-7 0 -18.5 -1.5t-22.5 -5.5l48 99q-40 0 -75.5 -0.5t-58.5 -2.5l4 20q32 1 52.5 6t34.5 16t23 29t17 45l151 567
q-33 5 -65 8t-64 3t-64 -3t-48 -14q8 -11 13 -27t5 -31q0 -20 -12 -39t-38 -19q-22 0 -33 13.5t-11 36.5q0 20 11 41.5t42 36.5q17 8 37 13t38.5 7t34 2.5t24.5 0.5q45 0 85.5 -4.5t80 -9.5t80 -9.5t83.5 -4.5q44 0 74 4.5t55 17.5q-10 10 -17.5 24.5t-7.5 31.5
q0 20 11.5 37.5t37.5 17.5z" />
    <glyph glyph-name="uni0163" unicode="&#x163;" horiz-adv-x="336" 
d="M121 85q-9 -33 4 -47.5t36 -14.5q11 0 22 4t22 15t22.5 30.5t22.5 50.5l14 39h19l-21 -63q-22 -66 -56.5 -89.5t-80.5 -23.5q-6 0 -12 0.5t-11 1.5l-28 -60q8 3 19 5t22 2q43 0 43 -40q0 -22 -12 -37.5t-30 -25.5t-39.5 -15t-41.5 -5q-28 0 -49 7t-31 15l7 15q7 -3 21 -8
t39 -5q8 0 20 2.5t23.5 8t20 15.5t8.5 25q0 24 -28 24q-5 0 -14 -1.5t-17 -5.5l43 90q-32 14 -39.5 49t6.5 83l106 368h-90l5 20h90l44 152q24 1 47 4t43 10l-47 -166h132l-3 -20h-135z" />
    <glyph glyph-name="Tcaron" unicode="&#x164;" horiz-adv-x="659" 
d="M460 780q-26 44 -57 77t-82 53l4 14q34 -6 59 -14t45.5 -16.5t37.5 -18t35 -19.5q39 17 95.5 36.5t110.5 31.5l5 -14q-73 -23 -135 -57.5t-100 -72.5h-18zM768 817q23 0 34 -14t11 -34q0 -23 -13.5 -41.5t-33.5 -30.5q-26 -16 -65 -24.5t-93 -8.5q-26 0 -51.5 2t-50.5 5
l-148 -555q-8 -29 -9 -47.5t7 -29t27 -14.5t50 -5l-4 -20q-26 2 -66 2.5t-83 0.5t-82.5 -0.5t-63.5 -2.5l4 20q32 1 52.5 6t34.5 16t23 29t17 45l151 567q-33 5 -65 8t-64 3t-64 -3t-48 -14q8 -11 13 -27t5 -31q0 -20 -12 -39t-38 -19q-22 0 -33 13.5t-11 36.5q0 20 11 41.5
t42 36.5q17 8 37 13t38.5 7t34 2.5t24.5 0.5q45 0 85.5 -4.5t80 -9.5t80 -9.5t83.5 -4.5q44 0 74 4.5t55 17.5q-10 10 -17.5 24.5t-7.5 31.5q0 20 11.5 37.5t37.5 17.5z" />
    <glyph glyph-name="tcaron" unicode="&#x165;" horiz-adv-x="336" 
d="M323 560q34 74 47.5 124t13.5 69t-13 19l3 21q6 0 11 -0.5t10 -0.5q25 0 42 3.5t31 8.5q1 -2 1 -8q0 -39 -34.5 -101.5t-97.5 -138.5zM243 514h132l-3 -20h-135l-116 -409q-9 -33 4 -47.5t36 -14.5q11 0 22 4t22 15t22.5 30.5t22.5 50.5l14 39h19l-21 -63
q-22 -66 -56.5 -89.5t-80.5 -23.5q-62 0 -80 38.5t0 101.5l106 368h-90l5 20h90l44 152q24 1 47 4t43 10z" />
    <glyph glyph-name="Tbar" unicode="&#x166;" horiz-adv-x="659" 
d="M768 817q23 0 34 -14t11 -34q0 -23 -13.5 -41.5t-33.5 -30.5q-26 -16 -65 -24.5t-93 -8.5q-26 0 -51.5 2t-50.5 5l-81 -305h152l-6 -25h-153l-60 -225q-8 -29 -9 -47.5t7 -29t27 -14.5t50 -5l-4 -20q-26 2 -66 2.5t-83 0.5t-82.5 -0.5t-63.5 -2.5l4 20q32 1 52.5 6
t34.5 16t23 29t17 45l60 225h-166l6 25h167l84 317q-33 5 -65 8t-64 3t-64 -3t-48 -14q8 -11 13 -27t5 -31q0 -20 -12 -39t-38 -19q-22 0 -33 13.5t-11 36.5q0 20 11 41.5t42 36.5q17 8 37 13t38.5 7t34 2.5t24.5 0.5q45 0 85.5 -4.5t80 -9.5t80 -9.5t83.5 -4.5q44 0 74 4.5
t55 17.5q-10 10 -17.5 24.5t-7.5 31.5q0 20 11.5 37.5t37.5 17.5z" />
    <glyph glyph-name="tbar" unicode="&#x167;" horiz-adv-x="336" 
d="M237 494l-21 -73h137l-3 -20h-139l-90 -316q-9 -33 4 -47.5t36 -14.5q11 0 22 4t22 15t22.5 30.5t22.5 50.5l14 39h19l-21 -63q-22 -66 -56.5 -89.5t-80.5 -23.5q-62 0 -80 38.5t0 101.5l79 275h-85l5 20h86l21 73h-90l5 20h90l44 152q24 1 47 4t43 10l-47 -166h132
l-3 -20h-135z" />
    <glyph glyph-name="Utilde" unicode="&#x168;" horiz-adv-x="682" 
d="M466 904q22 0 35 -7.5t22.5 -17t19.5 -17t25 -7.5q31 0 66 42l16 -11q-20 -42 -51 -64t-66 -22q-22 0 -35 8t-22.5 17t-19.5 17t-25 8q-31 0 -66 -42l-17 10q21 42 51.5 64t66.5 22zM631 592q14 55 -1 74.5t-66 21.5l5 20q17 -2 46 -2.5t55 -0.5t51.5 0.5t42.5 2.5
l-5 -20q-26 -1 -43 -6t-29 -16t-19.5 -29t-14.5 -45l-78 -301q-18 -70 -42 -122t-56 -90q-36 -42 -89 -67.5t-116 -25.5q-49 0 -88.5 12.5t-65.5 41.5q-36 41 -35 99t25 149l83 314q7 27 8 43.5t-5.5 25.5t-21.5 12.5t-40 4.5l6 20q20 -2 55 -2.5t74 -0.5q35 0 68 0.5
t57 2.5l-6 -20q-26 -1 -42.5 -4.5t-27.5 -12.5t-18.5 -25.5t-14.5 -43.5l-88 -331q-13 -51 -19.5 -96.5t1.5 -79.5t35 -54t79 -20q56 0 98 19.5t72.5 54t51.5 82t36 103.5z" />
    <glyph glyph-name="utilde" unicode="&#x169;" horiz-adv-x="567" 
d="M277 656q-31 0 -66 -42l-17 10q21 42 51.5 64t66.5 22q22 0 35 -7.5t22.5 -17t19.5 -17t25 -7.5q31 0 66 42l16 -11q-20 -42 -51 -64t-66 -22q-22 0 -35 8t-22.5 17t-19.5 17t-25 8zM499 162h19l-25 -73q-11 -31 -25.5 -51.5t-30.5 -31.5t-33 -15.5t-32 -4.5
q-16 0 -30 6.5t-21 20.5q-8 17 -5.5 42.5t13.5 70.5l31 125q-30 -73 -58 -123.5t-56.5 -82t-57.5 -45.5t-61 -14q-33 0 -52 11.5t-26.5 32t-5 48t13.5 59.5l97 292q10 30 7 46t-23 16q-19 0 -37.5 -21t-39.5 -81l-13 -37h-19l25 73q11 32 25.5 52t30.5 31t33 15.5t32 4.5
q33 0 48.5 -12t19.5 -31.5t-0.5 -45t-13.5 -51.5l-95 -286q-14 -44 -8.5 -64t30.5 -20q29 0 63.5 33t69 92.5t67.5 141.5t59 180l12 49q25 1 48.5 4t42.5 10l-124 -443q-8 -27 -7 -44.5t21 -17.5q22 0 40 23t38 79z" />
    <glyph glyph-name="Umacron" unicode="&#x16a;" horiz-adv-x="682" 
d="M650 819h-352l6 25h352zM631 592q14 55 -1 74.5t-66 21.5l5 20q17 -2 46 -2.5t55 -0.5t51.5 0.5t42.5 2.5l-5 -20q-26 -1 -43 -6t-29 -16t-19.5 -29t-14.5 -45l-78 -301q-18 -70 -42 -122t-56 -90q-36 -42 -89 -67.5t-116 -25.5q-49 0 -88.5 12.5t-65.5 41.5
q-36 41 -35 99t25 149l83 314q7 27 8 43.5t-5.5 25.5t-21.5 12.5t-40 4.5l6 20q20 -2 55 -2.5t74 -0.5q35 0 68 0.5t57 2.5l-6 -20q-26 -1 -42.5 -4.5t-27.5 -12.5t-18.5 -25.5t-14.5 -43.5l-88 -331q-13 -51 -19.5 -96.5t1.5 -79.5t35 -54t79 -20q56 0 98 19.5t72.5 54
t51.5 82t36 103.5z" />
    <glyph glyph-name="umacron" unicode="&#x16b;" horiz-adv-x="567" 
d="M510 687h-312l6 25h312zM499 162h19l-25 -73q-11 -31 -25.5 -51.5t-30.5 -31.5t-33 -15.5t-32 -4.5q-16 0 -30 6.5t-21 20.5q-8 17 -5.5 42.5t13.5 70.5l31 125q-30 -73 -58 -123.5t-56.5 -82t-57.5 -45.5t-61 -14q-33 0 -52 11.5t-26.5 32t-5 48t13.5 59.5l97 292
q10 30 7 46t-23 16q-19 0 -37.5 -21t-39.5 -81l-13 -37h-19l25 73q11 32 25.5 52t30.5 31t33 15.5t32 4.5q33 0 48.5 -12t19.5 -31.5t-0.5 -45t-13.5 -51.5l-95 -286q-14 -44 -8.5 -64t30.5 -20q29 0 63.5 33t69 92.5t67.5 141.5t59 180l12 49q25 1 48.5 4t42.5 10
l-124 -443q-8 -27 -7 -44.5t21 -17.5q22 0 40 23t38 79z" />
    <glyph glyph-name="Ubreve" unicode="&#x16c;" horiz-adv-x="682" 
d="M632 895q-13 -19 -25.5 -38t-28 -33.5t-36 -23.5t-49.5 -9q-28 0 -44 9t-24 23.5t-11.5 33.5t-6.5 38l26 12q5 -14 8.5 -25t10 -18.5t19.5 -11.5t36 -4q24 0 38.5 4t25 11.5t20 18.5t21.5 25zM631 592q14 55 -1 74.5t-66 21.5l5 20q17 -2 46 -2.5t55 -0.5t51.5 0.5
t42.5 2.5l-5 -20q-26 -1 -43 -6t-29 -16t-19.5 -29t-14.5 -45l-78 -301q-18 -70 -42 -122t-56 -90q-36 -42 -89 -67.5t-116 -25.5q-49 0 -88.5 12.5t-65.5 41.5q-36 41 -35 99t25 149l83 314q7 27 8 43.5t-5.5 25.5t-21.5 12.5t-40 4.5l6 20q20 -2 55 -2.5t74 -0.5
q35 0 68 0.5t57 2.5l-6 -20q-26 -1 -42.5 -4.5t-27.5 -12.5t-18.5 -25.5t-14.5 -43.5l-88 -331q-13 -51 -19.5 -96.5t1.5 -79.5t35 -54t79 -20q56 0 98 19.5t72.5 54t51.5 82t36 103.5z" />
    <glyph glyph-name="ubreve" unicode="&#x16d;" horiz-adv-x="567" 
d="M339 597q-28 0 -44 9t-24 23.5t-11.5 33.5t-6.5 38l26 12q5 -14 8.5 -25t10 -18.5t19.5 -11.5t36 -4q24 0 38.5 4t25 11.5t20 18.5t21.5 25l20 -12q-13 -19 -25.5 -38t-28 -33.5t-36 -23.5t-49.5 -9zM499 162h19l-25 -73q-11 -31 -25.5 -51.5t-30.5 -31.5t-33 -15.5
t-32 -4.5q-16 0 -30 6.5t-21 20.5q-8 17 -5.5 42.5t13.5 70.5l31 125q-30 -73 -58 -123.5t-56.5 -82t-57.5 -45.5t-61 -14q-33 0 -52 11.5t-26.5 32t-5 48t13.5 59.5l97 292q10 30 7 46t-23 16q-19 0 -37.5 -21t-39.5 -81l-13 -37h-19l25 73q11 32 25.5 52t30.5 31t33 15.5
t32 4.5q33 0 48.5 -12t19.5 -31.5t-0.5 -45t-13.5 -51.5l-95 -286q-14 -44 -8.5 -64t30.5 -20q29 0 63.5 33t69 92.5t67.5 141.5t59 180l12 49q25 1 48.5 4t42.5 10l-124 -443q-8 -27 -7 -44.5t21 -17.5q22 0 40 23t38 79z" />
    <glyph glyph-name="Uring" unicode="&#x16e;" horiz-adv-x="682" 
d="M505 925q36 0 61 -21.5t25 -58.5q0 -21 -9 -39.5t-24.5 -33t-36 -22.5t-42.5 -8q-35 0 -59 21t-24 59q0 22 8.5 40.5t23.5 32.5t35 22t42 8zM483 763q32 0 57 23.5t25 59.5q0 29 -20.5 43.5t-43.5 14.5q-15 0 -29.5 -6.5t-25.5 -18t-17.5 -26t-6.5 -30.5q0 -30 19 -45
t42 -15zM631 592q14 55 -1 74.5t-66 21.5l5 20q17 -2 46 -2.5t55 -0.5t51.5 0.5t42.5 2.5l-5 -20q-26 -1 -43 -6t-29 -16t-19.5 -29t-14.5 -45l-78 -301q-18 -70 -42 -122t-56 -90q-36 -42 -89 -67.5t-116 -25.5q-49 0 -88.5 12.5t-65.5 41.5q-36 41 -35 99t25 149l83 314
q7 27 8 43.5t-5.5 25.5t-21.5 12.5t-40 4.5l6 20q20 -2 55 -2.5t74 -0.5q35 0 68 0.5t57 2.5l-6 -20q-26 -1 -42.5 -4.5t-27.5 -12.5t-18.5 -25.5t-14.5 -43.5l-88 -331q-13 -51 -19.5 -96.5t1.5 -79.5t35 -54t79 -20q56 0 98 19.5t72.5 54t51.5 82t36 103.5z" />
    <glyph glyph-name="uring" unicode="&#x16f;" horiz-adv-x="567" 
d="M350 608q-35 0 -59 21t-24 59q0 22 8.5 40.5t23.5 32.5t35 22t42 8q36 0 61 -21.5t25 -58.5q0 -21 -9 -39.5t-24.5 -33t-36 -22.5t-42.5 -8zM372 770q-15 0 -29.5 -6.5t-25.5 -18t-17.5 -26t-6.5 -30.5q0 -30 19 -45t42 -15q32 0 57 23.5t25 59.5q0 29 -20.5 43.5
t-43.5 14.5zM499 162h19l-25 -73q-11 -31 -25.5 -51.5t-30.5 -31.5t-33 -15.5t-32 -4.5q-16 0 -30 6.5t-21 20.5q-8 17 -5.5 42.5t13.5 70.5l31 125q-30 -73 -58 -123.5t-56.5 -82t-57.5 -45.5t-61 -14q-33 0 -52 11.5t-26.5 32t-5 48t13.5 59.5l97 292q10 30 7 46t-23 16
q-19 0 -37.5 -21t-39.5 -81l-13 -37h-19l25 73q11 32 25.5 52t30.5 31t33 15.5t32 4.5q33 0 48.5 -12t19.5 -31.5t-0.5 -45t-13.5 -51.5l-95 -286q-14 -44 -8.5 -64t30.5 -20q29 0 63.5 33t69 92.5t67.5 141.5t59 180l12 49q25 1 48.5 4t42.5 10l-124 -443q-8 -27 -7 -44.5
t21 -17.5q22 0 40 23t38 79z" />
    <glyph glyph-name="Uhungarumlaut" unicode="&#x170;" horiz-adv-x="682" 
d="M528 784q46 36 82.5 74.5t71.5 63.5q6 4 14 8t16.5 5.5t16.5 -1t14 -10.5q11 -16 -0.5 -33t-27.5 -28q-35 -25 -83 -43.5t-98 -47.5zM341 784q46 36 82.5 74.5t71.5 63.5q6 5 14.5 8.5t17.5 5t17 -1.5t13 -12q8 -17 -2 -32t-27 -27q-35 -25 -83 -43.5t-98 -47.5zM631 592
q14 55 -1 74.5t-66 21.5l5 20q17 -2 46 -2.5t55 -0.5t51.5 0.5t42.5 2.5l-5 -20q-26 -1 -43 -6t-29 -16t-19.5 -29t-14.5 -45l-78 -301q-18 -70 -42 -122t-56 -90q-36 -42 -89 -67.5t-116 -25.5q-49 0 -88.5 12.5t-65.5 41.5q-36 41 -35 99t25 149l83 314q7 27 8 43.5
t-5.5 25.5t-21.5 12.5t-40 4.5l6 20q20 -2 55 -2.5t74 -0.5q35 0 68 0.5t57 2.5l-6 -20q-26 -1 -42.5 -4.5t-27.5 -12.5t-18.5 -25.5t-14.5 -43.5l-88 -331q-13 -51 -19.5 -96.5t1.5 -79.5t35 -54t79 -20q56 0 98 19.5t72.5 54t51.5 82t36 103.5z" />
    <glyph glyph-name="uhungarumlaut" unicode="&#x171;" horiz-adv-x="567" 
d="M379 751q-12 -15 -27 -28.5t-34 -30.5t-43 -39t-54 -54l-11 9q23 36 39 65t27.5 52t21.5 40.5t21 32.5q15 20 31.5 22t28.5 -7q12 -10 13.5 -26t-13.5 -36zM557 813q12 -10 13.5 -26t-13.5 -36q-12 -15 -27 -28.5t-34 -30.5t-43 -39t-54 -54l-11 9q23 36 39 65t27.5 52
t21.5 40.5t21 32.5q15 20 31.5 22t28.5 -7zM394 85q-8 -27 -7 -44.5t21 -17.5q22 0 40 23t38 79l13 37h19l-25 -73q-11 -31 -25.5 -51.5t-30.5 -31.5t-33 -15.5t-32 -4.5q-16 0 -30 6.5t-21 20.5q-8 17 -5.5 42.5t13.5 70.5l31 125q-30 -73 -58 -123.5t-56.5 -82
t-57.5 -45.5t-61 -14q-33 0 -52 11.5t-26.5 32t-5 48t13.5 59.5l97 292q10 30 7 46t-23 16q-19 0 -37.5 -21t-39.5 -81l-13 -37h-19l25 73q11 32 25.5 52t30.5 31t33 15.5t32 4.5q33 0 48.5 -12t19.5 -31.5t-0.5 -45t-13.5 -51.5l-95 -286q-14 -44 -8.5 -64t30.5 -20
q29 0 63.5 33t69 92.5t67.5 141.5t59 180l12 49q25 1 48.5 4t42.5 10z" />
    <glyph glyph-name="Uogonek" unicode="&#x172;" horiz-adv-x="682" 
d="M670 705q26 0 51.5 0.5t42.5 2.5l-5 -20q-26 -1 -43 -6t-29 -16t-19.5 -29t-14.5 -45l-78 -301q-18 -70 -42 -122t-56 -90q-26 -30 -60 -51.5t-76 -32.5q-17 -7 -33.5 -16.5t-30 -21.5t-21.5 -27t-8 -33q0 -37 39 -37q20 0 42 8t35 18l11 -17q-32 -30 -64.5 -43.5
t-64.5 -13.5q-37 0 -55.5 16t-18.5 42q0 20 10 37t26 31.5t36 26.5t41 21h-13q-49 0 -88.5 12.5t-65.5 41.5q-36 41 -35 99t25 149l83 314q7 27 8 43.5t-5.5 25.5t-21.5 12.5t-40 4.5l6 20q20 -2 55 -2.5t74 -0.5q35 0 68 0.5t57 2.5l-6 -20q-26 -1 -42.5 -4.5t-27.5 -12.5
t-18.5 -25.5t-14.5 -43.5l-88 -331q-13 -51 -19.5 -96.5t1.5 -79.5t35 -54t79 -20q56 0 98 19.5t72.5 54t51.5 82t36 103.5l82 312q14 55 -1 74.5t-66 21.5l5 20q17 -2 46 -2.5t55 -0.5z" />
    <glyph glyph-name="uogonek" unicode="&#x173;" horiz-adv-x="567" 
d="M499 162h19l-25 -73q-19 -55 -48 -76.5t-58 -25.5q-28 -14 -51 -36.5t-23 -52.5q0 -38 38 -38q19 0 38 8.5t30 22.5l12 -11q-29 -35 -59.5 -51.5t-62.5 -16.5q-35 0 -53.5 16.5t-18.5 42.5q0 20 10.5 37.5t27 32t37.5 26.5t42 21q-11 3 -19.5 9t-13.5 16q-8 17 -5.5 42.5
t13.5 70.5l31 125q-30 -73 -58 -123.5t-56.5 -82t-57.5 -45.5t-61 -14q-33 0 -52 11.5t-26.5 32t-5 48t13.5 59.5l97 292q10 30 7 46t-23 16q-19 0 -37.5 -21t-39.5 -81l-13 -37h-19l25 73q11 32 25.5 52t30.5 31t33 15.5t32 4.5q33 0 48.5 -12t19.5 -31.5t-0.5 -45
t-13.5 -51.5l-95 -286q-14 -44 -8.5 -64t30.5 -20q29 0 63.5 33t69 92.5t67.5 141.5t59 180l12 49q25 1 48.5 4t42.5 10l-124 -443q-8 -27 -7 -44.5t21 -17.5q22 0 40 23t38 79z" />
    <glyph glyph-name="Wcircumflex" unicode="&#x174;" horiz-adv-x="902" 
d="M593 852q-26 -20 -61.5 -40.5t-71.5 -34.5l-6 22q50 20 93.5 55.5t68.5 76.5h22q5 -41 31 -76.5t65 -55.5l-16 -21q-37 14 -71 34t-54 40zM918 705q26 0 43 0.5t33 2.5l-5 -20q-21 -5 -46.5 -22t-48.5 -65l-299 -606h-16l-72 456l-271 -456h-16l-79 629q-5 39 -22 51
t-33 13l4 20q41 -3 99 -3q33 0 61.5 0.5t46.5 2.5l-4 -20q-34 -2 -48 -18t-8 -66l56 -477l209 355l-22 142q-6 38 -18.5 50.5t-26.5 13.5l4 20q36 -3 89 -3q39 0 73 0.5t55 2.5l-4 -20q-26 -1 -42.5 -4.5t-25.5 -12.5t-10.5 -25t2.5 -42l72 -455l195 397q21 43 28.5 70.5
t2 43t-24.5 21.5t-50 7l5 20q28 -2 58 -2.5t56 -0.5z" />
    <glyph glyph-name="wcircumflex" unicode="&#x175;" horiz-adv-x="685" 
d="M413 658q-26 -20 -61.5 -40.5t-71.5 -34.5l-6 22q50 20 93.5 55.5t68.5 76.5h22q5 -41 31 -76.5t65 -55.5l-16 -21q-37 14 -71 34t-54 40zM619 410q8 -37 8.5 -83t-8.5 -93.5t-27.5 -92t-48 -79t-70 -55.5t-92.5 -21q-34 0 -62.5 13t-43.5 48q-30 -27 -65 -44t-73 -17
q-34 0 -58 9.5t-38.5 25.5t-21 36.5t-6.5 42.5q0 47 26 97t67.5 98.5t92.5 94.5t101 83q-26 -15 -51.5 -30.5t-45.5 -15.5q-9 0 -17 4t-15.5 8.5t-14.5 8.5t-16 4q-16 0 -27 -13.5t-22 -48.5l-12 -37h-19l23 73q20 60 43.5 81t49.5 21q14 0 25 -6t21 -13.5t20.5 -13.5
t25.5 -6q24 0 43 7.5t37 23.5l14 19l21 -10q-52 -43 -101 -92t-87 -102.5t-61 -111t-23 -117.5q0 -51 14.5 -70.5t40.5 -19.5q24 0 50.5 12t52.5 36q-3 12 -5 27t-2 32q0 44 15 86.5t37.5 75.5t47.5 53.5t46 20.5q11 0 18 -6.5t10.5 -17t5 -23t1.5 -23.5q0 -53 -28 -107.5
t-87 -100.5q10 -29 29 -47.5t51 -18.5q41 0 73 20.5t55.5 53t39 73.5t23 83t7 80.5t-7.5 65.5q-14 3 -30.5 9.5t-31 17t-24 26t-9.5 36.5q0 26 14 37t28 11q29 0 47 -33.5t27 -84.5zM401 337q-12 0 -27 -15t-28 -39.5t-21.5 -55.5t-8.5 -64q0 -17 1.5 -33t5.5 -31
q45 37 71 88t26 103q0 20 -4 33.5t-15 13.5z" />
    <glyph glyph-name="Ycircumflex" unicode="&#x176;" horiz-adv-x="670" 
d="M490 852q-26 -20 -61.5 -40.5t-71.5 -34.5l-6 22q50 20 93.5 55.5t68.5 76.5h22q5 -41 31 -76.5t65 -55.5l-16 -21q-37 14 -71 34t-54 40zM700 722q34 0 46 -18.5t10 -40.5q-1 -10 -4.5 -21.5t-11 -21t-18 -15.5t-25.5 -6q-23 0 -31 13.5t-7 29.5t10 31.5t22 27.5h-3
q-16 -1 -29.5 -7t-25.5 -15q-22 -16 -49.5 -44t-57 -69.5t-61 -98t-61.5 -129.5l-58 -232q-7 -27 -8 -43.5t5.5 -25.5t21.5 -12.5t40 -4.5l-5 -20q-23 2 -56 2.5t-68 0.5q-39 0 -74 -0.5t-57 -2.5l5 20q26 1 42.5 4.5t28 12.5t18.5 25.5t14 43.5l59 233q-6 55 -15.5 113
t-23 106t-33 78.5t-45.5 30.5q-17 0 -28.5 -10.5t-19.5 -36.5l-28 -82h-22l33 97q15 44 35 65.5t63 21.5q41 0 69 -25.5t47 -73t30.5 -114t20.5 -149.5q38 97 86.5 171t100.5 126q23 23 54.5 44t63.5 21z" />
    <glyph glyph-name="ycircumflex" unicode="&#x177;" horiz-adv-x="481" 
d="M308 658q-26 -20 -61.5 -40.5t-71.5 -34.5l-6 22q50 20 93.5 55.5t68.5 76.5h22q5 -41 31 -76.5t65 -55.5l-16 -21q-37 14 -71 34t-54 40zM406 528q52 0 52 -81q0 -51 -17.5 -110t-45.5 -118t-63 -115t-71 -101q-12 -15 -31 -36.5t-43.5 -44.5t-55.5 -45.5t-67 -39.5
q-30 -14 -51.5 -19.5t-35.5 -5.5q-20 0 -35 10.5t-15 30.5q0 22 16.5 33.5t37.5 11.5q23 0 43.5 -12t39.5 -27q34 18 71.5 46.5t78.5 73.5l-74 448q-5 31 -12 43t-20 12q-11 0 -25 -17.5t-34 -74.5l-13 -37h-19l25 73q21 61 52 81.5t63 20.5q31 0 47.5 -19t24.5 -73l51 -376
q52 72 93 155.5t58 169.5q-12 6 -26 15.5t-25.5 21.5t-18.5 27t-6 32q2 23 16 35t35 12z" />
    <glyph glyph-name="Ydieresis" unicode="&#x178;" horiz-adv-x="670" 
d="M362 772q-23 0 -36.5 14.5t-13.5 36.5q0 23 20 44t47 21q21 0 35.5 -14.5t14.5 -35.5q0 -25 -20 -45.5t-47 -20.5zM574 772q-23 0 -36.5 14.5t-13.5 36.5q0 23 20 44t47 21q21 0 35.5 -14.5t14.5 -35.5q0 -25 -20 -45.5t-47 -20.5zM700 722q34 0 46 -18.5t10 -40.5
q-1 -10 -4.5 -21.5t-11 -21t-18 -15.5t-25.5 -6q-23 0 -31 13.5t-7 29.5t10 31.5t22 27.5h-3q-16 -1 -29.5 -7t-25.5 -15q-22 -16 -49.5 -44t-57 -69.5t-61 -98t-61.5 -129.5l-58 -232q-7 -27 -8 -43.5t5.5 -25.5t21.5 -12.5t40 -4.5l-5 -20q-23 2 -56 2.5t-68 0.5
q-39 0 -74 -0.5t-57 -2.5l5 20q26 1 42.5 4.5t28 12.5t18.5 25.5t14 43.5l59 233q-6 55 -15.5 113t-23 106t-33 78.5t-45.5 30.5q-17 0 -28.5 -10.5t-19.5 -36.5l-28 -82h-22l33 97q15 44 35 65.5t63 21.5q41 0 69 -25.5t47 -73t30.5 -114t20.5 -149.5q38 97 86.5 171
t100.5 126q23 23 54.5 44t63.5 21z" />
    <glyph glyph-name="Zacute" unicode="&#x179;" horiz-adv-x="652" 
d="M573 882q-12 -11 -26.5 -21.5t-33 -24t-41.5 -30.5t-52 -42l-13 14q25 29 43 51t31.5 39.5t24.5 31.5t23 26q16 14 31 17.5t26 -5.5q10 -11 6.5 -25.5t-19.5 -30.5zM713 713q12 -11 -1.5 -33t-67.5 -42l-277 -272h152l-8 -20h-164l-283 -278q42 25 86.5 39.5t86.5 14.5
q32 0 57.5 -8.5t49.5 -19t49.5 -19.5t57.5 -9q34 0 51 17.5t17 48.5q0 30 -18.5 48t-53.5 25l4 20q19 -3 38 -11t34 -21.5t24.5 -34t9.5 -49.5q0 -54 -32 -88.5t-89 -34.5q-37 0 -64 16.5t-51.5 37t-51 37t-62.5 16.5q-42 0 -74.5 -12.5t-73.5 -32.5q-23 -32 -48.5 -49
t-39.5 -4q-12 11 1.5 33t67.5 42l281 276h-162l7 20h175l279 274q-42 -25 -86.5 -39.5t-86.5 -14.5q-32 0 -57.5 9t-49.5 19.5t-49.5 19t-57.5 8.5q-34 0 -51 -17.5t-17 -48.5q0 -30 18.5 -48t53.5 -25l-4 -20q-19 3 -38 11t-34 21.5t-24.5 34t-9.5 49.5q0 54 32 88.5
t89 34.5q37 0 64 -16.5t51.5 -37t51 -37t62.5 -16.5q42 0 74.5 12.5t73.5 32.5q23 32 48 49t40 4z" />
    <glyph glyph-name="zacute" unicode="&#x17a;" horiz-adv-x="445" 
d="M428 744q10 -11 6.5 -25.5t-19.5 -30.5q-12 -11 -26.5 -21.5t-33 -24t-41.5 -30.5t-52 -42l-13 14q25 29 43 51t31.5 39.5t24.5 31.5t23 26q16 14 31 17.5t26 -5.5zM25 39q43 27 71 39.5t56 12.5q18 0 34 -5t32 -11t33 -11t36 -5q26 0 40.5 12t14.5 38q0 27 -22 46
t-57 26l6 15q46 -11 71.5 -35t25.5 -62q0 -20 -6 -39t-20 -33.5t-36 -23.5t-54 -9q-26 0 -45.5 6.5t-38 15t-39 15t-49.5 6.5q-26 0 -47.5 -7.5t-42.5 -29.5h-27l451 475q-43 -27 -71 -39.5t-56 -12.5q-18 0 -34 5t-32 11t-33 11t-36 5q-26 0 -40.5 -12t-14.5 -38
q0 -27 22 -46t57 -26l-6 -15q-46 11 -71.5 35t-25.5 62q0 20 6 39t20 33.5t36 23.5t54 9q26 0 45.5 -6.5t38 -15t39 -15t49.5 -6.5q26 0 47.5 7.5t42.5 29.5h27z" />
    <glyph glyph-name="Zdotaccent" unicode="&#x17b;" horiz-adv-x="652" 
d="M468 772q-23 0 -36.5 15t-13.5 38q0 13 5.5 26.5t15.5 24t23.5 17.5t29.5 7q23 0 37 -15t14 -38q0 -13 -6 -26.5t-16 -24.5t-23.5 -17.5t-29.5 -6.5zM713 713q12 -11 -1.5 -33t-67.5 -42l-277 -272h152l-8 -20h-164l-283 -278q42 25 86.5 39.5t86.5 14.5q32 0 57.5 -8.5
t49.5 -19t49.5 -19.5t57.5 -9q34 0 51 17.5t17 48.5q0 30 -18.5 48t-53.5 25l4 20q19 -3 38 -11t34 -21.5t24.5 -34t9.5 -49.5q0 -54 -32 -88.5t-89 -34.5q-37 0 -64 16.5t-51.5 37t-51 37t-62.5 16.5q-42 0 -74.5 -12.5t-73.5 -32.5q-23 -32 -48.5 -49t-39.5 -4
q-12 11 1.5 33t67.5 42l281 276h-162l7 20h175l279 274q-42 -25 -86.5 -39.5t-86.5 -14.5q-32 0 -57.5 9t-49.5 19.5t-49.5 19t-57.5 8.5q-34 0 -51 -17.5t-17 -48.5q0 -30 18.5 -48t53.5 -25l-4 -20q-19 3 -38 11t-34 21.5t-24.5 34t-9.5 49.5q0 54 32 88.5t89 34.5
q37 0 64 -16.5t51.5 -37t51 -37t62.5 -16.5q42 0 74.5 12.5t73.5 32.5q23 32 48 49t40 4z" />
    <glyph glyph-name="zdotaccent" unicode="&#x17c;" horiz-adv-x="445" 
d="M264 688q0 13 5.5 26.5t15.5 25t23.5 18.5t29.5 7q23 0 37 -14.5t14 -36.5q0 -13 -5.5 -27t-15.5 -25t-24 -18t-30 -7q-23 0 -36.5 14.5t-13.5 36.5zM25 39q43 27 71 39.5t56 12.5q18 0 34 -5t32 -11t33 -11t36 -5q26 0 40.5 12t14.5 38q0 27 -22 46t-57 26l6 15
q46 -11 71.5 -35t25.5 -62q0 -20 -6 -39t-20 -33.5t-36 -23.5t-54 -9q-26 0 -45.5 6.5t-38 15t-39 15t-49.5 6.5q-26 0 -47.5 -7.5t-42.5 -29.5h-27l451 475q-43 -27 -71 -39.5t-56 -12.5q-18 0 -34 5t-32 11t-33 11t-36 5q-26 0 -40.5 -12t-14.5 -38q0 -27 22 -46t57 -26
l-6 -15q-46 11 -71.5 35t-25.5 62q0 20 6 39t20 33.5t36 23.5t54 9q26 0 45.5 -6.5t38 -15t39 -15t49.5 -6.5q26 0 47.5 7.5t42.5 29.5h27z" />
    <glyph glyph-name="Zcaron" unicode="&#x17d;" horiz-adv-x="652" 
d="M437 780q-26 44 -57 77t-82 53l4 14q34 -6 59 -14t45.5 -16.5t37.5 -18t35 -19.5q39 17 95.5 36.5t110.5 31.5l5 -14q-73 -23 -135 -57.5t-100 -72.5h-18zM713 713q12 -11 -1.5 -33t-67.5 -42l-277 -272h152l-8 -20h-164l-283 -278q42 25 86.5 39.5t86.5 14.5
q32 0 57.5 -8.5t49.5 -19t49.5 -19.5t57.5 -9q34 0 51 17.5t17 48.5q0 30 -18.5 48t-53.5 25l4 20q19 -3 38 -11t34 -21.5t24.5 -34t9.5 -49.5q0 -54 -32 -88.5t-89 -34.5q-37 0 -64 16.5t-51.5 37t-51 37t-62.5 16.5q-42 0 -74.5 -12.5t-73.5 -32.5q-23 -32 -48.5 -49
t-39.5 -4q-12 11 1.5 33t67.5 42l281 276h-162l7 20h175l279 274q-42 -25 -86.5 -39.5t-86.5 -14.5q-32 0 -57.5 9t-49.5 19.5t-49.5 19t-57.5 8.5q-34 0 -51 -17.5t-17 -48.5q0 -30 18.5 -48t53.5 -25l-4 -20q-19 3 -38 11t-34 21.5t-24.5 34t-9.5 49.5q0 54 32 88.5
t89 34.5q37 0 64 -16.5t51.5 -37t51 -37t62.5 -16.5q42 0 74.5 12.5t73.5 32.5q23 32 48 49t40 4z" />
    <glyph glyph-name="zcaron" unicode="&#x17e;" horiz-adv-x="445" 
d="M344 698q35 27 81 55.5t94 48.5l5 -14q-67 -29 -123.5 -75t-91.5 -97h-18q-11 62 -37.5 102.5t-81.5 69.5l4 14q63 -17 100 -43.5t68 -60.5zM25 39q43 27 71 39.5t56 12.5q18 0 34 -5t32 -11t33 -11t36 -5q26 0 40.5 12t14.5 38q0 27 -22 46t-57 26l6 15q46 -11 71.5 -35
t25.5 -62q0 -20 -6 -39t-20 -33.5t-36 -23.5t-54 -9q-26 0 -45.5 6.5t-38 15t-39 15t-49.5 6.5q-26 0 -47.5 -7.5t-42.5 -29.5h-27l451 475q-43 -27 -71 -39.5t-56 -12.5q-18 0 -34 5t-32 11t-33 11t-36 5q-26 0 -40.5 -12t-14.5 -38q0 -27 22 -46t57 -26l-6 -15
q-46 11 -71.5 35t-25.5 62q0 20 6 39t20 33.5t36 23.5t54 9q26 0 45.5 -6.5t38 -15t39 -15t49.5 -6.5q26 0 47.5 7.5t42.5 29.5h27z" />
    <glyph glyph-name="florin" unicode="&#x192;" horiz-adv-x="466" 
d="M459 782q54 0 79 -26.5t16 -62.5q-6 -21 -23.5 -36t-41.5 -15t-35.5 13t-5.5 37q5 17 19.5 30.5t37.5 20.5q-1 9 -13.5 16.5t-33.5 7.5q-23 0 -42 -10t-32 -27q-10 -11 -18 -27.5t-16.5 -41.5t-18 -60.5t-23.5 -85.5v-1h167l-5 -20h-168l-101 -379q-19 -69 -46 -134
t-72 -108q-32 -31 -66.5 -46t-66.5 -15q-35 0 -47 16t-6 37q5 20 21 33.5t38 13.5q20 0 29 -13t4 -32q-2 -8 -8 -18.5t-18 -21.5q40 5 64 28t39 80l149 559h-122l5 20h123v1q12 44 23 77t23 58.5t26.5 45t33.5 36.5q26 23 60.5 36.5t71.5 13.5z" />
    </font>
</defs>
</svg>
